ISO-10303-21;
HEADER;
/* Generated by software containing ST-Developer
 * from STEP Tools, Inc. (www.steptools.com) 
 */

FILE_DESCRIPTION(
/* description */ ('',
'CAx-IF Rec.Pracs.---Representation and Presentation of Product Manufa
cturing Information (PMI)---4.0---2014-10-13'),
/* implementation_level */ '2;1');

FILE_NAME(
/* name */ 'Mirror.step',
/* time_stamp */ '2025-02-14T18:35:20+08:00',
/* author */ (''),
/* organization */ (''),
/* preprocessor_version */ 'ST-DEVELOPER v20',
/* originating_system */ 'Autodesk Translation Framework v13.20.0.188',

/* authorisation */ '');

FILE_SCHEMA (('AP242_MANAGED_MODEL_BASED_3D_ENGINEERING_MIM_LF { 1 0 10303 442 1 1 4 }'));
ENDSEC;

DATA;
#10=MECHANICAL_DESIGN_GEOMETRIC_PRESENTATION_REPRESENTATION('',(#13),#177);
#11=SHAPE_REPRESENTATION_RELATIONSHIP('SRR','None',#184,#12);
#12=ADVANCED_BREP_SHAPE_REPRESENTATION('',(#14),#176);
#13=STYLED_ITEM('',(#194),#14);
#14=MANIFOLD_SOLID_BREP('Body1',#64);
#15=FACE_BOUND('',#28,.T.);
#16=PLANE('',#83);
#17=(
BOUNDED_CURVE()
B_SPLINE_CURVE(2,(#166,#167,#168,#169,#170,#171),.UNSPECIFIED.,.F.,.F.)
B_SPLINE_CURVE_WITH_KNOTS((3,1,1,1,3),(0.,0.388466332198086,1.03270715783338,
2.69311231685084,3.2336460518876),.UNSPECIFIED.)
CURVE()
GEOMETRIC_REPRESENTATION_ITEM()
RATIONAL_B_SPLINE_CURVE((1.,1.63069618978535,3.10593127503255,5.65268264976091,
6.25,6.25))
REPRESENTATION_ITEM('')
);
#18=(
BOUNDED_SURFACE()
B_SPLINE_SURFACE(2,2,((#110,#111,#112,#113,#114,#115,#116,#117,#118),(#119,
#120,#121,#122,#123,#124,#125,#126,#127),(#128,#129,#130,#131,#132,#133,
#134,#135,#136),(#137,#138,#139,#140,#141,#142,#143,#144,#145),(#146,#147,
#148,#149,#150,#151,#152,#153,#154),(#155,#156,#157,#158,#159,#160,#161,
#162,#163)),.UNSPECIFIED.,.F.,.T.,.F.)
B_SPLINE_SURFACE_WITH_KNOTS((3,1,1,1,3),(3,2,2,2,3),(0.,0.388466332198086,
1.03270715783338,2.69311231685084,3.23364605188733),(0.,1.5707963267949,
3.14159265358979,4.71238898038469,6.28318530717959),.UNSPECIFIED.)
GEOMETRIC_REPRESENTATION_ITEM()
RATIONAL_B_SPLINE_SURFACE(((1.,0.707106781186548,1.,0.707106781186548,1.,
0.707106781186548,1.,0.707106781186548,1.),(1.63069618978535,1.15307633385229,
1.63069618978535,1.15307633385229,1.63069618978535,1.15307633385229,1.63069618978535,
1.15307633385229,1.63069618978535),(3.10593127503255,2.19622506647489,3.10593127503255,
2.19622506647489,3.10593127503255,2.19622506647489,3.10593127503255,2.19622506647489,
3.10593127503255),(5.65268264976091,3.99705023354148,5.65268264976091,3.99705023354148,
5.65268264976091,3.99705023354148,5.65268264976091,3.99705023354148,5.65268264976091),
(6.24999999999993,4.41941738241587,6.24999999999993,4.41941738241587,6.24999999999993,
4.41941738241587,6.24999999999993,4.41941738241587,6.24999999999993),(6.25,
4.41941738241592,6.25,4.41941738241592,6.25,4.41941738241592,6.25,4.41941738241592,
6.25)))
REPRESENTATION_ITEM('')
SURFACE()
);
#19=CYLINDRICAL_SURFACE('',#80,1.2645);
#20=FACE_OUTER_BOUND('',#24,.T.);
#21=FACE_OUTER_BOUND('',#25,.T.);
#22=FACE_OUTER_BOUND('',#26,.T.);
#23=FACE_OUTER_BOUND('',#27,.T.);
#24=EDGE_LOOP('',(#47,#48,#49));
#25=EDGE_LOOP('',(#50,#51,#52,#53));
#26=EDGE_LOOP('',(#54,#55,#56));
#27=EDGE_LOOP('',(#57));
#28=EDGE_LOOP('',(#58));
#29=LINE('',#105,#31);
#30=LINE('',#109,#32);
#31=VECTOR('',#90,0.63225);
#32=VECTOR('',#95,1.2645);
#33=CIRCLE('',#79,1.2645);
#34=CIRCLE('',#81,1.2645);
#35=CIRCLE('',#82,29.1563787684416);
#36=VERTEX_POINT('',#102);
#37=VERTEX_POINT('',#104);
#38=VERTEX_POINT('',#107);
#39=VERTEX_POINT('',#164);
#40=VERTEX_POINT('',#165);
#41=EDGE_CURVE('',#36,#36,#33,.T.);
#42=EDGE_CURVE('',#36,#37,#29,.T.);
#43=EDGE_CURVE('',#38,#38,#34,.T.);
#44=EDGE_CURVE('',#38,#36,#30,.T.);
#45=EDGE_CURVE('',#39,#40,#17,.T.);
#46=EDGE_CURVE('',#39,#39,#35,.T.);
#47=ORIENTED_EDGE('',*,*,#41,.F.);
#48=ORIENTED_EDGE('',*,*,#42,.T.);
#49=ORIENTED_EDGE('',*,*,#42,.F.);
#50=ORIENTED_EDGE('',*,*,#43,.F.);
#51=ORIENTED_EDGE('',*,*,#44,.T.);
#52=ORIENTED_EDGE('',*,*,#41,.T.);
#53=ORIENTED_EDGE('',*,*,#44,.F.);
#54=ORIENTED_EDGE('',*,*,#45,.T.);
#55=ORIENTED_EDGE('',*,*,#45,.F.);
#56=ORIENTED_EDGE('',*,*,#46,.F.);
#57=ORIENTED_EDGE('',*,*,#46,.T.);
#58=ORIENTED_EDGE('',*,*,#43,.T.);
#59=CONICAL_SURFACE('',#78,0.63225,1.02974425867665);
#60=ADVANCED_FACE('',(#20),#59,.F.);
#61=ADVANCED_FACE('',(#21),#19,.F.);
#62=ADVANCED_FACE('',(#22),#18,.T.);
#63=ADVANCED_FACE('',(#23,#15),#16,.T.);
#64=CLOSED_SHELL('',(#60,#61,#62,#63));
#65=DERIVED_UNIT_ELEMENT(#67,1.);
#66=DERIVED_UNIT_ELEMENT(#179,-3.);
#67=(
MASS_UNIT()
NAMED_UNIT(*)
SI_UNIT(.KILO.,.GRAM.)
);
#68=DERIVED_UNIT((#65,#66));
#69=MEASURE_REPRESENTATION_ITEM('density measure',
POSITIVE_RATIO_MEASURE(7850.),#68);
#70=PROPERTY_DEFINITION_REPRESENTATION(#75,#72);
#71=PROPERTY_DEFINITION_REPRESENTATION(#76,#73);
#72=REPRESENTATION('material name',(#74),#176);
#73=REPRESENTATION('density',(#69),#176);
#74=DESCRIPTIVE_REPRESENTATION_ITEM('Steel','Steel');
#75=PROPERTY_DEFINITION('material property','material name',#186);
#76=PROPERTY_DEFINITION('material property','density of part',#186);
#77=AXIS2_PLACEMENT_3D('',#100,#84,#85);
#78=AXIS2_PLACEMENT_3D('',#101,#86,#87);
#79=AXIS2_PLACEMENT_3D('',#103,#88,#89);
#80=AXIS2_PLACEMENT_3D('',#106,#91,#92);
#81=AXIS2_PLACEMENT_3D('',#108,#93,#94);
#82=AXIS2_PLACEMENT_3D('',#172,#96,#97);
#83=AXIS2_PLACEMENT_3D('',#173,#98,#99);
#84=DIRECTION('axis',(0.,0.,1.));
#85=DIRECTION('refdir',(1.,0.,0.));
#86=DIRECTION('center_axis',(3.31982073975119E-15,1.,-7.25612180196481E-28));
#87=DIRECTION('ref_axis',(0.,7.25612180196481E-28,1.));
#88=DIRECTION('center_axis',(-3.31982073975119E-15,-1.,7.25612180196481E-28));
#89=DIRECTION('ref_axis',(0.,7.25612180196481E-28,1.));
#90=DIRECTION('',(-1.81480680196179E-15,-0.515038074910054,0.857167300702112));
#91=DIRECTION('center_axis',(-3.31982073975119E-15,-1.,7.25612180196481E-28));
#92=DIRECTION('ref_axis',(0.,7.25612180196481E-28,1.));
#93=DIRECTION('center_axis',(0.,-1.,0.));
#94=DIRECTION('ref_axis',(0.,7.25612180196481E-28,1.));
#95=DIRECTION('',(-3.31982073975119E-15,-1.,7.25612180196481E-28));
#96=DIRECTION('center_axis',(0.,1.,0.));
#97=DIRECTION('ref_axis',(1.,0.,0.));
#98=DIRECTION('center_axis',(0.,1.,0.));
#99=DIRECTION('ref_axis',(0.,0.,1.));
#100=CARTESIAN_POINT('',(0.,0.,0.));
#101=CARTESIAN_POINT('Origin',(5.1862274744537E-13,156.22010587362,-1.13355211613482E-25));
#102=CARTESIAN_POINT('',(5.20038784432789E-13,156.6,-1.2645));
#103=CARTESIAN_POINT('Origin',(5.19883927845037E-13,156.6,-1.13630867418769E-25));
#104=CARTESIAN_POINT('',(5.17361567045704E-13,155.84021174724,-1.13079555808196E-25));
#105=CARTESIAN_POINT('',(5.18700175739246E-13,156.22010587362,-0.63225));
#106=CARTESIAN_POINT('Origin',(5.31503300434166E-13,160.1,-1.16170510049456E-25));
#107=CARTESIAN_POINT('',(5.36637888131545E-13,161.6,-1.2645));
#108=CARTESIAN_POINT('Origin',(5.36483031543793E-13,161.6,-1.17258928319751E-25));
#109=CARTESIAN_POINT('',(5.31658157021918E-13,160.1,-1.2645));
#110=CARTESIAN_POINT('Ctrl Pts',(-29.1563787684415,161.6,0.));
#111=CARTESIAN_POINT('Ctrl Pts',(-29.1563787684415,161.6,29.1563787684416));
#112=CARTESIAN_POINT('Ctrl Pts',(1.13242748511766E-13,161.6,29.1563787684416));
#113=CARTESIAN_POINT('Ctrl Pts',(29.1563787684417,161.6,29.1563787684416));
#114=CARTESIAN_POINT('Ctrl Pts',(29.1563787684417,161.6,0.));
#115=CARTESIAN_POINT('Ctrl Pts',(29.1563787684417,161.6,-29.1563787684416));
#116=CARTESIAN_POINT('Ctrl Pts',(1.13242748511766E-13,161.6,-29.1563787684416));
#117=CARTESIAN_POINT('Ctrl Pts',(-29.1563787684415,161.6,-29.1563787684416));
#118=CARTESIAN_POINT('Ctrl Pts',(-29.1563787684415,161.6,0.));
#119=CARTESIAN_POINT('Ctrl Pts',(-16.8057440960563,155.161283844225,0.));
#120=CARTESIAN_POINT('Ctrl Pts',(-16.8057440960563,155.161283844225,16.8057440960564));
#121=CARTESIAN_POINT('Ctrl Pts',(1.13242748511766E-13,155.161283844225,
16.8057440960564));
#122=CARTESIAN_POINT('Ctrl Pts',(16.8057440960565,155.161283844225,16.8057440960564));
#123=CARTESIAN_POINT('Ctrl Pts',(16.8057440960566,155.161283844225,0.));
#124=CARTESIAN_POINT('Ctrl Pts',(16.8057440960565,155.161283844225,-16.8057440960564));
#125=CARTESIAN_POINT('Ctrl Pts',(1.13242748511766E-13,155.161283844225,
-16.8057440960564));
#126=CARTESIAN_POINT('Ctrl Pts',(-16.8057440960563,155.161283844225,-16.8057440960564));
#127=CARTESIAN_POINT('Ctrl Pts',(-16.8057440960563,155.161283844225,0.));
#128=CARTESIAN_POINT('Ctrl Pts',(-7.32447868581821,150.312325385615,0.));
#129=CARTESIAN_POINT('Ctrl Pts',(-7.32447868581821,150.312325385615,7.32447868581832));
#130=CARTESIAN_POINT('Ctrl Pts',(1.13242748511766E-13,150.312325385615,
7.32447868581832));
#131=CARTESIAN_POINT('Ctrl Pts',(7.32447868581843,150.312325385615,7.32447868581832));
#132=CARTESIAN_POINT('Ctrl Pts',(7.32447868581843,150.312325385615,0.));
#133=CARTESIAN_POINT('Ctrl Pts',(7.32447868581843,150.312325385615,-7.32447868581832));
#134=CARTESIAN_POINT('Ctrl Pts',(1.13242748511766E-13,150.312325385615,
-7.32447868581832));
#135=CARTESIAN_POINT('Ctrl Pts',(-7.32447868581821,150.312325385615,-7.32447868581832));
#136=CARTESIAN_POINT('Ctrl Pts',(-7.32447868581821,150.312325385615,0.));
#137=CARTESIAN_POINT('Ctrl Pts',(-2.18645436168976,147.89746385887,0.));
#138=CARTESIAN_POINT('Ctrl Pts',(-2.18645436168975,147.89746385887,2.18645436168987));
#139=CARTESIAN_POINT('Ctrl Pts',(1.13242748511766E-13,147.89746385887,2.18645436168987));
#140=CARTESIAN_POINT('Ctrl Pts',(2.18645436168998,147.89746385887,2.18645436168987));
#141=CARTESIAN_POINT('Ctrl Pts',(2.18645436168998,147.89746385887,0.));
#142=CARTESIAN_POINT('Ctrl Pts',(2.18645436168998,147.89746385887,-2.18645436168987));
#143=CARTESIAN_POINT('Ctrl Pts',(1.13242748511766E-13,147.89746385887,-2.18645436168987));
#144=CARTESIAN_POINT('Ctrl Pts',(-2.18645436168975,147.89746385887,-2.18645436168987));
#145=CARTESIAN_POINT('Ctrl Pts',(-2.18645436168976,147.89746385887,0.));
#146=CARTESIAN_POINT('Ctrl Pts',(-0.389900590552422,147.616,0.));
#147=CARTESIAN_POINT('Ctrl Pts',(-0.389900590552422,147.616,0.389900590552535));
#148=CARTESIAN_POINT('Ctrl Pts',(1.13242748511766E-13,147.616,0.389900590552535));
#149=CARTESIAN_POINT('Ctrl Pts',(0.389900590552648,147.616,0.389900590552535));
#150=CARTESIAN_POINT('Ctrl Pts',(0.389900590552648,147.616,0.));
#151=CARTESIAN_POINT('Ctrl Pts',(0.389900590552648,147.616,-0.389900590552535));
#152=CARTESIAN_POINT('Ctrl Pts',(1.13242748511766E-13,147.616,-0.389900590552535));
#153=CARTESIAN_POINT('Ctrl Pts',(-0.389900590552422,147.616,-0.389900590552535));
#154=CARTESIAN_POINT('Ctrl Pts',(-0.389900590552422,147.616,0.));
#155=CARTESIAN_POINT('Ctrl Pts',(-2.88213897192691E-13,147.616,0.));
#156=CARTESIAN_POINT('Ctrl Pts',(-2.8821389719269E-13,147.616,4.01456645704456E-13));
#157=CARTESIAN_POINT('Ctrl Pts',(1.13242748511766E-13,147.616,4.01456645704457E-13));
#158=CARTESIAN_POINT('Ctrl Pts',(5.14699394216222E-13,147.616,4.01456645704456E-13));
#159=CARTESIAN_POINT('Ctrl Pts',(5.14699394216222E-13,147.616,0.));
#160=CARTESIAN_POINT('Ctrl Pts',(5.14699394216222E-13,147.616,-4.01456645704456E-13));
#161=CARTESIAN_POINT('Ctrl Pts',(1.13242748511766E-13,147.616,-4.01456645704457E-13));
#162=CARTESIAN_POINT('Ctrl Pts',(-2.8821389719269E-13,147.616,-4.01456645704456E-13));
#163=CARTESIAN_POINT('Ctrl Pts',(-2.88213897192691E-13,147.616,0.));
#164=CARTESIAN_POINT('',(-29.1563787684415,161.6,0.));
#165=CARTESIAN_POINT('',(1.13464793116691E-13,147.616,0.));
#166=CARTESIAN_POINT('Ctrl Pts',(-29.1563787684415,161.6,0.));
#167=CARTESIAN_POINT('Ctrl Pts',(-16.8057440960563,155.161283844225,0.));
#168=CARTESIAN_POINT('Ctrl Pts',(-7.32447868581821,150.312325385615,0.));
#169=CARTESIAN_POINT('Ctrl Pts',(-2.18645436168976,147.89746385887,0.));
#170=CARTESIAN_POINT('Ctrl Pts',(-0.389900590552216,147.616,0.));
#171=CARTESIAN_POINT('Ctrl Pts',(1.13402620627312E-13,147.616,0.));
#172=CARTESIAN_POINT('Origin',(1.13242748511766E-13,161.6,0.));
#173=CARTESIAN_POINT('Origin',(1.15463194561016E-13,161.6,0.));
#174=UNCERTAINTY_MEASURE_WITH_UNIT(LENGTH_MEASURE(0.01),#178,
'DISTANCE_ACCURACY_VALUE',
'Maximum model space distance between geometric entities at asserted c
onnectivities');
#175=UNCERTAINTY_MEASURE_WITH_UNIT(LENGTH_MEASURE(0.01),#178,
'DISTANCE_ACCURACY_VALUE',
'Maximum model space distance between geometric entities at asserted c
onnectivities');
#176=(
GEOMETRIC_REPRESENTATION_CONTEXT(3)
GLOBAL_UNCERTAINTY_ASSIGNED_CONTEXT((#174))
GLOBAL_UNIT_ASSIGNED_CONTEXT((#178,#180,#181))
REPRESENTATION_CONTEXT('','3D')
);
#177=(
GEOMETRIC_REPRESENTATION_CONTEXT(3)
GLOBAL_UNCERTAINTY_ASSIGNED_CONTEXT((#175))
GLOBAL_UNIT_ASSIGNED_CONTEXT((#178,#180,#181))
REPRESENTATION_CONTEXT('','3D')
);
#178=(
LENGTH_UNIT()
NAMED_UNIT(*)
SI_UNIT(.MILLI.,.METRE.)
);
#179=(
LENGTH_UNIT()
NAMED_UNIT(*)
SI_UNIT($,.METRE.)
);
#180=(
NAMED_UNIT(*)
PLANE_ANGLE_UNIT()
SI_UNIT($,.RADIAN.)
);
#181=(
NAMED_UNIT(*)
SI_UNIT($,.STERADIAN.)
SOLID_ANGLE_UNIT()
);
#182=SHAPE_DEFINITION_REPRESENTATION(#183,#184);
#183=PRODUCT_DEFINITION_SHAPE('',$,#186);
#184=SHAPE_REPRESENTATION('',(#77),#176);
#185=PRODUCT_DEFINITION_CONTEXT('part definition',#190,'design');
#186=PRODUCT_DEFINITION('Mirror','Mirror',#187,#185);
#187=PRODUCT_DEFINITION_FORMATION('',$,#192);
#188=PRODUCT_RELATED_PRODUCT_CATEGORY('Mirror','Mirror',(#192));
#189=APPLICATION_PROTOCOL_DEFINITION('international standard',
'ap242_managed_model_based_3d_engineering',2011,#190);
#190=APPLICATION_CONTEXT('Managed model based 3d engineering');
#191=PRODUCT_CONTEXT('part definition',#190,'mechanical');
#192=PRODUCT('Mirror','Mirror',$,(#191));
#193=PRESENTATION_STYLE_ASSIGNMENT((#195));
#194=PRESENTATION_STYLE_ASSIGNMENT((#196));
#195=SURFACE_STYLE_USAGE(.BOTH.,#197);
#196=SURFACE_STYLE_USAGE(.BOTH.,#198);
#197=SURFACE_SIDE_STYLE('',(#199));
#198=SURFACE_SIDE_STYLE('',(#200));
#199=SURFACE_STYLE_FILL_AREA(#201);
#200=SURFACE_STYLE_FILL_AREA(#202);
#201=FILL_AREA_STYLE('Steel - Satin',(#203));
#202=FILL_AREA_STYLE('Mirror',(#204));
#203=FILL_AREA_STYLE_COLOUR('Steel - Satin',#205);
#204=FILL_AREA_STYLE_COLOUR('Mirror',#206);
#205=COLOUR_RGB('Steel - Satin',0.627450980392157,0.627450980392157,0.627450980392157);
#206=COLOUR_RGB('Mirror',0.96078431372549,0.96078431372549,0.964705882352941);
ENDSEC;
END-ISO-10303-21;
