0
SECTION
2
HEADER
9
$INSUNITS
70
4
9
$ACADVER
1
AC1014
9
$HANDSEED
5
FFFF
0
ENDSEC
0
SECTION
2
TABLES
0
TABLE
2
VPORT
5
8
100
AcDbSymbolTable
0
ENDTAB
0
TABLE
2
LTYPE
5
5
100
AcDbSymbolTable
0
LTYPE
5
14
100
AcDbSymbolTableRecord
100
AcDbLinetypeTableRecord
2
BYBLOCK
70
0
0
LTYPE
5
15
100
AcDbSymbolTableRecord
100
AcDbLinetypeTableRecord
2
BYLAYER
70
0
0
LTYPE
5
16
100
AcDbSymbolTableRecord
100
AcDbLinetypeTableRecord
2
DASHED
70
0
3
Dashed __ __ __ __ __ __ __ __ __ __ __ __ __ _
72
65
73
2
40
0.75
49
0.5
74
0
49
-0.25
74
0
0
ENDTAB
0
TABLE
2
LAYER
5
2
100
AcDbSymbolTable
70
2
0
LAYER
5
50
100
AcDbSymbolTableRecord
100
AcDbLayerTableRecord
2
0
70
0
62
7
6
CONTINUOUS
0
ENDTAB
0
TABLE
2
STYLE
5
3
100
AcDbSymbolTable
70
1
0
STYLE
5
11
100
AcDbSymbolTableRecord
100
AcDbTextStyleTableRecord
2
STANDARD
70
0
0
ENDTAB
0
TABLE
2
VIEW
5
6
100
AcDbSymbolTable
70
0
0
ENDTAB
0
TABLE
2
UCS
5
7
100
AcDbSymbolTable
70
0
0
ENDTAB
0
TABLE
2
APPID
5
9
100
AcDbSymbolTable
70
2
0
APPID
5
12
100
AcDbSymbolTableRecord
100
AcDbRegAppTableRecord
2
ACAD
70
0
0
ENDTAB
0
TABLE
2
DIMSTYLE
5
A
100
AcDbSymbolTable
70
1
0
ENDTAB
0
TABLE
2
BLOCK_RECORD
5
1
100
AcDbSymbolTable
70
1
0
BLOCK_RECORD
5
1F
100
AcDbSymbolTableRecord
100
AcDbBlockTableRecord
2
*MODEL_SPACE
0
BLOCK_RECORD
5
1B
100
AcDbSymbolTableRecord
100
AcDbBlockTableRecord
2
*PAPER_SPACE
0
ENDTAB
0
ENDSEC
0
SECTION
2
BLOCKS
0
BLOCK
5
20
100
AcDbEntity
100
AcDbBlockBegin
2
*MODEL_SPACE
0
ENDBLK
5
21
100
AcDbEntity
100
AcDbBlockEnd
0
BLOCK
5
1C
100
AcDbEntity
100
AcDbBlockBegin
2
*PAPER_SPACE
0
ENDBLK
5
1D
100
AcDbEntity
100
AcDbBlockEnd
0
ENDSEC
0
SECTION
2
ENTITIES
0
CIRCLE
5
100
100
AcDbEntity
8
0
100
AcDbCircle
10
2.8770909641763634e-67
20
-7.0000000000000009
30
0
40
1.6500000000000004
210
-3.0989151311836161e-290
220
-0
230
1
0
CIRCLE
5
101
100
AcDbEntity
8
0
100
AcDbCircle
10
-6.0621778264910695
20
3.5000000000000018
30
0
40
1.6500000000000004
210
-3.0989151311836161e-290
220
-0
230
1
0
CIRCLE
5
102
100
AcDbEntity
8
0
100
AcDbCircle
10
6.0621778264910722
20
3.4999999999999987
30
0
40
1.6500000000000004
210
-3.0989151311836161e-290
220
-0
230
1
0
LWPOLYLINE
5
103
100
AcDbEntity
8
0
100
AcDbPolyline
90
8
70
1
43
0.0
10
54.936794847151226
20
-7.3948404996301598
42
0.024850564819198336
10
50.701220042708769
20
-9.024361576383642
42
-0.17350791236365187
10
43.981858356458872
20
-9.5182002240330625
42
0.10696787411617954
10
43.981858356458872
20
9.5182002240330661
42
-0.17350791236365118
10
50.701220042708748
20
9.0243615763836527
42
0.024850564819197216
10
54.936794847151127
20
7.3948404996301971
42
-0.32397552106799193
10
56.999999999957787
20
4.5448553392702333
10
56.999999999957787
20
-4.5448553392702351
42
-0.32397552106798222
0
CIRCLE
5
104
100
AcDbEntity
8
0
100
AcDbCircle
10
66.99999999995778
20
3.7573568452419409e-14
30
0
40
1.6500000000000004
210
0
220
0
230
1
0
LWPOLYLINE
5
105
100
AcDbEntity
8
0
100
AcDbPolyline
90
40
70
1
43
0.0
10
76.99999999995778
20
-3.349348384021376
10
76.99999999995778
20
3.3493483840213774
42
-0.3402702196445887
10
79.232024739126615
20
6.2493852801230947
42
0.096178924708612487
10
85.906619986566639
20
9.4788647861856656
42
0.27933983113255212
10
87.846166135202012
20
14.284645440003366
42
0.044762181656373107
10
83.90136126436596
20
29.691102673805545
42
0.19262050305489434
10
81.450041697445755
20
32.482017103659231
42
0.17278640135975204
10
68.972016499527598
20
34.079288811858881
42
0.080512498836816312
10
48.043807239314162
20
25.827897046955002
42
-0.20616771465830397
10
40.199672703503275
20
24.805578403162691
42
0.0036246931686708655
10
36.93308451153333
20
25.708894734388359
42
0.52232586367345157
10
-36.933084511535398
20
25.708894734387826
42
0.003624693168663208
10
-40.199672703503239
20
24.805578403162674
42
-0.20616771465830583
10
-48.043807239314162
20
25.827897046955005
42
0.080512498836816757
10
-68.972016499528678
20
34.079288811853857
42
0.17278640135975218
10
-81.450041697445755
20
32.482017103659196
42
0.19262050305489256
10
-83.90136126436596
20
29.691102673805545
42
0.044762181656372482
10
-87.846166135201983
20
14.28464544000337
42
0.27933983113254934
10
-85.906619986566639
20
9.4788647861856354
42
0.096178924708611127
10
-79.232024739126629
20
6.2493852801230769
42
-0.34027021964459103
10
-76.99999999995778
20
3.3493483840213534
10
-76.99999999995778
20
-3.3493483840213534
42
-0.3402702196445887
10
-79.232024739126615
20
-6.2493852801230743
42
0.096178924708611502
10
-85.906619986566639
20
-9.4788647861856461
42
0.27933983113255201
10
-87.846166135201997
20
-14.284645440003343
42
0.044762181656372482
10
-83.901361264365988
20
-29.691102673805535
42
0.19262050305489367
10
-81.450041697445783
20
-32.482017103659203
42
0.17278640135975148
10
-68.972016499527612
20
-34.079288811858852
42
0.080512498836815438
10
-48.043807239314177
20
-25.827897046954995
42
-0.20616771465830583
10
-40.199672703503282
20
-24.805578403162691
42
0.0036246931686746949
10
-36.933084511534602
20
-25.708894734388004
42
0.52232586367345357
10
36.933084511534076
20
-25.708894734387897
42
0.0036246931686670365
10
40.199672703503204
20
-24.805578403162691
42
-0.20616771465830641
10
48.043807239314162
20
-25.827897046955009
42
0.080512498836816757
10
68.972016499528678
20
-34.0792888118539
42
0.1727864013597521
10
81.450041697445755
20
-32.482017103659224
42
0.19262050305489672
10
83.901361264365946
20
-29.691102673805567
42
0.044762181656373426
10
87.846166135201969
20
-14.284645440003384
42
0.27933983113254929
10
85.906619986566639
20
-9.4788647861856568
42
0.09617892470861128
10
79.232024739126615
20
-6.2493852801230965
42
-0.34027021964459003
0
CIRCLE
5
106
100
AcDbEntity
8
0
100
AcDbCircle
10
-66.99999999995778
20
4.7569912237902283e-14
30
0
40
1.6500000000000004
210
0
220
0
230
1
0
LWPOLYLINE
5
107
100
AcDbEntity
8
0
100
AcDbPolyline
90
8
70
1
43
0.0
10
-56.99999999995778
20
-4.5448553392702262
10
-56.99999999995778
20
4.5448553392702271
42
-0.32397552106798416
10
-54.936794847151198
20
7.3948404996301509
42
0.024850564819198895
10
-50.701220042708755
20
9.0243615763836331
42
-0.17350791236365151
10
-43.981858356458865
20
9.5182002240330448
42
0.10696787411617642
10
-43.981858356458865
20
-9.5182002240330519
42
-0.1735079123636514
10
-50.701220042708748
20
-9.0243615763836438
42
0.024850564819199734
10
-54.936794847151191
20
-7.3948404996301669
42
-0.32397552106798522
0
CIRCLE
5
108
100
AcDbEntity
8
0
100
AcDbCircle
10
82.750215137562449
20
21.509344357446626
30
0
40
1.6500000000000092
210
-3.098915131183615e-290
220
0
230
1
0
CIRCLE
5
109
100
AcDbEntity
8
0
100
AcDbCircle
10
-82.750215137562449
20
21.509344357446601
30
0
40
1.6500000000000092
210
0
220
-4.2105900531240828e-111
230
1
0
CIRCLE
5
110
100
AcDbEntity
8
0
100
AcDbCircle
10
-82.750215137562449
20
-21.509344357446601
30
0
40
1.6500000000000092
210
0
220
-4.2105900531240828e-111
230
1
0
CIRCLE
5
111
100
AcDbEntity
8
0
100
AcDbCircle
10
6.563871182033105e-13
20
-4.4408920983833675e-15
30
0
40
1.6500000000000004
210
-0
220
0
230
1
0
CIRCLE
5
112
100
AcDbEntity
8
0
100
AcDbCircle
10
82.750215137562449
20
-21.509344357446626
30
0
40
1.6500000000000092
210
-3.098915131183615e-290
220
-0
230
1
0
ENDSEC
0
SECTION
2
OBJECTS
0
DICTIONARY
5
C
100
AcDbDictionary
3
ACAD_GROUP
350
D
3
ACAD_MLINESTYLE
350
17
0
DICTIONARY
5
D
100
AcDbDictionary
0
DICTIONARY
5
1A
330
C
100
AcDbDictionary
0
DICTIONARY
5
17
100
AcDbDictionary
0
ENDSEC
0
EOF
