0
SECTION
2
HEADER
9
$INSUNITS
70
4
9
$ACADVER
1
AC1014
9
$HANDSEED
5
FFFF
0
ENDSEC
0
SECTION
2
TABLES
0
TABLE
2
VPORT
5
8
100
AcDbSymbolTable
0
ENDTAB
0
TABLE
2
LTYPE
5
5
100
AcDbSymbolTable
0
LTYPE
5
14
100
AcDbSymbolTableRecord
100
AcDbLinetypeTableRecord
2
BYBLOCK
70
0
0
LTYPE
5
15
100
AcDbSymbolTableRecord
100
AcDbLinetypeTableRecord
2
BYLAYER
70
0
0
LTYPE
5
16
100
AcDbSymbolTableRecord
100
AcDbLinetypeTableRecord
2
DASHED
70
0
3
Dashed __ __ __ __ __ __ __ __ __ __ __ __ __ _
72
65
73
2
40
0.75
49
0.5
74
0
49
-0.25
74
0
0
ENDTAB
0
TABLE
2
LAYER
5
2
100
AcDbSymbolTable
70
3
0
LAYER
5
50
100
AcDbSymbolTableRecord
100
AcDbLayerTableRecord
2
1
70
0
62
7
6
DASHED
0
LAYER
5
51
100
AcDbSymbolTableRecord
100
AcDbLayerTableRecord
2
0
70
0
62
7
6
CONTINUOUS
0
ENDTAB
0
TABLE
2
STYLE
5
3
100
AcDbSymbolTable
70
1
0
STYLE
5
11
100
AcDbSymbolTableRecord
100
AcDbTextStyleTableRecord
2
STANDARD
70
0
0
ENDTAB
0
TABLE
2
VIEW
5
6
100
AcDbSymbolTable
70
0
0
ENDTAB
0
TABLE
2
UCS
5
7
100
AcDbSymbolTable
70
0
0
ENDTAB
0
TABLE
2
APPID
5
9
100
AcDbSymbolTable
70
2
0
APPID
5
12
100
AcDbSymbolTableRecord
100
AcDbRegAppTableRecord
2
ACAD
70
0
0
ENDTAB
0
TABLE
2
DIMSTYLE
5
A
100
AcDbSymbolTable
70
1
0
ENDTAB
0
TABLE
2
BLOCK_RECORD
5
1
100
AcDbSymbolTable
70
1
0
BLOCK_RECORD
5
1F
100
AcDbSymbolTableRecord
100
AcDbBlockTableRecord
2
*MODEL_SPACE
0
BLOCK_RECORD
5
1B
100
AcDbSymbolTableRecord
100
AcDbBlockTableRecord
2
*PAPER_SPACE
0
ENDTAB
0
ENDSEC
0
SECTION
2
BLOCKS
0
BLOCK
5
20
100
AcDbEntity
100
AcDbBlockBegin
2
*MODEL_SPACE
0
ENDBLK
5
21
100
AcDbEntity
100
AcDbBlockEnd
0
BLOCK
5
1C
100
AcDbEntity
100
AcDbBlockBegin
2
*PAPER_SPACE
0
ENDBLK
5
1D
100
AcDbEntity
100
AcDbBlockEnd
0
ENDSEC
0
SECTION
2
ENTITIES
0
LWPOLYLINE
5
100
100
AcDbEntity
8
0
100
AcDbPolyline
90
40
70
1
43
0.0
10
-74.228962952048335
20
41.702051017467184
42
0.50731434335270231
10
-79.013665271036174
20
40.961453836950838
42
0.24379834682418616
10
-79.013665271036203
20
-40.961453836950774
42
0.50731434335271086
10
-74.228962952048349
20
-41.702051017467127
10
-60.969362391355958
20
-28.442450456774736
42
-0.41421356237309415
10
-56.726721704236681
20
-28.442450456774733
10
-28.442450456774786
20
-56.726721704236652
42
-0.41421356237309254
10
-28.442450456774772
20
-60.969362391355915
10
-41.702051017467085
20
-74.22896295204842
42
0.50731434335270431
10
-40.961453836950703
20
-79.013665271036217
42
1.8763296539524147e-05
10
-40.955523494266302
20
-79.01673933610904
42
0.25039376463297497
10
-39.070702720434014
20
-78.993165002672669
10
-30.675558644128287
20
-74.371875904555381
42
-0.1264691899936673
10
-29.22885074723154
20
-74
10
29.22885074723153
20
-74
42
-0.12646918999366707
10
30.67555864412828
20
-74.371875904555395
10
39.070702720434021
20
-78.993165002672669
42
0.25039376463297558
10
40.955523494266316
20
-79.016739336109069
42
1.8763296539524147e-05
10
40.961453836950724
20
-79.013665271036217
42
0.50731434335270997
10
41.702051017467127
20
-74.228962952048349
10
28.442450456774736
20
-60.969362391355972
42
-0.41421356237309503
10
28.442450456774729
20
-56.726721704236681
10
56.726721704236652
20
-28.442450456774786
42
-0.41421356237309254
10
60.969362391355915
20
-28.442450456774772
10
74.228962952048363
20
-41.702051017467141
42
0.50731434335270409
10
79.013665271036203
20
-40.961453836950746
42
0.24379834682418569
10
79.013665271036217
20
40.961453836950703
42
0.5073143433527092
10
74.228962952048363
20
41.702051017467127
10
60.969362391355958
20
28.442450456774736
42
-0.4142135623730957
10
56.726721704236667
20
28.442450456774743
10
28.442450456774786
20
56.726721704236652
42
-0.41421356237309354
10
28.442450456774782
20
60.969362391355936
10
41.702051017467163
20
74.228962952048363
42
0.50731434335270165
10
40.961453836950817
20
79.013665271036189
42
0.243798346824186
10
-40.961453836950739
20
79.013665271036217
42
0.50731434335270975
10
-41.702051017467113
20
74.228962952048363
10
-28.442450456774733
20
60.969362391355958
42
-0.41421356237309503
10
-28.442450456774743
20
56.726721704236674
10
-56.726721704236638
20
28.442450456774804
42
-0.4142135623730932
10
-60.969362391355915
20
28.44245045677479
0
ENDSEC
0
SECTION
2
OBJECTS
0
DICTIONARY
5
C
100
AcDbDictionary
3
ACAD_GROUP
350
D
3
ACAD_MLINESTYLE
350
17
0
DICTIONARY
5
D
100
AcDbDictionary
0
DICTIONARY
5
1A
330
C
100
AcDbDictionary
0
DICTIONARY
5
17
100
AcDbDictionary
0
ENDSEC
0
EOF
