0
SECTION
2
HEADER
9
$INSUNITS
70
4
9
$ACADVER
1
AC1014
9
$HANDSEED
5
FFFF
0
ENDSEC
0
SECTION
2
TABLES
0
TABLE
2
VPORT
5
8
100
AcDbSymbolTable
0
ENDTAB
0
TABLE
2
LTYPE
5
5
100
AcDbSymbolTable
0
LTYPE
5
14
100
AcDbSymbolTableRecord
100
AcDbLinetypeTableRecord
2
BYBLOCK
70
0
0
LTYPE
5
15
100
AcDbSymbolTableRecord
100
AcDbLinetypeTableRecord
2
BYLAYER
70
0
0
LTYPE
5
16
100
AcDbSymbolTableRecord
100
AcDbLinetypeTableRecord
2
DASHED
70
0
3
Dashed __ __ __ __ __ __ __ __ __ __ __ __ __ _
72
65
73
2
40
0.75
49
0.5
74
0
49
-0.25
74
0
0
ENDTAB
0
TABLE
2
LAYER
5
2
100
AcDbSymbolTable
70
3
0
LAYER
5
50
100
AcDbSymbolTableRecord
100
AcDbLayerTableRecord
2
1
70
0
62
7
6
DASHED
0
LAYER
5
51
100
AcDbSymbolTableRecord
100
AcDbLayerTableRecord
2
0
70
0
62
7
6
CONTINUOUS
0
ENDTAB
0
TABLE
2
STYLE
5
3
100
AcDbSymbolTable
70
1
0
STYLE
5
11
100
AcDbSymbolTableRecord
100
AcDbTextStyleTableRecord
2
STANDARD
70
0
0
ENDTAB
0
TABLE
2
VIEW
5
6
100
AcDbSymbolTable
70
0
0
ENDTAB
0
TABLE
2
UCS
5
7
100
AcDbSymbolTable
70
0
0
ENDTAB
0
TABLE
2
APPID
5
9
100
AcDbSymbolTable
70
2
0
APPID
5
12
100
AcDbSymbolTableRecord
100
AcDbRegAppTableRecord
2
ACAD
70
0
0
ENDTAB
0
TABLE
2
DIMSTYLE
5
A
100
AcDbSymbolTable
70
1
0
ENDTAB
0
TABLE
2
BLOCK_RECORD
5
1
100
AcDbSymbolTable
70
1
0
BLOCK_RECORD
5
1F
100
AcDbSymbolTableRecord
100
AcDbBlockTableRecord
2
*MODEL_SPACE
0
BLOCK_RECORD
5
1B
100
AcDbSymbolTableRecord
100
AcDbBlockTableRecord
2
*PAPER_SPACE
0
ENDTAB
0
ENDSEC
0
SECTION
2
BLOCKS
0
BLOCK
5
20
100
AcDbEntity
100
AcDbBlockBegin
2
*MODEL_SPACE
0
ENDBLK
5
21
100
AcDbEntity
100
AcDbBlockEnd
0
BLOCK
5
1C
100
AcDbEntity
100
AcDbBlockBegin
2
*PAPER_SPACE
0
ENDBLK
5
1D
100
AcDbEntity
100
AcDbBlockEnd
0
ENDSEC
0
SECTION
2
ENTITIES
0
CIRCLE
5
100
100
AcDbEntity
8
0
100
AcDbCircle
10
-15.467041022001617
20
38.589432766801735
30
0
40
1.6500000000000004
210
0
220
-0
230
1
0
CIRCLE
5
101
100
AcDbEntity
8
0
100
AcDbCircle
10
-9.5029590437682252
20
32.625350788568326
30
0
40
1.6500000000000004
210
0
220
-0
230
1
0
CIRCLE
5
102
100
AcDbEntity
8
0
100
AcDbCircle
10
-38.589432766801735
20
15.467041022001641
30
0
40
1.6500000000000004
210
0
220
-0
230
1
0
CIRCLE
5
103
100
AcDbEntity
8
0
100
AcDbCircle
10
-32.625350788568348
20
9.5029590437682447
30
0
40
1.6500000000000004
210
0
220
-0
230
1
0
CIRCLE
5
104
100
AcDbEntity
8
0
100
AcDbCircle
10
-32.625350788568326
20
-9.5029590437682305
30
0
40
1.6500000000000004
210
0
220
-0
230
1
0
CIRCLE
5
105
100
AcDbEntity
8
0
100
AcDbCircle
10
-38.589432766801728
20
-15.467041022001624
30
0
40
1.6500000000000004
210
0
220
-0
230
1
0
CIRCLE
5
106
100
AcDbEntity
8
0
100
AcDbCircle
10
-15.467041022001634
20
-38.589432766801735
30
0
40
1.6500000000000004
210
0
220
-0
230
1
0
CIRCLE
5
107
100
AcDbEntity
8
0
100
AcDbCircle
10
-9.5029590437682394
20
-32.625350788568348
30
0
40
1.6500000000000004
210
0
220
-0
230
1
0
CIRCLE
5
108
100
AcDbEntity
8
0
100
AcDbCircle
10
9.502959043768227
20
-32.625350788568326
30
0
40
1.6500000000000004
210
-0
220
0
230
1
0
CIRCLE
5
109
100
AcDbEntity
8
0
100
AcDbCircle
10
15.467041022001622
20
-38.589432766801728
30
0
40
1.6500000000000004
210
-0
220
0
230
1
0
CIRCLE
5
110
100
AcDbEntity
8
0
100
AcDbCircle
10
9.502959043768243
20
32.625350788568348
30
0
40
1.6500000000000004
210
0
220
-0
230
1
0
CIRCLE
5
111
100
AcDbEntity
8
0
100
AcDbCircle
10
15.46704102200164
20
38.589432766801735
30
0
40
1.6500000000000004
210
0
220
-0
230
1
0
CIRCLE
5
112
100
AcDbEntity
8
0
100
AcDbCircle
10
32.625350788568326
20
9.5029590437682252
30
0
40
1.6500000000000004
210
0
220
-0
230
1
0
CIRCLE
5
113
100
AcDbEntity
8
0
100
AcDbCircle
10
38.589432766801728
20
15.46704102200162
30
0
40
1.6500000000000004
210
0
220
-0
230
1
0
CIRCLE
5
114
100
AcDbEntity
8
0
100
AcDbCircle
10
32.625350788568348
20
-9.5029590437682412
30
0
40
1.6500000000000004
210
-0
220
0
230
1
0
CIRCLE
5
115
100
AcDbEntity
8
0
100
AcDbCircle
10
38.589432766801735
20
-15.467041022001638
30
0
40
1.6500000000000004
210
-0
220
0
230
1
0
CIRCLE
5
116
100
AcDbEntity
8
0
100
AcDbCircle
10
23.492702988468931
20
-61.776974235930844
30
0
40
1.6500000000000004
210
0
220
-0
230
1
0
CIRCLE
5
117
100
AcDbEntity
8
0
100
AcDbCircle
10
-23.492702988468967
20
-61.776974235930844
30
0
40
1.6500000000000004
210
0
220
-0
230
1
0
LWPOLYLINE
5
118
100
AcDbEntity
8
0
100
AcDbPolyline
90
36
70
1
43
0.0
10
-74.228962952048306
20
41.702051017467213
42
0.50731434335270953
10
-79.01366527103616
20
40.961453836950867
42
0.24379834682418616
10
-79.013665271036217
20
-40.961453836950753
42
0.50731434335270831
10
-74.228962952048377
20
-41.702051017467134
10
-61.322915781948765
20
-28.796003847367572
42
-0.41421356237309931
10
-57.080275094829446
20
-28.796003847367601
10
-28.796003847368027
20
-57.080275094829929
42
-0.41421356237309076
10
-28.79600384736807
20
-61.322915781949192
10
-40.061076125433615
20
-72.587988060014794
42
1.114867276847775
10
-32.816051760638459
20
-78.40942463811848
10
-30.884695535128671
20
-75.385272225611985
42
-0.25599334894184755
10
-28.35632566214332
20
-74
10
28.356325662143298
20
-74
42
-0.25599334894184811
10
30.884695535128657
20
-75.385272225612013
10
32.816030775609313
20
-78.409391779385203
42
1.1148719804694698
10
40.061075967422504
20
-72.587987902003704
10
28.796003847367587
20
-61.322915781948765
42
-0.41421356237310025
10
28.796003847367629
20
-57.080275094829446
10
57.08027509482995
20
-28.796003847368024
42
-0.41421356237309015
10
61.322915781949199
20
-28.796003847368056
10
74.228962952048335
20
-41.70205101746717
42
0.50731434335270653
10
79.013665271036174
20
-40.961453836950824
42
0.24379834682418597
10
79.013665271036217
20
40.961453836950724
42
0.50731434335271319
10
74.228962952048349
20
41.702051017467141
10
61.322915781948751
20
28.796003847367551
42
-0.41421356237309997
10
57.080275094829432
20
28.796003847367597
10
28.796003847368041
20
57.080275094829922
42
-0.41421356237309137
10
28.796003847368077
20
61.322915781949177
10
41.702051017467205
20
74.22896295204832
42
0.50731434335270331
10
40.961453836950845
20
79.01366527103616
42
0.24379834682418627
10
-40.961453836950774
20
79.013665271036203
42
0.50731434335270331
10
-41.702051017467092
20
74.228962952048377
10
-28.796003847367558
20
61.322915781948772
42
-0.41421356237310025
10
-28.796003847367597
20
57.080275094829453
10
-57.080275094829922
20
28.796003847368045
42
-0.41421356237308948
10
-61.32291578194917
20
28.796003847368077
0
LINE
5
119
100
AcDbEntity
8
0
100
AcDbLine
10
-23.492702988468928
20
51.776974235930844
30
0
11
-0.49999999999999822
21
28.784271247461888
31
0
0
LINE
5
120
100
AcDbEntity
8
0
100
AcDbLine
10
23.49270298846897
20
51.776974235930844
30
0
11
0.50000000000000266
21
28.784271247461895
31
0
0
LWPOLYLINE
5
121
100
AcDbEntity
8
0
100
AcDbPolyline
90
3
70
1
43
0.0
10
37.634838612199928
20
37.634838612199893
10
48.73641507682872
20
26.533262147571079
10
26.533262147571133
20
48.736415076828692
0
LINE
5
122
100
AcDbEntity
8
0
100
AcDbLine
10
54.086041597580092
20
31.882888668322444
30
0
11
31.882888668322515
21
54.086041597580056
31
0
0
LINE
5
123
100
AcDbEntity
8
0
100
AcDbLine
10
51.776974235930844
20
23.492702988468931
30
0
11
28.784271247461888
21
0.49999999999999822
31
0
0
LINE
5
124
100
AcDbEntity
8
0
100
AcDbLine
10
51.776974235930844
20
-23.49270298846897
30
0
11
28.784271247461888
21
-0.49999999999999822
31
0
0
LWPOLYLINE
5
125
100
AcDbEntity
8
0
100
AcDbPolyline
90
3
70
1
43
0.0
10
37.634838612199893
20
-37.634838612199928
10
26.533262147571083
20
-48.73641507682872
10
48.736415076828692
20
-26.533262147571133
0
LINE
5
126
100
AcDbEntity
8
0
100
AcDbLine
10
31.882888668322451
20
-54.086041597580078
30
0
11
54.086041597580063
21
-31.882888668322501
31
0
0
LINE
5
127
100
AcDbEntity
8
0
100
AcDbLine
10
23.492702988468931
20
-51.776974235930844
30
0
11
0.49999999999999822
21
-28.784271247461895
31
0
0
LINE
5
128
100
AcDbEntity
8
0
100
AcDbLine
10
-23.492702988468967
20
-51.776974235930844
30
0
11
-0.49999999999999822
21
-28.784271247461891
31
0
0
LWPOLYLINE
5
129
100
AcDbEntity
8
0
100
AcDbPolyline
90
3
70
1
43
0.0
10
-48.736415076828692
20
-26.533262147571062
10
-37.6348386121999
20
-37.634838612199871
10
-26.533262147571108
20
-48.736415076828678
0
LINE
5
130
100
AcDbEntity
8
0
100
AcDbLine
10
-54.086041597580078
20
-31.882888668322451
30
0
11
-31.882888668322501
21
-54.086041597580063
31
0
0
LINE
5
131
100
AcDbEntity
8
0
100
AcDbLine
10
-51.776974235930844
20
-23.492702988468935
30
0
11
-28.784271247461888
21
-0.49999999999999822
31
0
0
LINE
5
132
100
AcDbEntity
8
0
100
AcDbLine
10
-51.776974235930844
20
23.492702988468977
30
0
11
-28.784271247461888
21
0.49999999999999822
31
0
0
LWPOLYLINE
5
133
100
AcDbEntity
8
0
100
AcDbPolyline
90
3
70
1
43
0.0
10
-37.634838612199886
20
37.634838612199935
10
-26.533262147571079
20
48.736415076828727
10
-48.736415076828692
20
26.533262147571143
0
LINE
5
134
100
AcDbEntity
8
0
100
AcDbLine
10
-31.882888668322444
20
54.086041597580092
30
0
11
-54.086041597580056
21
31.882888668322515
31
0
0
LINE
5
135
100
AcDbEntity
8
1
100
AcDbLine
10
-31.882888668322444
20
54.086041597580092
30
0
11
-26.533262147571079
21
48.736415076828727
31
0
0
LINE
5
136
100
AcDbEntity
8
1
100
AcDbLine
10
-26.533262147571079
20
48.736415076828727
30
0
11
-23.492702988468928
21
51.776974235930844
31
0
0
LINE
5
137
100
AcDbEntity
8
1
100
AcDbLine
10
23.49270298846897
20
51.776974235930844
30
0
11
26.533262147571133
21
48.736415076828692
31
0
0
LINE
5
138
100
AcDbEntity
8
1
100
AcDbLine
10
26.533262147571133
20
48.736415076828692
30
0
11
31.882888668322515
21
54.086041597580056
31
0
0
LINE
5
139
100
AcDbEntity
8
1
100
AcDbLine
10
54.086041597580092
20
31.882888668322444
30
0
11
48.73641507682872
21
26.533262147571079
31
0
0
LINE
5
140
100
AcDbEntity
8
1
100
AcDbLine
10
48.73641507682872
20
26.533262147571079
30
0
11
51.776974235930865
21
23.492702988468931
31
0
0
LINE
5
141
100
AcDbEntity
8
1
100
AcDbLine
10
51.776974235930844
20
-23.49270298846897
30
0
11
48.736415076828692
21
-26.533262147571133
31
0
0
LINE
5
142
100
AcDbEntity
8
1
100
AcDbLine
10
48.736415076828692
20
-26.533262147571133
30
0
11
54.086041597580063
21
-31.882888668322501
31
0
0
LINE
5
143
100
AcDbEntity
8
1
100
AcDbLine
10
23.492702988468931
20
-51.776974235930844
30
0
11
26.533262147571083
21
-48.73641507682872
31
0
0
LINE
5
144
100
AcDbEntity
8
1
100
AcDbLine
10
26.533262147571083
20
-48.73641507682872
30
0
11
31.882888668322451
21
-54.086041597580078
31
0
0
LINE
5
145
100
AcDbEntity
8
1
100
AcDbLine
10
-23.492702988468967
20
-51.776974235930844
30
0
11
-26.533262147571108
21
-48.736415076828678
31
0
0
LINE
5
146
100
AcDbEntity
8
1
100
AcDbLine
10
-26.533262147571108
20
-48.736415076828678
30
0
11
-31.882888668322501
21
-54.086041597580063
31
0
0
LINE
5
147
100
AcDbEntity
8
1
100
AcDbLine
10
-54.086041597580078
20
-31.882888668322451
30
0
11
-48.736415076828692
21
-26.533262147571062
31
0
0
LINE
5
148
100
AcDbEntity
8
1
100
AcDbLine
10
-51.776974235930844
20
-23.492702988468935
30
0
11
-48.736415076828692
21
-26.533262147571062
31
0
0
LINE
5
149
100
AcDbEntity
8
1
100
AcDbLine
10
-51.776974235930844
20
23.492702988468977
30
0
11
-48.736415076828692
21
26.533262147571143
31
0
0
LINE
5
150
100
AcDbEntity
8
1
100
AcDbLine
10
-54.086041597580056
20
31.882888668322515
30
0
11
-48.736415076828692
21
26.533262147571143
31
0
0
LINE
5
151
100
AcDbEntity
8
1
100
AcDbLine
10
-36.201010126776588
20
75.798989873223334
30
0
11
-25.26046994143481
21
64.858449687881503
31
0
0
ARC
5
152
100
AcDbEntity
8
1
100
AcDbCircle
10
-30.9173241909272
20
59.201595438389134
30
0
40
7.9999999999999991
210
0
220
0
230
1
100
AcDbArc
50
-45.000000000001066
51
44.999999999999893
0
LINE
5
153
100
AcDbEntity
8
1
100
AcDbLine
10
-25.260469941434923
20
53.544741188896651
30
0
11
-53.544741188897248
21
25.260469941435247
31
0
0
ARC
5
154
100
AcDbEntity
8
1
100
AcDbCircle
10
-59.201595438389532
20
30.917324190927722
30
0
40
7.9999999999999991
210
0
220
0
230
1
100
AcDbArc
50
225.00000000000011
51
314.99999999999903
0
LINE
5
155
100
AcDbEntity
8
1
100
AcDbLine
10
-64.858449687881901
20
25.260469941435332
30
0
11
-75.798989873223292
21
36.201010126776723
31
0
0
ARC
5
156
100
AcDbEntity
8
1
100
AcDbCircle
10
0
20
0
30
0
40
83.999999999999986
210
0
220
0
230
1
100
AcDbArc
50
154.47122063449066
51
205.52877936550928
0
LINE
5
157
100
AcDbEntity
8
1
100
AcDbLine
10
-75.798989873223348
20
-36.201010126776644
30
0
11
-64.858449687881489
21
-25.26046994143482
31
0
0
ARC
5
158
100
AcDbEntity
8
1
100
AcDbCircle
10
-59.20159543838912
20
-30.917324190927214
30
0
40
8.0000000000000036
210
0
220
-0
230
1
100
AcDbArc
50
44.999999999999133
51
134.99999999999986
0
LINE
5
159
100
AcDbEntity
8
1
100
AcDbLine
10
-53.544741188896651
20
-25.260469941434916
30
0
11
-25.260469941435232
21
-53.544741188897248
31
0
0
ARC
5
160
100
AcDbEntity
8
1
100
AcDbCircle
10
-30.917324190927708
20
-59.201595438389546
30
0
40
8.0000000000000036
210
0
220
0
230
1
100
AcDbArc
50
-45.000000000000156
51
44.999999999999098
0
LINE
5
161
100
AcDbEntity
8
1
100
AcDbLine
10
-25.260469941435339
20
-64.858449687881944
30
0
11
-29.481548443612891
21
-69.079528190059506
31
0
0
ARC
5
162
100
AcDbEntity
8
1
100
AcDbCircle
10
-28.35632566214332
20
-77
30
0
40
7.9999999999999982
210
0
220
-0
230
1
100
AcDbArc
50
90
51
98.085625479334567
0
LINE
5
163
100
AcDbEntity
8
1
100
AcDbLine
10
-28.35632566214332
20
-69
30
0
11
28.356325662143298
21
-69.000000000000014
31
0
0
ARC
5
164
100
AcDbEntity
8
1
100
AcDbCircle
10
28.356325662143295
20
-77.000000000000014
30
0
40
8
210
0
220
-0
230
1
100
AcDbArc
50
81.914374520665362
51
89.999999999999972
0
LINE
5
165
100
AcDbEntity
8
1
100
AcDbLine
10
29.481548443612873
20
-69.079528190059534
30
0
11
25.260469941434849
21
-64.858449687881489
31
0
0
ARC
5
166
100
AcDbEntity
8
1
100
AcDbCircle
10
30.917324190927232
20
-59.201595438389127
30
0
40
7.9999999999999991
210
0
220
0
230
1
100
AcDbArc
50
134.99999999999892
51
224.99999999999989
0
LINE
5
167
100
AcDbEntity
8
1
100
AcDbLine
10
25.260469941434955
20
-53.544741188896637
30
0
11
53.544741188897262
21
-25.260469941435225
31
0
0
ARC
5
168
100
AcDbEntity
8
1
100
AcDbCircle
10
59.20159543838956
20
-30.917324190927697
30
0
40
7.9999999999999973
210
0
220
-0
230
1
100
AcDbArc
50
45.000000000000092
51
134.99999999999915
0
LINE
5
169
100
AcDbEntity
8
1
100
AcDbLine
10
64.858449687881929
20
-25.260469941435311
30
0
11
75.79898987322332
21
-36.201010126776687
31
0
0
ARC
5
170
100
AcDbEntity
8
1
100
AcDbCircle
10
0
20
0
30
0
40
84
210
0
220
0
230
1
100
AcDbArc
50
-25.528779365509312
51
25.528779365509294
0
LINE
5
171
100
AcDbEntity
8
1
100
AcDbLine
10
75.798989873223348
20
36.201010126776652
30
0
11
64.858449687881489
21
25.260469941434813
31
0
0
ARC
5
172
100
AcDbEntity
8
1
100
AcDbCircle
10
59.20159543838912
20
30.9173241909272
30
0
40
7.9999999999999991
210
0
220
0
230
1
100
AcDbArc
50
224.99999999999892
51
314.99999999999989
0
LINE
5
173
100
AcDbEntity
8
1
100
AcDbLine
10
53.54474118889663
20
25.260469941434923
30
0
11
25.260469941435247
21
53.544741188897248
31
0
0
ARC
5
174
100
AcDbEntity
8
1
100
AcDbCircle
10
30.917324190927715
20
59.201595438389532
30
0
40
8.0000000000000036
210
0
220
0
230
1
100
AcDbArc
50
134.99999999999986
51
224.99999999999906
0
LINE
5
175
100
AcDbEntity
8
1
100
AcDbLine
10
25.260469941435346
20
64.858449687881929
30
0
11
36.201010126776687
21
75.798989873223277
31
0
0
ARC
5
176
100
AcDbEntity
8
1
100
AcDbCircle
10
0
20
0
30
0
40
83.999999999999943
210
0
220
-0
230
1
100
AcDbArc
50
64.471220634490663
51
115.52877936550927
0
LWPOLYLINE
5
177
100
AcDbEntity
8
0
100
AcDbPolyline
90
4
70
1
43
0.0
10
-8.1499999999999968
20
-68
10
-8.1500000000000039
20
-37.600000000000009
10
8.1500000000000039
20
-37.600000000000009
10
8.1500000000000057
20
-68
0
LINE
5
178
100
AcDbEntity
8
0
100
AcDbLine
10
-2.4999999999999978
20
-13.799999999999999
30
0
11
-2.4999999999999902
21
-37.600000000000009
31
0
0
LINE
5
179
100
AcDbEntity
8
0
100
AcDbLine
10
2.4999999999999978
20
-13.799999999999999
30
0
11
-2.4999999999999978
21
-13.799999999999999
31
0
0
LINE
5
180
100
AcDbEntity
8
0
100
AcDbLine
10
2.4999999999999947
20
-37.600000000000009
30
0
11
2.4999999999999978
21
-13.799999999999999
31
0
0
LINE
5
181
100
AcDbEntity
8
0
100
AcDbLine
10
-2.5000000000000173
20
-71
30
0
11
-2.5000000000000169
21
-68
31
0
0
LINE
5
182
100
AcDbEntity
8
0
100
AcDbLine
10
2.4999999999999827
20
-71
30
0
11
-2.5000000000000173
21
-71
31
0
0
LINE
5
183
100
AcDbEntity
8
0
100
AcDbLine
10
2.4999999999999827
20
-68
30
0
11
2.4999999999999827
21
-71
31
0
0
CIRCLE
5
184
100
AcDbEntity
8
0
100
AcDbCircle
10
25.000000000000039
20
78.999999999999986
30
0
40
1.6500000000000004
210
0
220
-0
230
1
0
CIRCLE
5
185
100
AcDbEntity
8
0
100
AcDbCircle
10
-24.999999999999961
20
79.000000000000028
30
0
40
1.6500000000000004
210
0
220
-0
230
1
0
CIRCLE
5
186
100
AcDbEntity
8
0
100
AcDbCircle
10
-15.467041022001617
20
38.589432766801735
30
0
40
1.6500000000000004
210
0
220
-0
230
1
0
CIRCLE
5
187
100
AcDbEntity
8
0
100
AcDbCircle
10
-9.5029590437682252
20
32.625350788568326
30
0
40
1.6500000000000004
210
0
220
-0
230
1
0
CIRCLE
5
188
100
AcDbEntity
8
0
100
AcDbCircle
10
-38.589432766801735
20
15.467041022001641
30
0
40
1.6500000000000004
210
0
220
-0
230
1
0
CIRCLE
5
189
100
AcDbEntity
8
0
100
AcDbCircle
10
-32.625350788568348
20
9.5029590437682447
30
0
40
1.6500000000000004
210
0
220
-0
230
1
0
CIRCLE
5
190
100
AcDbEntity
8
0
100
AcDbCircle
10
15.46704102200164
20
38.589432766801735
30
0
40
1.6500000000000004
210
0
220
-0
230
1
0
CIRCLE
5
191
100
AcDbEntity
8
0
100
AcDbCircle
10
9.502959043768243
20
32.625350788568348
30
0
40
1.6500000000000004
210
0
220
-0
230
1
0
CIRCLE
5
192
100
AcDbEntity
8
0
100
AcDbCircle
10
38.589432766801728
20
15.46704102200162
30
0
40
1.6500000000000004
210
0
220
-0
230
1
0
CIRCLE
5
193
100
AcDbEntity
8
0
100
AcDbCircle
10
32.625350788568326
20
9.5029590437682252
30
0
40
1.6500000000000004
210
0
220
-0
230
1
0
CIRCLE
5
194
100
AcDbEntity
8
0
100
AcDbCircle
10
32.625350788568348
20
-9.5029590437682412
30
0
40
1.6500000000000004
210
-0
220
0
230
1
0
CIRCLE
5
195
100
AcDbEntity
8
0
100
AcDbCircle
10
38.589432766801735
20
-15.467041022001638
30
0
40
1.6500000000000004
210
-0
220
0
230
1
0
CIRCLE
5
196
100
AcDbEntity
8
0
100
AcDbCircle
10
9.502959043768227
20
-32.625350788568326
30
0
40
1.6500000000000004
210
-0
220
0
230
1
0
CIRCLE
5
197
100
AcDbEntity
8
0
100
AcDbCircle
10
15.467041022001622
20
-38.589432766801728
30
0
40
1.6500000000000004
210
-0
220
0
230
1
0
CIRCLE
5
198
100
AcDbEntity
8
0
100
AcDbCircle
10
-9.5029590437682394
20
-32.625350788568348
30
0
40
1.6500000000000004
210
0
220
-0
230
1
0
CIRCLE
5
199
100
AcDbEntity
8
0
100
AcDbCircle
10
-15.467041022001634
20
-38.589432766801735
30
0
40
1.6500000000000004
210
0
220
-0
230
1
0
CIRCLE
5
200
100
AcDbEntity
8
0
100
AcDbCircle
10
-79.000000000000028
20
-24.999999999999982
30
0
40
1.6500000000000004
210
0
220
-0
230
1
0
CIRCLE
5
201
100
AcDbEntity
8
0
100
AcDbCircle
10
79.000000000000028
20
24.999999999999943
30
0
40
1.6500000000000004
210
0
220
-0
230
1
0
CIRCLE
5
202
100
AcDbEntity
8
0
100
AcDbCircle
10
-79.000000000000014
20
25.000000000000028
30
0
40
1.6500000000000004
210
0
220
-0
230
1
0
CIRCLE
5
203
100
AcDbEntity
8
0
100
AcDbCircle
10
78.999999999999972
20
-25.000000000000057
30
0
40
1.6500000000000004
210
0
220
-0
230
1
0
CIRCLE
5
204
100
AcDbEntity
8
0
100
AcDbCircle
10
23.492702988468931
20
-61.776974235930844
30
0
40
1.6500000000000004
210
0
220
-0
230
1
0
CIRCLE
5
205
100
AcDbEntity
8
0
100
AcDbCircle
10
-23.492702988468967
20
-61.776974235930844
30
0
40
1.6500000000000004
210
0
220
-0
230
1
0
CIRCLE
5
206
100
AcDbEntity
8
1
100
AcDbCircle
10
-24.999999999999961
20
79.000000000000028
30
0
40
3.0499999999999994
210
0
220
0
230
1
0
CIRCLE
5
207
100
AcDbEntity
8
1
100
AcDbCircle
10
25.000000000000039
20
78.999999999999986
30
0
40
3.0499999999999998
210
0
220
0
230
1
0
CIRCLE
5
208
100
AcDbEntity
8
1
100
AcDbCircle
10
15.46704102200164
20
38.589432766801735
30
0
40
3.0499999999999998
210
0
220
0
230
1
0
CIRCLE
5
209
100
AcDbEntity
8
1
100
AcDbCircle
10
9.502959043768243
20
32.625350788568348
30
0
40
3.0499999999999998
210
0
220
0
230
1
0
CIRCLE
5
210
100
AcDbEntity
8
1
100
AcDbCircle
10
-15.467041022001617
20
38.589432766801735
30
0
40
3.0499999999999998
210
0
220
0
230
1
0
CIRCLE
5
211
100
AcDbEntity
8
1
100
AcDbCircle
10
-9.5029590437682252
20
32.625350788568326
30
0
40
3.0499999999999998
210
0
220
0
230
1
0
CIRCLE
5
212
100
AcDbEntity
8
1
100
AcDbCircle
10
38.589432766801728
20
15.46704102200162
30
0
40
3.0499999999999998
210
0
220
0
230
1
0
CIRCLE
5
213
100
AcDbEntity
8
1
100
AcDbCircle
10
32.625350788568326
20
9.5029590437682252
30
0
40
3.0499999999999998
210
0
220
0
230
1
0
CIRCLE
5
214
100
AcDbEntity
8
1
100
AcDbCircle
10
79.000000000000028
20
24.999999999999943
30
0
40
3.0499999999999998
210
0
220
0
230
1
0
CIRCLE
5
215
100
AcDbEntity
8
1
100
AcDbCircle
10
32.625350788568348
20
-9.5029590437682412
30
0
40
3.0499999999999998
210
0
220
0
230
1
0
CIRCLE
5
216
100
AcDbEntity
8
1
100
AcDbCircle
10
38.589432766801735
20
-15.467041022001638
30
0
40
3.0499999999999998
210
0
220
0
230
1
0
CIRCLE
5
217
100
AcDbEntity
8
1
100
AcDbCircle
10
78.999999999999972
20
-25.000000000000057
30
0
40
3.0499999999999998
210
0
220
0
230
1
0
CIRCLE
5
218
100
AcDbEntity
8
1
100
AcDbCircle
10
9.502959043768227
20
-32.625350788568326
30
0
40
3.0499999999999998
210
0
220
0
230
1
0
CIRCLE
5
219
100
AcDbEntity
8
1
100
AcDbCircle
10
15.467041022001622
20
-38.589432766801728
30
0
40
3.0499999999999998
210
0
220
0
230
1
0
CIRCLE
5
220
100
AcDbEntity
8
1
100
AcDbCircle
10
23.492702988468931
20
-61.776974235930844
30
0
40
3.0499999999999998
210
0
220
0
230
1
0
CIRCLE
5
221
100
AcDbEntity
8
1
100
AcDbCircle
10
-23.492702988468967
20
-61.776974235930844
30
0
40
3.0499999999999998
210
0
220
0
230
1
0
CIRCLE
5
222
100
AcDbEntity
8
1
100
AcDbCircle
10
-15.467041022001634
20
-38.589432766801735
30
0
40
3.0499999999999998
210
0
220
0
230
1
0
CIRCLE
5
223
100
AcDbEntity
8
1
100
AcDbCircle
10
-9.5029590437682394
20
-32.625350788568348
30
0
40
3.0499999999999998
210
0
220
0
230
1
0
CIRCLE
5
224
100
AcDbEntity
8
1
100
AcDbCircle
10
-38.589432766801728
20
-15.467041022001624
30
0
40
3.0499999999999998
210
0
220
0
230
1
0
CIRCLE
5
225
100
AcDbEntity
8
1
100
AcDbCircle
10
-32.625350788568326
20
-9.5029590437682305
30
0
40
3.0499999999999998
210
0
220
0
230
1
0
CIRCLE
5
226
100
AcDbEntity
8
1
100
AcDbCircle
10
-32.625350788568326
20
-9.5029590437682305
30
0
40
1.6500000000000004
210
0
220
-0
230
1
0
CIRCLE
5
227
100
AcDbEntity
8
1
100
AcDbCircle
10
-38.589432766801728
20
-15.467041022001624
30
0
40
1.6500000000000004
210
0
220
-0
230
1
0
CIRCLE
5
228
100
AcDbEntity
8
1
100
AcDbCircle
10
-38.589432766801735
20
15.467041022001641
30
0
40
3.0499999999999998
210
0
220
0
230
1
0
CIRCLE
5
229
100
AcDbEntity
8
1
100
AcDbCircle
10
-32.625350788568348
20
9.5029590437682447
30
0
40
3.0499999999999998
210
0
220
0
230
1
0
CIRCLE
5
230
100
AcDbEntity
8
1
100
AcDbCircle
10
-79.000000000000014
20
25.000000000000028
30
0
40
3.0499999999999998
210
0
220
0
230
1
0
CIRCLE
5
231
100
AcDbEntity
8
1
100
AcDbCircle
10
-79.000000000000028
20
-24.999999999999982
30
0
40
3.0499999999999998
210
0
220
0
230
1
0
ENDSEC
0
SECTION
2
OBJECTS
0
DICTIONARY
5
C
100
AcDbDictionary
3
ACAD_GROUP
350
D
3
ACAD_MLINESTYLE
350
17
0
DICTIONARY
5
D
100
AcDbDictionary
0
DICTIONARY
5
1A
330
C
100
AcDbDictionary
0
DICTIONARY
5
17
100
AcDbDictionary
0
ENDSEC
0
EOF
