0
SECTION
2
HEADER
9
$INSUNITS
70
4
9
$ACADVER
1
AC1014
9
$HANDSEED
5
FFFF
0
ENDSEC
0
SECTION
2
TABLES
0
TABLE
2
VPORT
5
8
100
AcDbSymbolTable
0
ENDTAB
0
TABLE
2
LTYPE
5
5
100
AcDbSymbolTable
0
LTYPE
5
14
100
AcDbSymbolTableRecord
100
AcDbLinetypeTableRecord
2
BYBLOCK
70
0
0
LTYPE
5
15
100
AcDbSymbolTableRecord
100
AcDbLinetypeTableRecord
2
BYLAYER
70
0
0
LTYPE
5
16
100
AcDbSymbolTableRecord
100
AcDbLinetypeTableRecord
2
DASHED
70
0
3
Dashed __ __ __ __ __ __ __ __ __ __ __ __ __ _
72
65
73
2
40
0.75
49
0.5
74
0
49
-0.25
74
0
0
ENDTAB
0
TABLE
2
LAYER
5
2
100
AcDbSymbolTable
70
3
0
LAYER
5
50
100
AcDbSymbolTableRecord
100
AcDbLayerTableRecord
2
1
70
0
62
7
6
DASHED
0
LAYER
5
51
100
AcDbSymbolTableRecord
100
AcDbLayerTableRecord
2
0
70
0
62
7
6
CONTINUOUS
0
ENDTAB
0
TABLE
2
STYLE
5
3
100
AcDbSymbolTable
70
1
0
STYLE
5
11
100
AcDbSymbolTableRecord
100
AcDbTextStyleTableRecord
2
STANDARD
70
0
0
ENDTAB
0
TABLE
2
VIEW
5
6
100
AcDbSymbolTable
70
0
0
ENDTAB
0
TABLE
2
UCS
5
7
100
AcDbSymbolTable
70
0
0
ENDTAB
0
TABLE
2
APPID
5
9
100
AcDbSymbolTable
70
2
0
APPID
5
12
100
AcDbSymbolTableRecord
100
AcDbRegAppTableRecord
2
ACAD
70
0
0
ENDTAB
0
TABLE
2
DIMSTYLE
5
A
100
AcDbSymbolTable
70
1
0
ENDTAB
0
TABLE
2
BLOCK_RECORD
5
1
100
AcDbSymbolTable
70
1
0
BLOCK_RECORD
5
1F
100
AcDbSymbolTableRecord
100
AcDbBlockTableRecord
2
*MODEL_SPACE
0
BLOCK_RECORD
5
1B
100
AcDbSymbolTableRecord
100
AcDbBlockTableRecord
2
*PAPER_SPACE
0
ENDTAB
0
ENDSEC
0
SECTION
2
BLOCKS
0
BLOCK
5
20
100
AcDbEntity
100
AcDbBlockBegin
2
*MODEL_SPACE
0
ENDBLK
5
21
100
AcDbEntity
100
AcDbBlockEnd
0
BLOCK
5
1C
100
AcDbEntity
100
AcDbBlockBegin
2
*PAPER_SPACE
0
ENDBLK
5
1D
100
AcDbEntity
100
AcDbBlockEnd
0
ENDSEC
0
SECTION
2
ENTITIES
0
CIRCLE
5
100
100
AcDbEntity
8
0
100
AcDbCircle
10
-21.123895271494
20
44.246287016294119
30
0
40
1.6500000000000004
210
0
220
-0
230
1
0
CIRCLE
5
101
100
AcDbEntity
8
0
100
AcDbCircle
10
-7.3816387002085859
20
30.504030445008688
30
0
40
1.6500000000000004
210
0
220
-0
230
1
0
CIRCLE
5
102
100
AcDbEntity
8
0
100
AcDbCircle
10
-44.246287016294119
20
21.123895271494028
30
0
40
1.6500000000000004
210
0
220
-0
230
1
0
CIRCLE
5
103
100
AcDbEntity
8
0
100
AcDbCircle
10
-30.504030445008699
20
7.3816387002086046
30
0
40
1.6500000000000004
210
0
220
-0
230
1
0
CIRCLE
5
104
100
AcDbEntity
8
0
100
AcDbCircle
10
-30.504030445008688
20
-7.3816387002085913
30
0
40
1.6500000000000004
210
0
220
-0
230
1
0
CIRCLE
5
105
100
AcDbEntity
8
0
100
AcDbCircle
10
-44.246287016294119
20
-21.123895271494007
30
0
40
1.6500000000000004
210
0
220
-0
230
1
0
CIRCLE
5
106
100
AcDbEntity
8
0
100
AcDbCircle
10
-21.123895271494018
20
-44.246287016294119
30
0
40
1.6500000000000004
210
0
220
-0
230
1
0
CIRCLE
5
107
100
AcDbEntity
8
0
100
AcDbCircle
10
-7.3816387002085992
20
-30.504030445008699
30
0
40
1.6500000000000004
210
0
220
-0
230
1
0
CIRCLE
5
108
100
AcDbEntity
8
0
100
AcDbCircle
10
7.3816387002085895
20
-30.504030445008688
30
0
40
1.6500000000000004
210
-0
220
0
230
1
0
CIRCLE
5
109
100
AcDbEntity
8
0
100
AcDbCircle
10
21.123895271494003
20
-44.246287016294119
30
0
40
1.6500000000000004
210
-0
220
0
230
1
0
CIRCLE
5
110
100
AcDbEntity
8
0
100
AcDbCircle
10
7.3816387002086028
20
30.504030445008699
30
0
40
1.6500000000000004
210
0
220
-0
230
1
0
CIRCLE
5
111
100
AcDbEntity
8
0
100
AcDbCircle
10
21.123895271494021
20
44.246287016294119
30
0
40
1.6500000000000004
210
0
220
-0
230
1
0
CIRCLE
5
112
100
AcDbEntity
8
0
100
AcDbCircle
10
30.504030445008688
20
7.3816387002085886
30
0
40
1.6500000000000004
210
0
220
-0
230
1
0
CIRCLE
5
113
100
AcDbEntity
8
0
100
AcDbCircle
10
44.246287016294119
20
21.123895271494003
30
0
40
1.6500000000000004
210
0
220
-0
230
1
0
CIRCLE
5
114
100
AcDbEntity
8
0
100
AcDbCircle
10
30.504030445008699
20
-7.381638700208601
30
0
40
1.6500000000000004
210
-0
220
0
230
1
0
CIRCLE
5
115
100
AcDbEntity
8
0
100
AcDbCircle
10
44.246287016294119
20
-21.123895271494021
30
0
40
1.6500000000000004
210
-0
220
0
230
1
0
CIRCLE
5
116
100
AcDbEntity
8
0
100
AcDbCircle
10
74
20
-5.2442444893529864e-14
30
0
40
1.6500000000000004
210
0
220
-0
230
1
0
CIRCLE
5
117
100
AcDbEntity
8
0
100
AcDbCircle
10
-74
20
2.8310686464904519e-14
30
0
40
1.6500000000000004
210
0
220
-0
230
1
0
CIRCLE
5
118
100
AcDbEntity
8
0
100
AcDbCircle
10
<<<<<<< HEAD
=======
0
20
-38.284271247461888
30
0
40
1.4999999999999991
210
0
220
-0
230
1
0
CIRCLE
5
119
100
AcDbEntity
8
0
100
AcDbCircle
10
>>>>>>> 442ce126598f79cdae0187b7546bf509c3300491
1.6653345369377351e-14
20
74
30
0
40
1.6500000000000004
210
0
220
-0
230
1
0
LWPOLYLINE
5
<<<<<<< HEAD
119
=======
120
>>>>>>> 442ce126598f79cdae0187b7546bf509c3300491
100
AcDbEntity
8
0
100
AcDbPolyline
90
36
70
1
43
0.0
10
-74.228962952048306
20
41.702051017467213
42
0.50731434335270953
10
-79.01366527103616
20
40.961453836950867
42
0.24379834682418616
10
-79.013665271036217
20
-40.961453836950753
42
0.50731434335270831
10
-74.228962952048377
20
-41.702051017467134
10
-61.322915781948765
<<<<<<< HEAD
=======
20
-28.796003847367572
42
-0.41421356237309931
10
-57.080275094829446
20
-28.796003847367601
10
-28.796003847368034
20
-57.080275094829929
42
-0.41421356237308982
10
-28.796003847368063
20
-61.322915781949177
10
-41.969573539052448
20
-74.496485473633612
42
0.86799736918029136
10
-38.731647034980618
20
-78.80652444849207
10
-30.675558644128298
>>>>>>> 442ce126598f79cdae0187b7546bf509c3300491
20
-28.796003847367572
42
<<<<<<< HEAD
-0.41421356237309931
=======
-0.1264691899936681
>>>>>>> 442ce126598f79cdae0187b7546bf509c3300491
10
-57.080275094829446
20
-28.796003847367601
10
-28.796003847368034
20
-57.080275094829929
42
-0.41421356237308982
10
-28.796003847368063
20
-61.322915781949177
10
-40.061076125433615
20
-72.587988060014794
42
1.114867276847775
10
-32.816051760638459
20
-78.40942463811848
10
-30.884695535128671
20
-75.385272225611985
42
-0.25599334894184755
10
-28.35632566214332
20
-74
10
<<<<<<< HEAD
28.356325662143298
20
-74
42
-0.25599334894184811
10
30.884695535128657
=======
29.228850747231519
20
-74
42
-0.12646918999366741
10
30.675558644128277
>>>>>>> 442ce126598f79cdae0187b7546bf509c3300491
20
-75.385272225612013
10
<<<<<<< HEAD
32.816030775609313
20
-78.409391779385203
42
1.1148719804694698
10
40.061075967422504
20
-72.587987902003704
=======
38.731656290261114
20
-78.806529543244366
42
0.867995668078688
10
41.969573539053798
20
-74.496485473635076
>>>>>>> 442ce126598f79cdae0187b7546bf509c3300491
10
28.796003847367587
20
-61.322915781948765
42
-0.41421356237310025
10
28.796003847367629
20
-57.080275094829446
10
57.08027509482995
20
-28.796003847368024
42
-0.41421356237309015
10
61.322915781949199
20
-28.796003847368056
10
74.228962952048335
20
-41.70205101746717
42
0.50731434335270653
10
79.013665271036174
20
-40.961453836950824
42
0.24379834682418597
10
79.013665271036217
20
40.961453836950724
42
0.50731434335271319
10
74.228962952048349
20
41.702051017467141
10
61.322915781948751
20
28.796003847367551
42
-0.41421356237309997
10
57.080275094829432
20
28.796003847367597
10
28.796003847368041
20
57.080275094829922
42
-0.41421356237309137
10
28.796003847368077
20
61.322915781949177
10
41.702051017467205
20
74.22896295204832
42
0.50731434335270331
10
40.961453836950845
20
79.01366527103616
42
0.24379834682418627
10
-40.961453836950774
20
79.013665271036203
42
0.50731434335270331
10
-41.702051017467092
20
74.228962952048377
10
-28.796003847367558
20
61.322915781948772
42
-0.41421356237310025
10
-28.796003847367597
20
57.080275094829453
10
-57.080275094829922
20
28.796003847368045
42
-0.41421356237308948
10
-61.32291578194917
20
28.796003847368077
0
LINE
5
<<<<<<< HEAD
120
=======
121
>>>>>>> 442ce126598f79cdae0187b7546bf509c3300491
100
AcDbEntity
8
0
100
AcDbLine
10
23.492702988468931
20
-51.776974235930844
30
0
11
0.49999999999999822
21
-28.784271247461895
31
0
0
LINE
5
<<<<<<< HEAD
121
=======
122
>>>>>>> 442ce126598f79cdae0187b7546bf509c3300491
100
AcDbEntity
8
0
100
AcDbLine
10
26.533262147571062
20
-48.736415076828692
30
0
11
48.736415076828663
21
-26.533262147571111
31
0
0
LINE
5
<<<<<<< HEAD
122
=======
123
>>>>>>> 442ce126598f79cdae0187b7546bf509c3300491
100
AcDbEntity
8
0
100
AcDbLine
10
51.776974235930844
20
-23.49270298846897
30
0
11
28.784271247461888
21
-0.49999999999999822
31
0
0
LINE
5
<<<<<<< HEAD
123
=======
124
>>>>>>> 442ce126598f79cdae0187b7546bf509c3300491
100
AcDbEntity
8
0
100
AcDbLine
10
51.776974235930844
20
23.492702988468931
30
0
11
28.784271247461888
21
0.49999999999999822
31
0
0
LINE
5
<<<<<<< HEAD
124
=======
125
>>>>>>> 442ce126598f79cdae0187b7546bf509c3300491
100
AcDbEntity
8
0
100
AcDbLine
10
46.615094733269054
20
28.654582491130711
30
0
11
18.460512242138179
21
0.50000000000005596
31
0
0
LINE
5
<<<<<<< HEAD
125
=======
126
>>>>>>> 442ce126598f79cdae0187b7546bf509c3300491
100
AcDbEntity
8
0
100
AcDbLine
10
46.615094733269025
20
-28.654582491130753
30
0
11
18.460512242138293
21
-0.49999999999999822
31
0
0
LINE
5
<<<<<<< HEAD
126
=======
127
>>>>>>> 442ce126598f79cdae0187b7546bf509c3300491
100
AcDbEntity
8
0
100
AcDbLine
10
23.49270298846897
20
51.776974235930844
30
0
11
0.50000000000000266
21
28.784271247461895
31
0
0
LINE
5
<<<<<<< HEAD
127
=======
128
>>>>>>> 442ce126598f79cdae0187b7546bf509c3300491
100
AcDbEntity
8
0
100
AcDbLine
10
-23.492702988468928
20
51.776974235930844
30
0
11
-0.49999999999999822
21
28.784271247461888
31
0
0
LINE
5
<<<<<<< HEAD
128
=======
129
>>>>>>> 442ce126598f79cdae0187b7546bf509c3300491
100
AcDbEntity
8
0
100
AcDbLine
10
-51.776974235930844
20
23.492702988468977
30
0
11
-28.784271247461888
21
0.49999999999999822
31
0
0
LINE
5
<<<<<<< HEAD
129
=======
130
>>>>>>> 442ce126598f79cdae0187b7546bf509c3300491
100
AcDbEntity
8
0
100
AcDbLine
10
-51.776974235930844
20
-23.492702988468935
30
0
11
-28.784271247461888
21
-0.49999999999999822
31
0
0
LINE
5
<<<<<<< HEAD
130
=======
131
>>>>>>> 442ce126598f79cdae0187b7546bf509c3300491
100
AcDbEntity
8
0
100
AcDbLine
10
-23.492702988468967
20
-51.776974235930844
30
0
11
-0.49999999999999822
21
-28.784271247461891
31
0
0
<<<<<<< HEAD
LWPOLYLINE
5
131
=======
LINE
5
132
100
AcDbEntity
8
0
100
AcDbLine
10
-34.004209011882139
20
-56.207361941139702
30
0
11
-56.207361941139723
21
-34.004209011882089
31
0
0
LWPOLYLINE
5
133
>>>>>>> 442ce126598f79cdae0187b7546bf509c3300491
100
AcDbEntity
8
0
100
AcDbPolyline
90
3
70
1
43
0.0
10
-48.736415076828692
20
-26.533262147571062
10
-37.6348386121999
20
-37.634838612199871
10
-26.533262147571108
20
-48.736415076828678
0
<<<<<<< HEAD
LWPOLYLINE
5
132
=======
LINE
5
134
100
AcDbEntity
8
0
100
AcDbLine
10
56.207361941139702
20
-34.004209011882139
30
0
11
34.004209011882089
21
-56.207361941139723
31
0
0
LWPOLYLINE
5
135
>>>>>>> 442ce126598f79cdae0187b7546bf509c3300491
100
AcDbEntity
8
0
100
AcDbPolyline
90
3
70
1
43
0.0
10
37.634838612199893
20
-37.634838612199928
10
26.533262147571083
20
-48.73641507682872
10
48.736415076828692
20
-26.533262147571133
0
<<<<<<< HEAD
LWPOLYLINE
5
133
=======
LINE
5
136
100
AcDbEntity
8
0
100
AcDbLine
10
34.004209011882153
20
56.207361941139695
30
0
11
56.20736194113973
21
34.004209011882082
31
0
0
LWPOLYLINE
5
137
>>>>>>> 442ce126598f79cdae0187b7546bf509c3300491
100
AcDbEntity
8
0
100
AcDbPolyline
90
3
70
1
43
0.0
10
37.634838612199935
20
37.634838612199893
10
48.73641507682872
20
26.533262147571079
10
26.533262147571136
20
48.736415076828692
0
<<<<<<< HEAD
LWPOLYLINE
5
134
=======
LINE
5
138
100
AcDbEntity
8
0
100
AcDbLine
10
-56.207361941139695
20
34.004209011882153
30
0
11
-34.004209011882082
21
56.20736194113973
31
0
0
LWPOLYLINE
5
139
>>>>>>> 442ce126598f79cdae0187b7546bf509c3300491
100
AcDbEntity
8
0
100
AcDbPolyline
90
3
70
1
43
0.0
10
-37.634838612199886
20
37.634838612199943
10
-26.533262147571079
20
48.736415076828727
10
-48.736415076828692
20
26.533262147571143
0
LINE
5
<<<<<<< HEAD
135
=======
140
>>>>>>> 442ce126598f79cdae0187b7546bf509c3300491
100
AcDbEntity
8
1
100
AcDbLine
10
-34.004209011882139
20
-56.207361941139702
30
0
11
-26.533262147571108
21
-48.736415076828678
31
0
0
LINE
5
<<<<<<< HEAD
136
=======
141
>>>>>>> 442ce126598f79cdae0187b7546bf509c3300491
100
AcDbEntity
8
1
100
AcDbLine
10
-48.736415076828692
20
-26.533262147571062
30
0
11
-56.207361941139723
21
-34.004209011882089
31
0
0
LINE
5
<<<<<<< HEAD
137
=======
142
>>>>>>> 442ce126598f79cdae0187b7546bf509c3300491
100
AcDbEntity
8
1
100
AcDbLine
10
34.004209011882089
20
-56.207361941139723
30
0
11
26.533262147571083
21
-48.73641507682872
31
0
0
LINE
5
<<<<<<< HEAD
138
=======
143
>>>>>>> 442ce126598f79cdae0187b7546bf509c3300491
100
AcDbEntity
8
1
100
AcDbLine
10
26.533262147571083
20
-48.73641507682872
30
0
11
23.492702988468931
21
-51.776974235930844
31
0
0
LINE
5
<<<<<<< HEAD
139
=======
144
>>>>>>> 442ce126598f79cdae0187b7546bf509c3300491
100
AcDbEntity
8
1
100
AcDbLine
10
56.207361941139702
20
-34.004209011882139
30
0
11
48.736415076828663
21
-26.533262147571111
31
0
0
LINE
5
<<<<<<< HEAD
140
=======
145
>>>>>>> 442ce126598f79cdae0187b7546bf509c3300491
100
AcDbEntity
8
1
100
AcDbLine
10
48.736415076828663
20
-26.533262147571111
30
0
11
51.776974235930844
21
-23.49270298846897
31
0
0
LINE
5
<<<<<<< HEAD
141
=======
146
>>>>>>> 442ce126598f79cdae0187b7546bf509c3300491
100
AcDbEntity
8
1
100
AcDbLine
10
51.776974235930844
20
23.492702988468931
30
0
11
48.73641507682872
21
26.533262147571079
31
0
0
LINE
5
<<<<<<< HEAD
142
=======
147
>>>>>>> 442ce126598f79cdae0187b7546bf509c3300491
100
AcDbEntity
8
1
100
AcDbLine
10
48.73641507682872
20
26.533262147571079
30
0
11
56.20736194113973
21
34.004209011882082
31
0
0
LINE
5
<<<<<<< HEAD
143
=======
148
>>>>>>> 442ce126598f79cdae0187b7546bf509c3300491
100
AcDbEntity
8
1
100
AcDbLine
10
34.004209011882153
20
56.207361941139695
30
0
11
26.533262147571136
21
48.736415076828692
31
0
0
LINE
5
<<<<<<< HEAD
144
=======
149
>>>>>>> 442ce126598f79cdae0187b7546bf509c3300491
100
AcDbEntity
8
1
100
AcDbLine
10
26.533262147571136
20
48.736415076828692
30
0
11
23.49270298846897
21
51.776974235930844
31
0
0
LINE
5
<<<<<<< HEAD
145
=======
150
>>>>>>> 442ce126598f79cdae0187b7546bf509c3300491
100
AcDbEntity
8
1
100
AcDbLine
10
-23.492702988468928
20
51.776974235930844
30
0
11
-26.533262147571079
21
48.736415076828727
31
0
0
LINE
5
<<<<<<< HEAD
146
=======
151
>>>>>>> 442ce126598f79cdae0187b7546bf509c3300491
100
AcDbEntity
8
1
100
AcDbLine
10
-26.533262147571079
20
48.736415076828727
30
0
11
-34.004209011882082
21
56.20736194113973
31
0
0
LINE
5
<<<<<<< HEAD
147
=======
152
>>>>>>> 442ce126598f79cdae0187b7546bf509c3300491
100
AcDbEntity
8
1
100
AcDbLine
10
-48.736415076828692
20
26.533262147571143
30
0
11
-56.207361941139695
21
34.004209011882153
31
0
0
LINE
5
<<<<<<< HEAD
148
=======
153
>>>>>>> 442ce126598f79cdae0187b7546bf509c3300491
100
AcDbEntity
8
1
100
AcDbLine
10
-48.736415076828692
20
26.533262147571143
30
0
11
-51.776974235930844
21
23.492702988468977
31
0
0
LINE
5
<<<<<<< HEAD
149
=======
154
>>>>>>> 442ce126598f79cdae0187b7546bf509c3300491
100
AcDbEntity
8
1
100
AcDbLine
10
-51.776974235930844
20
-23.492702988468935
30
0
11
-48.736415076828692
21
-26.533262147571062
31
0
<<<<<<< HEAD
0
LINE
5
150
100
AcDbEntity
8
0
100
AcDbLine
10
-54.086041597580078
20
-31.882888668322451
30
0
11
-31.882888668322501
21
-54.086041597580063
31
0
0
LINE
5
151
100
AcDbEntity
8
0
100
AcDbLine
10
31.882888668322451
20
-54.086041597580078
30
0
11
54.086041597580063
21
-31.882888668322501
31
0
0
LINE
5
152
100
AcDbEntity
8
0
100
AcDbLine
10
54.086041597580092
20
31.882888668322444
30
0
11
31.882888668322515
21
54.086041597580056
31
0
0
LINE
5
153
100
AcDbEntity
8
0
100
AcDbLine
10
-31.882888668322444
20
54.086041597580092
30
0
11
-54.086041597580056
21
31.882888668322515
31
0
0
CIRCLE
5
154
100
AcDbEntity
8
0
100
AcDbCircle
10
23.492702988468931
20
-66.776974235930851
30
0
40
1.6500000000000004
210
0
220
-0
230
1
0
CIRCLE
5
155
100
AcDbEntity
8
0
100
AcDbCircle
10
-23.492702988468967
20
-66.776974235930851
30
0
40
1.6500000000000004
210
0
220
-0
230
1
=======
>>>>>>> 442ce126598f79cdae0187b7546bf509c3300491
0
ENDSEC
0
SECTION
2
OBJECTS
0
DICTIONARY
5
C
100
AcDbDictionary
3
ACAD_GROUP
350
D
3
ACAD_MLINESTYLE
350
17
0
DICTIONARY
5
D
100
AcDbDictionary
0
DICTIONARY
5
1A
330
C
100
AcDbDictionary
0
DICTIONARY
5
17
100
AcDbDictionary
0
ENDSEC
0
EOF
