0
SECTION
2
HEADER
9
$INSUNITS
70
4
9
$ACADVER
1
AC1014
9
$HANDSEED
5
FFFF
0
ENDSEC
0
SECTION
2
TABLES
0
TABLE
2
VPORT
5
8
100
AcDbSymbolTable
0
ENDTAB
0
TABLE
2
LTYPE
5
5
100
AcDbSymbolTable
0
LTYPE
5
14
100
AcDbSymbolTableRecord
100
AcDbLinetypeTableRecord
2
BYBLOCK
70
0
0
LTYPE
5
15
100
AcDbSymbolTableRecord
100
AcDbLinetypeTableRecord
2
BYLAYER
70
0
0
LTYPE
5
16
100
AcDbSymbolTableRecord
100
AcDbLinetypeTableRecord
2
DASHED
70
0
3
Dashed __ __ __ __ __ __ __ __ __ __ __ __ __ _
72
65
73
2
40
0.75
49
0.5
74
0
49
-0.25
74
0
0
ENDTAB
0
TABLE
2
LAYER
5
2
100
AcDbSymbolTable
70
3
0
LAYER
5
50
100
AcDbSymbolTableRecord
100
AcDbLayerTableRecord
2
1
70
0
62
7
6
DASHED
0
LAYER
5
51
100
AcDbSymbolTableRecord
100
AcDbLayerTableRecord
2
0
70
0
62
7
6
CONTINUOUS
0
ENDTAB
0
TABLE
2
STYLE
5
3
100
AcDbSymbolTable
70
1
0
STYLE
5
11
100
AcDbSymbolTableRecord
100
AcDbTextStyleTableRecord
2
STANDARD
70
0
0
ENDTAB
0
TABLE
2
VIEW
5
6
100
AcDbSymbolTable
70
0
0
ENDTAB
0
TABLE
2
UCS
5
7
100
AcDbSymbolTable
70
0
0
ENDTAB
0
TABLE
2
APPID
5
9
100
AcDbSymbolTable
70
2
0
APPID
5
12
100
AcDbSymbolTableRecord
100
AcDbRegAppTableRecord
2
ACAD
70
0
0
ENDTAB
0
TABLE
2
DIMSTYLE
5
A
100
AcDbSymbolTable
70
1
0
ENDTAB
0
TABLE
2
BLOCK_RECORD
5
1
100
AcDbSymbolTable
70
1
0
BLOCK_RECORD
5
1F
100
AcDbSymbolTableRecord
100
AcDbBlockTableRecord
2
*MODEL_SPACE
0
BLOCK_RECORD
5
1B
100
AcDbSymbolTableRecord
100
AcDbBlockTableRecord
2
*PAPER_SPACE
0
ENDTAB
0
ENDSEC
0
SECTION
2
BLOCKS
0
BLOCK
5
20
100
AcDbEntity
100
AcDbBlockBegin
2
*MODEL_SPACE
0
ENDBLK
5
21
100
AcDbEntity
100
AcDbBlockEnd
0
BLOCK
5
1C
100
AcDbEntity
100
AcDbBlockBegin
2
*PAPER_SPACE
0
ENDBLK
5
1D
100
AcDbEntity
100
AcDbBlockEnd
0
ENDSEC
0
SECTION
2
ENTITIES
0
ARC
5
100
100
AcDbEntity
8
0
100
AcDbCircle
10
0
20
0
30
0
40
89
210
0
220
0
230
1
100
AcDbArc
50
242.59733660807984
51
297.40266339192021
0
ARC
5
101
100
AcDbEntity
8
0
100
AcDbCircle
10
-76.350283295607994
20
39.580730673907468
30
0
40
3.0000000000000067
210
0
220
-0
230
1
100
AcDbArc
50
45.000000000000199
51
152.59733660807953
0
LINE
5
102
100
AcDbEntity
8
0
100
AcDbLine
10
-61.322915781949241
20
28.79600384736802
30
0
11
-74.228962952048349
21
41.702051017467127
31
0
0
ARC
5
103
100
AcDbEntity
8
0
100
AcDbCircle
10
-59.201595438389596
20
30.917324190927673
30
0
40
3.0000000000000004
210
0
220
0
230
1
100
AcDbArc
50
225.00000000000014
51
315
0
LINE
5
104
100
AcDbEntity
8
0
100
AcDbLine
10
-28.796003847368077
20
57.08027509482995
30
0
11
-57.080275094829958
21
28.796003847368027
31
0
0
ARC
5
105
100
AcDbEntity
8
0
100
AcDbCircle
10
-30.917324190927719
20
59.201595438389589
30
0
40
2.9999999999999973
210
-0
220
0
230
1
100
AcDbArc
50
-44.99999999999995
51
44.999999999999666
0
LINE
5
106
100
AcDbEntity
8
0
100
AcDbLine
10
-41.969573539052448
20
74.496485473633612
30
0
11
-28.796003847368063
21
61.32291578194922
31
0
0
LINE
5
107
100
AcDbEntity
8
0
100
AcDbLine
10
-30.675558644128298
20
74.371875904555381
30
0
11
-38.731647034980618
21
78.80652444849207
31
0
0
ARC
5
108
100
AcDbEntity
8
0
100
AcDbCircle
10
-29.22885074723154
20
77
30
0
40
2.9999999999999978
210
0
220
0
230
1
100
AcDbArc
50
241.16846143827109
51
269.99999999999989
0
LINE
5
109
100
AcDbEntity
8
0
100
AcDbLine
10
29.228850747231533
20
74.000000000000014
30
0
11
-29.228850747231544
21
74
31
0
0
ARC
5
110
100
AcDbEntity
8
0
100
AcDbCircle
10
29.228850747231533
20
77.000000000000014
30
0
40
2.9999999999999982
210
-0
220
0
230
1
100
AcDbArc
50
270
51
298.83153856172879
0
LINE
5
111
100
AcDbEntity
8
0
100
AcDbLine
10
38.731656290261107
20
78.806529543244366
30
0
11
30.675558644128287
21
74.371875904555395
31
0
0
LINE
5
112
100
AcDbEntity
8
0
100
AcDbLine
10
-74.22896295204832
20
-41.702051017467213
30
0
11
-61.32291578194917
21
-28.796003847368077
31
0
0
LINE
5
113
100
AcDbEntity
8
0
100
AcDbLine
10
-57.080275094829922
20
-28.796003847368041
30
0
11
-28.796003847367587
21
-57.080275094829446
31
0
0
LINE
5
114
100
AcDbEntity
8
0
100
AcDbLine
10
-28.796003847367558
20
-61.322915781948772
30
0
11
-41.702051017467106
21
-74.228962952048363
31
0
0
LINE
5
115
100
AcDbEntity
8
0
100
AcDbLine
10
41.702051017467205
20
-74.22896295204832
30
0
11
28.796003847368073
21
-61.322915781949177
31
0
0
LINE
5
116
100
AcDbEntity
8
0
100
AcDbLine
10
28.796003847368041
20
-57.080275094829922
30
0
11
57.080275094829446
21
-28.796003847367597
31
0
0
LINE
5
117
100
AcDbEntity
8
0
100
AcDbLine
10
61.322915781948751
20
-28.796003847367551
30
0
11
74.228962952048377
21
-41.702051017467127
31
0
0
LINE
5
118
100
AcDbEntity
8
0
100
AcDbLine
10
74.228962952048335
20
41.70205101746717
30
0
11
61.322915781949199
21
28.796003847368056
31
0
0
LINE
5
119
100
AcDbEntity
8
0
100
AcDbLine
10
57.08027509482995
20
28.79600384736802
30
0
11
28.796003847367619
21
57.080275094829446
31
0
0
LINE
5
120
100
AcDbEntity
8
0
100
AcDbLine
10
28.796003847367587
20
61.322915781948765
30
0
11
41.969573539053798
21
74.496485473635076
31
0
0
ARC
5
121
100
AcDbEntity
8
0
100
AcDbCircle
10
-76.350283295607952
20
-39.580730673907567
30
0
40
3.0000000000000098
210
0
220
0
230
1
100
AcDbArc
50
207.4026633919201
51
314.99999999999977
0
ARC
5
122
100
AcDbEntity
8
0
100
AcDbCircle
10
-59.201595438389532
20
-30.917324190927722
30
0
40
3.0000000000000067
210
0
220
-0
230
1
100
AcDbArc
50
45.000000000000959
51
134.99999999999991
0
ARC
5
123
100
AcDbEntity
8
0
100
AcDbCircle
10
-30.9173241909272
20
-59.201595438389134
30
0
40
2.9999999999999973
210
-0
220
0
230
1
100
AcDbArc
50
-44.99999999999995
51
45.000000000001002
0
ARC
5
124
100
AcDbEntity
8
0
100
AcDbCircle
10
-39.580730673907446
20
-76.350283295608008
30
0
40
3.000000000000016
210
0
220
0
230
1
100
AcDbArc
50
135.0000000000002
51
242.59733660807893
0
ARC
5
125
100
AcDbEntity
8
0
100
AcDbCircle
10
39.580730673907553
20
-76.350283295607966
30
0
40
3.0000000000000067
210
0
220
0
230
1
100
AcDbArc
50
-62.597336608079793
51
44.999999999999908
0
ARC
5
126
100
AcDbEntity
8
0
100
AcDbCircle
10
30.917324190927715
20
-59.201595438389532
30
0
40
3.0000000000000004
210
0
220
0
230
1
100
AcDbArc
50
135.00000000000085
51
225.00000000000006
0
ARC
5
127
100
AcDbEntity
8
0
100
AcDbCircle
10
59.20159543838912
20
-30.9173241909272
30
0
40
3.0000000000000004
210
0
220
-0
230
1
100
AcDbArc
50
45.000000000000249
51
135.00000000000097
0
ARC
5
128
100
AcDbEntity
8
0
100
AcDbCircle
10
76.350283295607994
20
-39.580730673907503
30
0
40
2.999999999999972
210
0
220
0
230
1
100
AcDbArc
50
225.00000000000011
51
332.5973366080799
0
ARC
5
129
100
AcDbEntity
8
0
100
AcDbCircle
10
0
20
0
30
0
40
88.999999999999986
210
-0
220
0
230
1
100
AcDbArc
50
-27.402663391920157
51
27.402663391920154
0
ARC
5
130
100
AcDbEntity
8
0
100
AcDbCircle
10
76.35028329560798
20
39.580730673907553
30
0
40
2.9999999999999973
210
0
220
-0
230
1
100
AcDbArc
50
27.402663391918754
51
135.00000000000037
0
ARC
5
131
100
AcDbEntity
8
0
100
AcDbCircle
10
59.20159543838956
20
30.917324190927697
30
0
40
3.0000000000000036
210
0
220
0
230
1
100
AcDbArc
50
225.00000000000091
51
314.99999999999994
0
ARC
5
132
100
AcDbEntity
8
0
100
AcDbCircle
10
30.917324190927232
20
59.201595438389127
30
0
40
2.9999999999999973
210
0
220
0
230
1
100
AcDbArc
50
135.00000000000011
51
225.00000000000091
0
ARC
5
133
100
AcDbEntity
8
0
100
AcDbCircle
10
0
20
0
30
0
40
88.999999999999986
210
0
220
0
230
1
100
AcDbArc
50
152.59733660807984
51
207.40266339192019
0
ARC
5
134
100
AcDbEntity
8
0
100
AcDbCircle
10
40.044511474867441
20
76.421547537821439
30
0
40
2.7224488795822932
210
-0
220
0
230
1
100
AcDbArc
50
-45.000000000000099
51
118.83135646956055
0
ARC
5
135
100
AcDbEntity
8
0
100
AcDbCircle
10
-40.044511474865033
20
76.421547537821027
30
0
40
2.7224488795837827
210
0
220
-0
230
1
100
AcDbArc
50
61.168421185408683
51
225
0
ENDSEC
0
SECTION
2
OBJECTS
0
DICTIONARY
5
C
100
AcDbDictionary
3
ACAD_GROUP
350
D
3
ACAD_MLINESTYLE
350
17
0
DICTIONARY
5
D
100
AcDbDictionary
0
DICTIONARY
5
1A
330
C
100
AcDbDictionary
0
DICTIONARY
5
17
100
AcDbDictionary
0
ENDSEC
0
EOF
