0
SECTION
2
HEADER
9
$INSUNITS
70
4
9
$ACADVER
1
AC1014
9
$HANDSEED
5
FFFF
0
ENDSEC
0
SECTION
2
TABLES
0
TABLE
2
VPORT
5
8
100
AcDbSymbolTable
0
ENDTAB
0
TABLE
2
LTYPE
5
5
100
AcDbSymbolTable
0
LTYPE
5
14
100
AcDbSymbolTableRecord
100
AcDbLinetypeTableRecord
2
BYBLOCK
70
0
0
LTYPE
5
15
100
AcDbSymbolTableRecord
100
AcDbLinetypeTableRecord
2
BYLAYER
70
0
0
LTYPE
5
16
100
AcDbSymbolTableRecord
100
AcDbLinetypeTableRecord
2
DASHED
70
0
3
Dashed __ __ __ __ __ __ __ __ __ __ __ __ __ _
72
65
73
2
40
0.75
49
0.5
74
0
49
-0.25
74
0
0
ENDTAB
0
TABLE
2
LAYER
5
2
100
AcDbSymbolTable
70
3
0
LAYER
5
50
100
AcDbSymbolTableRecord
100
AcDbLayerTableRecord
2
1
70
0
62
7
6
DASHED
0
LAYER
5
51
100
AcDbSymbolTableRecord
100
AcDbLayerTableRecord
2
0
70
0
62
7
6
CONTINUOUS
0
ENDTAB
0
TABLE
2
STYLE
5
3
100
AcDbSymbolTable
70
1
0
STYLE
5
11
100
AcDbSymbolTableRecord
100
AcDbTextStyleTableRecord
2
STANDARD
70
0
0
ENDTAB
0
TABLE
2
VIEW
5
6
100
AcDbSymbolTable
70
0
0
ENDTAB
0
TABLE
2
UCS
5
7
100
AcDbSymbolTable
70
0
0
ENDTAB
0
TABLE
2
APPID
5
9
100
AcDbSymbolTable
70
2
0
APPID
5
12
100
AcDbSymbolTableRecord
100
AcDbRegAppTableRecord
2
ACAD
70
0
0
ENDTAB
0
TABLE
2
DIMSTYLE
5
A
100
AcDbSymbolTable
70
1
0
ENDTAB
0
TABLE
2
BLOCK_RECORD
5
1
100
AcDbSymbolTable
70
1
0
BLOCK_RECORD
5
1F
100
AcDbSymbolTableRecord
100
AcDbBlockTableRecord
2
*MODEL_SPACE
0
BLOCK_RECORD
5
1B
100
AcDbSymbolTableRecord
100
AcDbBlockTableRecord
2
*PAPER_SPACE
0
ENDTAB
0
ENDSEC
0
SECTION
2
BLOCKS
0
BLOCK
5
20
100
AcDbEntity
100
AcDbBlockBegin
2
*MODEL_SPACE
0
ENDBLK
5
21
100
AcDbEntity
100
AcDbBlockEnd
0
BLOCK
5
1C
100
AcDbEntity
100
AcDbBlockBegin
2
*PAPER_SPACE
0
ENDBLK
5
1D
100
AcDbEntity
100
AcDbBlockEnd
0
ENDSEC
0
SECTION
2
ENTITIES
0
CIRCLE
5
100
100
AcDbEntity
8
0
100
AcDbCircle
10
25.060000000007356
20
7.5000000000000018
30
0
40
1.6500000000000004
210
-6.3108872417680944e-30
220
-3.1115076389305709e-61
230
1
0
CIRCLE
5
101
100
AcDbEntity
8
0
100
AcDbCircle
10
-19.999999999996255
20
-42.010000000000005
30
0
40
1.6500000000000004
210
-6.3108872417680944e-30
220
-3.1115076389305709e-61
230
1
0
CIRCLE
5
102
100
AcDbEntity
8
0
100
AcDbCircle
10
-25.059999999998851
20
-7.4999999999994422
30
0
40
1.6500000000000004
210
-6.3108872417680944e-30
220
-3.1115076389305709e-61
230
1
0
CIRCLE
5
103
100
AcDbEntity
8
0
100
AcDbCircle
10
20.000000000004917
20
42.010000000000019
30
0
40
1.6500000000000004
210
-6.3108872417680944e-30
220
-3.1115076389305709e-61
230
1
0
CIRCLE
5
104
100
AcDbEntity
8
0
100
AcDbCircle
10
25.060000000007356
20
-7.4999999999999982
30
0
40
1.6500000000000004
210
-6.3108872417680944e-30
220
-3.1115076389305709e-61
230
1
0
CIRCLE
5
105
100
AcDbEntity
8
0
100
AcDbCircle
10
-4.9999999999962528
20
-42.010000000000005
30
0
40
1.6500000000000004
210
-6.3108872417680944e-30
220
-3.1115076389305709e-61
230
1
0
CIRCLE
5
106
100
AcDbEntity
8
0
100
AcDbCircle
10
-25.059999999998524
20
7.5000000000005578
30
0
40
1.6500000000000004
210
-6.3108872417680944e-30
220
-3.1115076389305709e-61
230
1
0
CIRCLE
5
107
100
AcDbEntity
8
0
100
AcDbCircle
10
5.0000000000049116
20
42.010000000000019
30
0
40
1.6500000000000004
210
-6.3108872417680944e-30
220
-3.1115076389305709e-61
230
1
0
CIRCLE
5
108
100
AcDbEntity
8
0
100
AcDbCircle
10
14.478000000004156
20
5.0890000000000057
30
0
40
1.6500000000000004
210
-6.3108872417680944e-30
220
-3.1115076389305709e-61
230
1
0
CIRCLE
5
109
100
AcDbEntity
8
0
100
AcDbCircle
10
-14.477999999995848
20
5.0890000000000057
30
0
40
1.6500000000000004
210
-6.3108872417680944e-30
220
-3.1115076389305709e-61
230
1
0
CIRCLE
5
110
100
AcDbEntity
8
0
100
AcDbCircle
10
23.050000000000004
20
30.000000000000018
30
0
40
1.6500000000000004
210
-6.3108872417680944e-30
220
-3.1115076389305709e-61
230
1
0
CIRCLE
5
111
100
AcDbEntity
8
0
100
AcDbCircle
10
-23.04999999999999
20
-30.000000000000007
30
0
40
1.6500000000000004
210
-6.3108872417680944e-30
220
-3.1115076389305709e-61
230
1
0
CIRCLE
5
112
100
AcDbEntity
8
0
100
AcDbCircle
10
23.050000000003497
20
-30.000000000000007
30
0
40
1.6500000000000004
210
-6.3108872417680944e-30
220
-3.1115076389305709e-61
230
1
0
CIRCLE
5
113
100
AcDbEntity
8
0
100
AcDbCircle
10
-23.049999999997759
20
30
30
0
40
1.7644999999999955
210
1.608648310982404e-119
220
1.0642110658277375e-50
230
1
0
LINE
5
114
100
AcDbEntity
8
1
100
AcDbLine
10
17.780000000001909
20
-36.058999999999244
30
1.7763568394002505e-14
11
17.780000000000019
21
8.3910000000007567
31
1.7763568394002505e-14
0
LINE
5
115
100
AcDbEntity
8
1
100
AcDbLine
10
17.780000000000019
20
8.3910000000007567
30
1.7763568394002505e-14
11
-17.779999999999983
21
8.3909999999992468
31
1.7763568394002505e-14
0
LINE
5
116
100
AcDbEntity
8
1
100
AcDbLine
10
-17.779999999999983
20
8.3909999999992468
30
1.7763568394002505e-14
11
-17.7799999999981
21
-36.059000000000758
31
-1.7763568394002505e-14
0
LINE
5
117
100
AcDbEntity
8
1
100
AcDbLine
10
-17.7799999999981
20
-36.059000000000758
30
-1.7763568394002505e-14
11
17.780000000001909
21
-36.058999999999244
31
1.7763568394002505e-14
0
LINE
5
118
100
AcDbEntity
8
1
100
AcDbLine
10
14.84833178078688
20
-35.72905369015637
30
0
11
14.84833089257002
21
-15.409053690156371
31
1.1248634581432452e-31
0
LINE
5
119
100
AcDbEntity
8
1
100
AcDbLine
10
17.388331780786881
20
-35.729053579129264
30
-1.7763568394002505e-14
11
17.388330892570021
21
-15.409053579129264
31
-1.7763568394002505e-14
0
LINE
5
120
100
AcDbEntity
8
1
100
AcDbLine
10
14.84833089257002
20
-15.409053690156371
30
1.1248634581432452e-31
11
17.388330892570021
21
-15.409053579129264
31
-1.7763568394002505e-14
0
LINE
5
121
100
AcDbEntity
8
1
100
AcDbLine
10
14.84833178078688
20
-35.72905369015637
30
0
11
17.388331780786881
21
-35.729053579129264
31
-1.7763568394002505e-14
0
LINE
5
122
100
AcDbEntity
8
1
100
AcDbLine
10
-17.358867964091125
20
-35.729053690157741
30
0
11
-14.818867964091124
21
-35.729053579130635
31
-2.3212323754155674e-52
0
LINE
5
123
100
AcDbEntity
8
1
100
AcDbLine
10
-14.818867964091124
20
-35.729053579130635
30
-2.3212323754155674e-52
11
-14.818868852307984
21
-15.409053579130632
31
1.1248634581432452e-31
0
LINE
5
124
100
AcDbEntity
8
1
100
AcDbLine
10
-17.358867964091125
20
-35.729053690157741
30
0
11
-17.358868852307985
21
-15.409053690157739
31
1.1248634581432452e-31
0
LINE
5
125
100
AcDbEntity
8
1
100
AcDbLine
10
-17.358868852307985
20
-15.409053690157739
30
1.1248634581432452e-31
11
-14.818868852307984
21
-15.409053579130632
31
1.1248634581432452e-31
0
LINE
5
126
100
AcDbEntity
8
1
100
AcDbLine
10
-10.172213438714506
20
9.8783752811343177
30
0
11
10.147786561285482
21
9.8783752811351775
31
-1.7996773555305548e-57
0
ARC
5
127
100
AcDbEntity
8
1
100
AcDbCircle
10
10.147786649948101
20
12.418375281135177
30
0
40
2.5400000000000005
210
8.4696938123984795e-48
220
-2.9635626647987104e-55
230
1
100
AcDbArc
50
-90.000001999997565
51
0
0
LINE
5
128
100
AcDbEntity
8
1
100
AcDbLine
10
12.687786649948102
20
12.418375281135285
30
1.4708217503858408e-39
11
12.687786649947355
21
30.198375281135274
31
-3.8041649294480995e-31
0
ARC
5
129
100
AcDbEntity
8
1
100
AcDbCircle
10
10.147786649947346
20
30.198375281135167
30
0
40
2.5399999999999965
210
-1.6376507550200456e-39
220
3.1276801370296947e-32
230
1
100
AcDbArc
50
2.9575586669421963e-06
51
90.000001000002385
0
LINE
5
130
100
AcDbEntity
8
1
100
AcDbLine
10
10.147786605615877
20
32.738375281135163
30
-7.9443075480554207e-32
11
-10.172213394384112
21
32.73837528113431
31
1.7996773555305548e-57
0
ARC
5
131
100
AcDbEntity
8
1
100
AcDbCircle
10
-10.17221335005264
20
30.198375281134307
30
0
40
2.5400000000000005
210
-5.9790818835419568e-47
220
-1.0442577472676136e-54
230
1
100
AcDbArc
50
90.000001000002456
51
180
0
LINE
5
132
100
AcDbEntity
8
1
100
AcDbLine
10
-12.71221335005264
20
30.198375281134201
30
2.141360242572303e-39
11
-12.712213350051886
21
12.418375281134203
31
3.8041649294480995e-31
0
ARC
5
133
100
AcDbEntity
8
1
100
AcDbCircle
10
-10.172213350051887
20
12.41837528113431
30
0
40
2.54
210
1.4977027281291873e-31
220
-3.406409665744561e-32
230
1
100
AcDbArc
50
180
51
269.99999800000245
0
LINE
5
134
100
AcDbEntity
8
0
100
AcDbLine
10
36.050000000007323
20
8.1500000000000181
30
0
11
36.050000000007323
21
-8.1499999999999826
31
0
0
LINE
5
135
100
AcDbEntity
8
0
100
AcDbLine
10
4.350000000005644
20
53.000000000000547
30
0
11
20.650000000005644
21
53.000000000000547
31
3.0211753419063438e-102
0
LINE
5
136
100
AcDbEntity
8
0
100
AcDbLine
10
-36.049999999998519
20
8.1500000000008015
30
0
11
-36.049999999998875
21
-8.1499999999991992
31
3.4078243130934416e-44
0
LINE
5
137
100
AcDbEntity
8
0
100
AcDbLine
10
-20.649999999996417
20
-53.000000000000007
30
0
11
-4.3499999999964167
21
-53.000000000000007
31
3.0211753419063434e-102
0
LWPOLYLINE
5
138
100
AcDbEntity
8
0
100
AcDbPolyline
90
8
70
1
43
0.0
10
35.80711586892177
20
-54.171128394733643
42
0.5377163968178631
10
35.807115868921791
20
54.171128394733614
42
0.1470639901028733
10
33.049999999999983
20
55.000000000000014
10
-33.049999999997574
20
55.000000000000014
42
0.14706399010262008
10
-35.807115868914941
20
54.171128394735106
42
0.53771639681787642
10
-35.807115868916057
20
-54.171128394735476
42
0.14706399010262186
10
-33.04999999999999
20
-55.000000000000007
10
33.04999999999999
20
-55
42
0.1470639901028713
0
ENDSEC
0
SECTION
2
OBJECTS
0
DICTIONARY
5
C
100
AcDbDictionary
3
ACAD_GROUP
350
D
3
ACAD_MLINESTYLE
350
17
0
DICTIONARY
5
D
100
AcDbDictionary
0
DICTIONARY
5
1A
330
C
100
AcDbDictionary
0
DICTIONARY
5
17
100
AcDbDictionary
0
ENDSEC
0
EOF
