0
SECTION
2
HEADER
9
$INSUNITS
70
4
9
$ACADVER
1
AC1014
9
$HANDSEED
5
FFFF
0
ENDSEC
0
SECTION
2
TABLES
0
TABLE
2
VPORT
5
8
100
AcDbSymbolTable
0
ENDTAB
0
TABLE
2
LTYPE
5
5
100
AcDbSymbolTable
0
LTYPE
5
14
100
AcDbSymbolTableRecord
100
AcDbLinetypeTableRecord
2
BYBLOCK
70
0
0
LTYPE
5
15
100
AcDbSymbolTableRecord
100
AcDbLinetypeTableRecord
2
BYLAYER
70
0
0
LTYPE
5
16
100
AcDbSymbolTableRecord
100
AcDbLinetypeTableRecord
2
DASHED
70
0
3
Dashed __ __ __ __ __ __ __ __ __ __ __ __ __ _
72
65
73
2
40
0.75
49
0.5
74
0
49
-0.25
74
0
0
ENDTAB
0
TABLE
2
LAYER
5
2
100
AcDbSymbolTable
70
3
0
LAYER
5
50
100
AcDbSymbolTableRecord
100
AcDbLayerTableRecord
2
1
70
0
62
7
6
DASHED
0
LAYER
5
51
100
AcDbSymbolTableRecord
100
AcDbLayerTableRecord
2
0
70
0
62
7
6
CONTINUOUS
0
ENDTAB
0
TABLE
2
STYLE
5
3
100
AcDbSymbolTable
70
1
0
STYLE
5
11
100
AcDbSymbolTableRecord
100
AcDbTextStyleTableRecord
2
STANDARD
70
0
0
ENDTAB
0
TABLE
2
VIEW
5
6
100
AcDbSymbolTable
70
0
0
ENDTAB
0
TABLE
2
UCS
5
7
100
AcDbSymbolTable
70
0
0
ENDTAB
0
TABLE
2
APPID
5
9
100
AcDbSymbolTable
70
2
0
APPID
5
12
100
AcDbSymbolTableRecord
100
AcDbRegAppTableRecord
2
ACAD
70
0
0
ENDTAB
0
TABLE
2
DIMSTYLE
5
A
100
AcDbSymbolTable
70
1
0
ENDTAB
0
TABLE
2
BLOCK_RECORD
5
1
100
AcDbSymbolTable
70
1
0
BLOCK_RECORD
5
1F
100
AcDbSymbolTableRecord
100
AcDbBlockTableRecord
2
*MODEL_SPACE
0
BLOCK_RECORD
5
1B
100
AcDbSymbolTableRecord
100
AcDbBlockTableRecord
2
*PAPER_SPACE
0
ENDTAB
0
ENDSEC
0
SECTION
2
BLOCKS
0
BLOCK
5
20
100
AcDbEntity
100
AcDbBlockBegin
2
*MODEL_SPACE
0
ENDBLK
5
21
100
AcDbEntity
100
AcDbBlockEnd
0
BLOCK
5
1C
100
AcDbEntity
100
AcDbBlockBegin
2
*PAPER_SPACE
0
ENDBLK
5
1D
100
AcDbEntity
100
AcDbBlockEnd
0
ENDSEC
0
SECTION
2
ENTITIES
0
LWPOLYLINE
5
100
100
AcDbEntity
8
0
100
AcDbPolyline
90
40
70
1
43
0.0
10
69.658969238505591
20
-21.708805411713765
10
80.142444113859142
20
-28.899630645681363
42
0.50159195489584552
10
84.694237278895073
20
-27.347507596602398
42
0.15744625742932045
10
84.694237278895059
20
27.347507596602355
42
0.50159195489584796
10
80.142444113859142
20
28.899630645681363
10
69.658969238505577
20
21.708805411713769
42
-0.41421356237321927
10
65.488088856377388
20
22.485823325269038
10
44.559270300189262
20
52.997862815313859
42
-0.41421356237309098
10
45.336288213745206
20
57.168743197440989
10
55.819763089101421
20
64.359568431404114
42
0.50159195489574082
10
56.010837617193104
20
69.164919355265837
42
0.35412933440305455
10
-56.01083761719309
20
69.164919355265852
42
0.50159195489574604
10
-55.819763089101436
20
64.359568431404085
10
-45.336288213713367
20
57.168743197485277
42
-0.41421356237297224
10
-44.559270300158438
20
52.997862815358836
10
-65.488088856378781
20
22.485823325267027
42
-0.41421356237309953
10
-69.658969238505961
20
21.708805411711069
10
-80.142444113859142
20
28.899630645681349
42
0.50159195489584552
10
-84.694237278895073
20
27.347507596602384
42
0.15744625742932045
10
-84.694237278895059
20
-27.34750759660237
42
0.50159195489584885
10
-80.142444113859142
20
-28.899630645681327
10
-69.658969238505961
20
-21.708805411711051
42
-0.41421356237309914
10
-65.488088856378766
20
-22.485823325267013
10
-44.559270300158431
20
-52.997862815358843
42
-0.41421356237297113
10
-45.336288213713367
20
-57.168743197485277
10
-55.819763089101436
20
-64.359568431404085
42
0.50159195489574349
10
-56.010837617193104
20
-69.164919355265837
42
0.061831730255464457
10
-37.399364405804491
20
-80.760680668514979
42
0.37529894079340725
10
-33.610341800039194
20
-79.653138308009119
10
-30.884695535128678
20
-75.385272225612013
42
-0.25599334894185216
10
-28.356325662143298
20
-73.999999999999972
10
28.356325662143345
20
-73.999999999999986
42
-0.25599334894184317
10
30.884695535128674
20
-75.385272225611942
10
33.61034180003945
20
-79.653138308009133
42
0.37529894079339349
10
37.399364405804725
20
-80.760680668514837
42
0.061831730255463548
10
56.010837617193083
20
-69.164919355265852
42
0.50159195489574759
10
55.819763089101414
20
-64.359568431404099
10
45.336288213745213
20
-57.168743197440989
42
-0.4142135623730912
10
44.559270300189276
20
-52.997862815313859
10
65.488088856377374
20
-22.485823325269031
42
-0.4142135623732191
0
CIRCLE
5
101
100
AcDbEntity
8
0
100
AcDbCircle
10
-49.864290956596307
20
69.453599528000751
30
0
40
1.6500000000000004
210
0
220
-0
230
1
0
CIRCLE
5
102
100
AcDbEntity
8
0
100
AcDbCircle
10
49.864290956596342
20
69.453599528000737
30
0
40
1.6500000000000048
210
0
220
-0
230
1
0
CIRCLE
5
103
100
AcDbEntity
8
0
100
AcDbCircle
10
58.242047696218336
20
-25.094259815781214
30
0
40
1.6500000000000004
210
0
220
-0
230
1
0
CIRCLE
5
104
100
AcDbEntity
8
0
100
AcDbCircle
10
37.625804797538677
20
-10.953166196734681
30
0
40
1.6500000000000004
210
0
220
-0
230
1
0
CIRCLE
5
105
100
AcDbEntity
8
0
100
AcDbCircle
10
44.383464016826153
20
-45.298632621941223
30
0
40
1.6500000000000004
210
0
220
-0
230
1
0
CIRCLE
5
106
100
AcDbEntity
8
0
100
AcDbCircle
10
23.767221118146473
20
-31.157539002894687
30
0
40
1.6500000000000048
210
0
220
-0
230
1
0
CIRCLE
5
107
100
AcDbEntity
8
0
100
AcDbCircle
10
-58.24204769621835
20
-25.0942598157812
30
0
40
1.6500000000000004
210
0
220
-0
230
1
0
CIRCLE
5
108
100
AcDbEntity
8
0
100
AcDbCircle
10
-37.625804797538677
20
-10.953166196734671
30
0
40
1.6500000000000004
210
0
220
-0
230
1
0
CIRCLE
5
109
100
AcDbEntity
8
0
100
AcDbCircle
10
-44.38346401682616
20
-45.298632621941209
30
0
40
1.6500000000000004
210
0
220
-0
230
1
0
CIRCLE
5
110
100
AcDbEntity
8
0
100
AcDbCircle
10
-23.76722111814648
20
-31.15753900289468
30
0
40
1.6500000000000048
210
0
220
-0
230
1
0
CIRCLE
5
111
100
AcDbEntity
8
0
100
AcDbCircle
10
-44.38346401682616
20
45.298632621941209
30
0
40
1.6500000000000004
210
0
220
-0
230
1
0
CIRCLE
5
112
100
AcDbEntity
8
0
100
AcDbCircle
10
-23.76722111814648
20
31.15753900289468
30
0
40
1.6500000000000048
210
0
220
-0
230
1
0
CIRCLE
5
113
100
AcDbEntity
8
0
100
AcDbCircle
10
-58.24204769621835
20
25.0942598157812
30
0
40
1.6500000000000004
210
0
220
-0
230
1
0
CIRCLE
5
114
100
AcDbEntity
8
0
100
AcDbCircle
10
-37.625804797538677
20
10.953166196734671
30
0
40
1.6500000000000004
210
0
220
-0
230
1
0
CIRCLE
5
115
100
AcDbEntity
8
0
100
AcDbCircle
10
-82.750215137561881
20
21.509344357446579
30
0
40
1.6499999999999915
210
0
220
-0
230
1
0
CIRCLE
5
116
100
AcDbEntity
8
0
100
AcDbCircle
10
-82.750215137561881
20
-21.509344357446647
30
0
40
1.6499999999999915
210
0
220
-0
230
1
0
CIRCLE
5
117
100
AcDbEntity
8
0
100
AcDbCircle
10
37.625804797538677
20
10.953166196734681
30
0
40
1.6500000000000004
210
0
220
-0
230
1
0
CIRCLE
5
118
100
AcDbEntity
8
0
100
AcDbCircle
10
58.242047696218336
20
25.094259815781214
30
0
40
1.6500000000000004
210
0
220
-0
230
1
0
CIRCLE
5
119
100
AcDbEntity
8
0
100
AcDbCircle
10
44.383464016826153
20
45.298632621941223
30
0
40
1.6500000000000004
210
0
220
-0
230
1
0
CIRCLE
5
120
100
AcDbEntity
8
0
100
AcDbCircle
10
23.767221118146473
20
31.157539002894687
30
0
40
1.6500000000000048
210
0
220
-0
230
1
0
CIRCLE
5
121
100
AcDbEntity
8
0
100
AcDbCircle
10
82.750215137561923
20
-21.509344357446626
30
0
40
1.6499999999999915
210
0
220
-0
230
1
0
CIRCLE
5
122
100
AcDbEntity
8
0
100
AcDbCircle
10
82.750215137561923
20
21.509344357446597
30
0
40
1.6499999999999915
210
0
220
-0
230
1
0
CIRCLE
5
123
100
AcDbEntity
8
0
100
AcDbCircle
10
-49.864290956596307
20
-69.453599528000765
30
0
40
1.6500000000000004
210
0
220
-0
230
1
0
CIRCLE
5
124
100
AcDbEntity
8
0
100
AcDbCircle
10
49.864290956596342
20
-69.453599528000765
30
0
40
1.6500000000000004
210
0
220
-0
230
1
0
CIRCLE
5
125
100
AcDbEntity
8
0
100
AcDbCircle
10
-3.9999999999999791
20
-53.999999999999986
30
0
40
1.6500000000000004
210
0
220
-0
230
1
0
CIRCLE
5
126
100
AcDbEntity
8
0
100
AcDbCircle
10
4.0000000000000231
20
-53.999999999999986
30
0
40
1.6500000000000004
210
0
220
-0
230
1
0
CIRCLE
5
127
100
AcDbEntity
8
0
100
AcDbCircle
10
4.0000000000000302
20
-33.999999999999986
30
0
40
1.6500000000000004
210
0
220
-0
230
1
0
CIRCLE
5
128
100
AcDbEntity
8
0
100
AcDbCircle
10
-3.9999999999999725
20
-33.999999999999986
30
0
40
1.6500000000000004
210
0
220
-0
230
1
0
CIRCLE
5
129
100
AcDbEntity
8
0
100
AcDbCircle
10
-16.64999999999997
20
-53.999999999999986
30
0
40
1.6500000000000004
210
0
220
-0
230
1
0
CIRCLE
5
130
100
AcDbEntity
8
0
100
AcDbCircle
10
16.650000000000031
20
-53.999999999999986
30
0
40
1.6500000000000004
210
0
220
-0
230
1
0
ENDSEC
0
SECTION
2
OBJECTS
0
DICTIONARY
5
C
100
AcDbDictionary
3
ACAD_GROUP
350
D
3
ACAD_MLINESTYLE
350
17
0
DICTIONARY
5
D
100
AcDbDictionary
0
DICTIONARY
5
1A
330
C
100
AcDbDictionary
0
DICTIONARY
5
17
100
AcDbDictionary
0
ENDSEC
0
EOF
