0
SECTION
2
HEADER
9
$INSUNITS
70
4
9
$ACADVER
1
AC1014
9
$HANDSEED
5
FFFF
0
ENDSEC
0
SECTION
2
TABLES
0
TABLE
2
VPORT
5
8
100
AcDbSymbolTable
0
ENDTAB
0
TABLE
2
LTYPE
5
5
100
AcDbSymbolTable
0
LTYPE
5
14
100
AcDbSymbolTableRecord
100
AcDbLinetypeTableRecord
2
BYBLOCK
70
0
0
LTYPE
5
15
100
AcDbSymbolTableRecord
100
AcDbLinetypeTableRecord
2
BYLAYER
70
0
0
LTYPE
5
16
100
AcDbSymbolTableRecord
100
AcDbLinetypeTableRecord
2
DASHED
70
0
3
Dashed __ __ __ __ __ __ __ __ __ __ __ __ __ _
72
65
73
2
40
0.75
49
0.5
74
0
49
-0.25
74
0
0
ENDTAB
0
TABLE
2
LAYER
5
2
100
AcDbSymbolTable
70
3
0
LAYER
5
50
100
AcDbSymbolTableRecord
100
AcDbLayerTableRecord
2
1
70
0
62
7
6
DASHED
0
LAYER
5
51
100
AcDbSymbolTableRecord
100
AcDbLayerTableRecord
2
0
70
0
62
7
6
CONTINUOUS
0
ENDTAB
0
TABLE
2
STYLE
5
3
100
AcDbSymbolTable
70
1
0
STYLE
5
11
100
AcDbSymbolTableRecord
100
AcDbTextStyleTableRecord
2
STANDARD
70
0
0
ENDTAB
0
TABLE
2
VIEW
5
6
100
AcDbSymbolTable
70
0
0
ENDTAB
0
TABLE
2
UCS
5
7
100
AcDbSymbolTable
70
0
0
ENDTAB
0
TABLE
2
APPID
5
9
100
AcDbSymbolTable
70
2
0
APPID
5
12
100
AcDbSymbolTableRecord
100
AcDbRegAppTableRecord
2
ACAD
70
0
0
ENDTAB
0
TABLE
2
DIMSTYLE
5
A
100
AcDbSymbolTable
70
1
0
ENDTAB
0
TABLE
2
BLOCK_RECORD
5
1
100
AcDbSymbolTable
70
1
0
BLOCK_RECORD
5
1F
100
AcDbSymbolTableRecord
100
AcDbBlockTableRecord
2
*MODEL_SPACE
0
BLOCK_RECORD
5
1B
100
AcDbSymbolTableRecord
100
AcDbBlockTableRecord
2
*PAPER_SPACE
0
ENDTAB
0
ENDSEC
0
SECTION
2
BLOCKS
0
BLOCK
5
20
100
AcDbEntity
100
AcDbBlockBegin
2
*MODEL_SPACE
0
ENDBLK
5
21
100
AcDbEntity
100
AcDbBlockEnd
0
BLOCK
5
1C
100
AcDbEntity
100
AcDbBlockBegin
2
*PAPER_SPACE
0
ENDBLK
5
1D
100
AcDbEntity
100
AcDbBlockEnd
0
ENDSEC
0
SECTION
2
ENTITIES
0
LWPOLYLINE
5
100
100
AcDbEntity
8
0
100
AcDbPolyline
90
98
70
1
43
0.0
10
65.585247500107386
20
22.348356361851202
10
65.536745822792057
20
22.416980555127779
42
-0.0070255135014041722
10
65.488088856377388
20
22.485823325269038
10
44.559270300189262
20
52.997862815313859
42
-0.0066563421533754417
10
44.514971711924417
20
53.06432530117312
10
44.465695500106847
20
53.138254361850855
42
-0.38263457318470001
10
45.206713500107043
20
57.07779336185169
10
45.27920288146408
20
57.128602974763744
42
-0.0058156291241343409
10
45.336288213745206
20
57.168743197440989
10
55.819763089101421
20
64.359568431404114
42
0.0012135299561233941
10
55.831751889749206
20
64.367834648655574
10
55.899156152242035
20
64.415941936091286
42
0.48258803099791048
10
56.077048173116566
20
69.109707066368145
10
56.010837617193097
20
69.164919355265837
10
55.643366488384146
20
69.460893788083126
42
0.3511488868502694
10
-55.643366448736835
20
69.460893819843619
10
-56.010837617193104
20
69.164919355265823
10
-56.077710024337897
20
69.109138668602569
42
0.48356669417628129
10
-55.890769157732343
20
64.409801900178437
10
-55.819763089101436
20
64.359568431404085
10
-45.336288213713367
20
57.16874319748527
42
-0.0070247195129861809
10
-45.267453145816518
20
57.120091838798011
10
-45.198816499891478
20
57.071580361852668
42
-0.38171680074206665
10
-44.465997499890555
20
53.138020361849989
10
-44.512622264587492
20
53.067959749854516
42
-0.0070170019849440605
10
-44.559270300158438
20
52.997862815358836
10
-65.488088856378766
20
22.485823325267038
42
-0.0070168804204882073
10
-65.536684850965742
20
22.417064303024592
10
-65.585231499890554
20
22.348371361849647
42
-0.38171915892510128
10
-69.518843499891204
20
21.615553361853529
10
-69.588859894850202
20
21.662149367110235
42
-0.0070182328194022077
10
-69.658969238505961
20
21.708805411711069
10
-80.142444113859142
20
28.899630645681349
10
-80.214993877820646
20
28.947860087644244
42
0.48357079780015638
10
-84.666339018281946
20
27.429811174590579
10
-84.694237278895059
20
27.347507596602377
10
-84.839406018230989
20
26.893775980210663
42
0.15470297169741298
10
-84.839589299554277
20
-26.893197792061756
10
-84.694237278895045
20
-27.347507596602384
10
-84.666762885199844
20
-27.42861704677242
42
0.48371250692755619
10
-80.214900538569907
20
-28.947799971079501
10
-80.142444113859142
20
-28.899630645681349
10
-69.658969238505961
20
-21.708805411711062
42
-0.006754608962117538
10
-69.591516830559101
20
-21.663866162955077
10
-69.518827499892154
20
-21.61543963814951
42
-0.38172037908465739
10
-65.585187499892072
20
-22.348279638148377
10
-65.534779894324416
20
-22.419683923433745
42
-0.0067469490272932964
10
-65.488088856378766
20
-22.485823325267013
10
-44.559270300158424
20
-52.997862815358843
42
-0.0069381682570113686
10
-44.51313536256108
20
-53.067165037148804
10
-44.465793499883802
20
-53.138280638143428
42
-0.38253983296777488
10
-45.20576249989432
20
-57.077058638146553
10
-45.277921568345434
20
-57.127679035351775
42
-0.0059472746934916424
10
-45.336288213713367
20
-57.168743197485277
10
-55.819763089101436
20
-64.359568431404085
10
-55.890839072081235
20
-64.409852899530762
42
0.48357105631108377
10
-56.077612198341846
20
-69.109222702622617
10
-56.010837617193104
20
-69.164919355265823
10
-55.653061075504212
20
-69.45312658855751
42
0.06053638979777709
10
-37.399364405804512
20
-80.760680668514965
42
0.3752989407934102
10
-33.610341800039194
20
-79.653138308009119
10
-27.180561424247045
20
-69.585272225611732
42
-0.25599334894185166
10
-24.652191551261669
20
-68.19999999999969
10
24.652191551261495
20
-68.199999999999704
42
-0.25599334894184578
10
27.180561424246807
20
-69.585272225611646
10
33.61034180003945
20
-79.653138308009133
42
0.37529894079339349
10
37.399364405804725
20
-80.760680668514837
42
0.060542205657055682
10
55.654670879002246
20
-69.451836616103535
10
56.010837617193097
20
-69.164919355265837
10
56.076483197935559
20
-69.11019200250567
42
0.48373836546754745
10
55.890726706738441
20
-64.409770935607867
10
55.819763089101421
20
-64.359568431404114
10
45.336288213745235
20
-57.168743197440996
42
-0.0071418415920711763
10
45.266317172974986
20
-57.119264373278924
10
45.198854500110585
20
-57.071560638144689
42
-0.38171315608787854
10
44.466008500104721
20
-53.13800863814717
10
44.512578325674482
20
-53.068027830290092
42
-0.0070237546746413099
10
44.559270300189276
20
-52.997862815313859
10
65.488088856377374
20
-22.485823325269038
42
-0.0069647804867567489
10
65.536316952230038
20
-22.417569759615013
10
65.585471500103722
20
-22.348004638145955
42
-0.38273245680168833
10
69.528372500110905
20
-21.621231638143094
10
69.601920663906412
20
-21.670627002590916
42
-0.005720600689322783
10
69.658969238505591
20
-21.708805411713769
10
80.142444113859142
20
-28.899630645681363
42
0.001286668823957425
10
80.155199137901207
20
-28.908331391169469
10
80.225157487237368
20
-28.954376951532868
42
0.48240256871452603
10
84.66657537544036
20
-27.429145501014279
10
84.694237278895045
20
-27.347507596602391
10
84.83964271692075
20
-26.8930292764732
42
0.15470128287497406
10
84.839530027535247
20
26.893384775943403
10
84.694237278895045
20
27.347507596602391
10
84.667085029918567
20
27.42770842143511
42
0.48382870878664203
10
80.214761043854992
20
28.947710118275612
10
80.142444113859142
20
28.899630645681363
10
69.658969238505577
20
21.708805411713769
42
-0.0072075198800354593
10
69.586951053537021
20
21.660918406638284
10
69.518811500107148
20
21.615608361851663
42
-0.38171499020405153
0
CIRCLE
5
101
100
AcDbEntity
8
0
100
AcDbCircle
10
-17.996813499892589
20
80.750633361851229
30
0
40
0.89999900000000022
210
0
220
-0
230
1
0
CIRCLE
5
102
100
AcDbEntity
8
0
100
AcDbCircle
10
-4.5528134998925864
20
77.438633361851217
30
0
40
0.59999999999999998
210
0
220
-0
230
1
0
CIRCLE
5
103
100
AcDbEntity
8
0
100
AcDbCircle
10
12.211186500107413
20
69.981879361851213
30
0
40
0.60000000000000053
210
0
220
-0
230
1
0
LWPOLYLINE
5
104
100
AcDbEntity
8
0
100
AcDbPolyline
90
4
70
1
43
0.0
10
-32.382350499892588
20
64.002169361851216
10
-31.235278499892591
20
64.002169361851216
10
-31.235278499892591
20
60.455097361851216
10
-32.382350499892588
20
60.455097361851216
0
CIRCLE
5
105
100
AcDbEntity
8
0
100
AcDbCircle
10
12.211186500107411
20
60.751387361851215
30
0
40
0.60000000000000053
210
0
220
-0
230
1
0
CIRCLE
5
106
100
AcDbEntity
8
0
100
AcDbCircle
10
-4.55281349989259
20
53.294633361851211
30
0
40
0.59999999999999998
210
0
220
-0
230
1
0
CIRCLE
5
107
100
AcDbEntity
8
0
100
AcDbCircle
10
7.8731865001074102
20
41.000633361851222
30
0
40
0.79999900000000013
210
0
220
-0
230
1
0
LWPOLYLINE
5
108
100
AcDbEntity
8
0
100
AcDbPolyline
90
4
70
1
43
0.0
10
-1.7868134998925922
20
34.105633361851247
10
-2.7868135002835892
20
34.105633361851254
42
-0.9999996450989469
10
-2.7868134998925918
20
35.005633361851196
10
-1.7868134997832552
20
35.005633361851189
42
-0.99999964541191089
0
CIRCLE
5
109
100
AcDbEntity
8
0
100
AcDbCircle
10
67.503187500107401
20
14.000635361851206
30
0
40
0.4750000000000032
210
0
220
-0
230
1
0
CIRCLE
5
110
100
AcDbEntity
8
0
100
AcDbCircle
10
71.019684500107417
20
3.6206333618512061
30
0
40
0.42500000000000426
210
0
220
-0
230
1
0
CIRCLE
5
111
100
AcDbEntity
8
0
100
AcDbCircle
10
63.399686500107407
20
3.6206323618512073
30
0
40
0.42500000000000426
210
0
220
-0
230
1
0
CIRCLE
5
112
100
AcDbEntity
8
0
100
AcDbCircle
10
63.399686500107407
20
-11.619365638148793
30
0
40
0.42500000000000426
210
0
220
-0
230
1
0
CIRCLE
5
113
100
AcDbEntity
8
0
100
AcDbCircle
10
73.559688500107399
20
-11.619371638148797
30
0
40
0.42500000000000426
210
0
220
-0
230
1
0
CIRCLE
5
114
100
AcDbEntity
8
0
100
AcDbCircle
10
60.859684500107406
20
-11.619368638148792
30
0
40
0.42500000000000426
210
0
220
-0
230
1
0
CIRCLE
5
115
100
AcDbEntity
8
0
100
AcDbCircle
10
71.0196855001074
20
-11.619365638148796
30
0
40
0.42500000000000426
210
0
220
-0
230
1
0
CIRCLE
5
116
100
AcDbEntity
8
0
100
AcDbCircle
10
60.859686500107408
20
3.6206333618512074
30
0
40
0.42500000000000426
210
0
220
-0
230
1
0
CIRCLE
5
117
100
AcDbEntity
8
0
100
AcDbCircle
10
73.559683500107397
20
3.6206353618512055
30
0
40
0.42500000000000426
210
0
220
-0
230
1
0
CIRCLE
5
118
100
AcDbEntity
8
0
100
AcDbCircle
10
72.50318950010741
20
14.000635361851206
30
0
40
0.4750000000000032
210
0
220
-0
230
1
0
LWPOLYLINE
5
119
100
AcDbEntity
8
0
100
AcDbPolyline
90
4
70
1
43
0.0
10
0.75318650010740795
20
34.105633361851247
10
-0.24681350028358989
20
34.105633361851254
42
-0.9999996450989469
10
-0.24681349989259177
20
35.005633361851196
10
0.75318650021674505
20
35.005633361851189
42
-0.99999964541191089
0
LWPOLYLINE
5
120
100
AcDbEntity
8
0
100
AcDbPolyline
90
4
70
1
43
0.0
10
-37.23235049989259
20
56.00216936185123
10
-26.385278499892589
20
56.002169361851216
10
-26.385278499892589
20
47.255097361851213
10
-37.23235049989259
20
47.255097361851213
0
CIRCLE
5
121
100
AcDbEntity
8
0
100
AcDbCircle
10
-20.848813499892586
20
59.683633361851214
30
0
40
0.5500000000000016
210
0
220
-0
230
1
0
CIRCLE
5
122
100
AcDbEntity
8
0
100
AcDbCircle
10
-4.5528134998925891
20
60.794633361851211
30
0
40
0.59999999999999998
210
0
220
-0
230
1
0
LWPOLYLINE
5
123
100
AcDbEntity
8
0
100
AcDbPolyline
90
4
70
1
43
0.0
10
-30.682350499892589
20
64.002169361851216
10
-29.535278499892588
20
64.002169361851216
10
-29.535278499892588
20
60.455097361851216
10
-30.682350499892589
20
60.455097361851216
0
CIRCLE
5
124
100
AcDbEntity
8
0
100
AcDbCircle
10
28.975186500107416
20
69.981879361851213
30
0
40
0.60000000000000053
210
0
220
-0
230
1
0
CIRCLE
5
125
100
AcDbEntity
8
0
100
AcDbCircle
10
12.211186500107413
20
77.481879361851213
30
0
40
0.60000000000000053
210
0
220
-0
230
1
0
CIRCLE
5
126
100
AcDbEntity
8
0
100
AcDbCircle
10
-22.996813499892589
20
80.750633361851229
30
0
40
0.89999900000000022
210
0
220
-0
230
1
0
CIRCLE
5
127
100
AcDbEntity
8
0
100
AcDbCircle
10
-30.308813499892587
20
74.378633361851215
30
0
40
0.40000000000000036
210
0
220
-0
230
1
0
CIRCLE
5
128
100
AcDbEntity
8
0
100
AcDbCircle
10
-4.5528134998925882
20
69.938633361851217
30
0
40
0.59999999999999998
210
0
220
-0
230
1
0
LWPOLYLINE
5
129
100
AcDbEntity
8
0
100
AcDbPolyline
90
4
70
1
43
0.0
10
-34.082350499892591
20
64.002169361851216
10
-32.93527849989259
20
64.002169361851216
10
-32.93527849989259
20
60.455097361851216
10
-34.082350499892591
20
60.455097361851216
0
CIRCLE
5
130
100
AcDbEntity
8
0
100
AcDbCircle
10
28.975186500107416
20
60.497387361851224
30
0
40
0.60000000000000053
210
0
220
-0
230
1
0
CIRCLE
5
131
100
AcDbEntity
8
0
100
AcDbCircle
10
12.211186500107411
20
53.251387361851215
30
0
40
0.60000000000000053
210
0
220
-0
230
1
0
CIRCLE
5
132
100
AcDbEntity
8
0
100
AcDbCircle
10
-7.3668134998925918
20
41.000633361851222
30
0
40
0.79999900000000013
210
0
220
-0
230
1
0
CIRCLE
5
133
100
AcDbEntity
8
0
100
AcDbCircle
10
3.003186500107407
20
22.500633361851214
30
0
40
1.3499989999999999
210
0
220
-0
230
1
0
CIRCLE
5
134
100
AcDbEntity
8
0
100
AcDbCircle
10
75.003186500107404
20
14.000633361851207
30
0
40
0.4750000000000032
210
0
220
-0
230
1
0
CIRCLE
5
135
100
AcDbEntity
8
0
100
AcDbCircle
10
68.479686500107405
20
3.6206333618512065
30
0
40
0.42500000000000426
210
0
220
-0
230
1
0
CIRCLE
5
136
100
AcDbEntity
8
0
100
AcDbCircle
10
58.319684500107414
20
3.6206323618512077
30
0
40
0.42500000000000426
210
0
220
-0
230
1
0
CIRCLE
5
137
100
AcDbEntity
8
0
100
AcDbCircle
10
58.319688500107404
20
-11.619365638148793
30
0
40
0.42500000000000426
210
0
220
-0
230
1
0
CIRCLE
5
138
100
AcDbEntity
8
0
100
AcDbCircle
10
72.083185500107419
20
-15.749366638148796
30
0
40
0.6499990000000011
210
0
220
-0
230
1
0
CIRCLE
5
139
100
AcDbEntity
8
0
100
AcDbCircle
10
67.003186500107404
20
-15.749366638148796
30
0
40
0.6499990000000011
210
0
220
-0
230
1
0
CIRCLE
5
140
100
AcDbEntity
8
0
100
AcDbCircle
10
65.939687500107425
20
-11.619366638148794
30
0
40
0.42500000000000426
210
0
220
-0
230
1
0
CIRCLE
5
141
100
AcDbEntity
8
0
100
AcDbCircle
10
68.479687500107403
20
-11.619362638148797
30
0
40
0.42500000000000426
210
0
220
-0
230
1
0
CIRCLE
5
142
100
AcDbEntity
8
0
100
AcDbCircle
10
65.939686500107399
20
3.6206333618512065
30
0
40
0.42500000000000426
210
0
220
-0
230
1
0
CIRCLE
5
143
100
AcDbEntity
8
0
100
AcDbCircle
10
70.003187500107401
20
14.000631361851205
30
0
40
0.4750000000000032
210
0
220
-0
230
1
0
CIRCLE
5
144
100
AcDbEntity
8
0
100
AcDbCircle
10
-1.9968134998925935
20
22.500633361851214
30
0
40
1.3499989999999999
210
0
220
-0
230
1
0
LWPOLYLINE
5
145
100
AcDbEntity
8
0
100
AcDbPolyline
90
4
70
1
43
0.0
10
3.2931865001074083
20
34.105633361851247
10
2.2931864997164104
20
34.105633361851254
42
-0.9999996450989469
10
2.2931865001074083
20
35.005633361851196
10
3.2931865002167471
20
35.005633361851189
42
-0.99999964541191089
0
CIRCLE
5
146
100
AcDbEntity
8
0
100
AcDbCircle
10
28.975186500107412
20
52.997387361851224
30
0
40
0.60000000000000053
210
0
220
-0
230
1
0
CIRCLE
5
147
100
AcDbEntity
8
0
100
AcDbCircle
10
-15.768814499892589
20
59.683633361851214
30
0
40
0.54999999999999927
210
0
220
-0
230
1
0
LWPOLYLINE
5
148
100
AcDbEntity
8
0
100
AcDbPolyline
90
4
70
1
43
0.0
10
-35.782350499892587
20
64.002169361851216
10
-34.635278499892586
20
64.002169361851216
10
-34.635278499892586
20
60.455097361851216
10
-35.782350499892587
20
60.455097361851216
0
LWPOLYLINE
5
149
100
AcDbEntity
8
0
100
AcDbPolyline
90
4
70
1
43
0.0
10
-28.98235049989259
20
64.002169361851216
10
-27.835278499892588
20
64.002169361851216
10
-27.835278499892588
20
60.455097361851216
10
-28.98235049989259
20
60.455097361851216
0
CIRCLE
5
150
100
AcDbEntity
8
0
100
AcDbCircle
10
-30.308813499892587
20
70.878633361851215
30
0
40
0.40000000000000036
210
0
220
-0
230
1
0
CIRCLE
5
151
100
AcDbEntity
8
0
100
AcDbCircle
10
28.975186500107416
20
77.481879361851213
30
0
40
0.60000000000000053
210
0
220
-0
230
1
0
CIRCLE
5
152
100
AcDbEntity
8
0
100
AcDbCircle
10
82.750215137561923
20
-21.509344357446626
30
0
40
1.6499999999999915
210
0
220
-0
230
1
0
CIRCLE
5
153
100
AcDbEntity
8
0
100
AcDbCircle
10
-82.750215137561881
20
21.509344357446579
30
0
40
1.6499999999999915
210
0
220
-0
230
1
0
CIRCLE
5
154
100
AcDbEntity
8
0
100
AcDbCircle
10
-49.864290956596307
20
69.453599528000751
30
0
40
1.6500000000000004
210
0
220
-0
230
1
0
CIRCLE
5
155
100
AcDbEntity
8
0
100
AcDbCircle
10
49.864290956596342
20
-69.453599528000765
30
0
40
1.6500000000000004
210
0
220
-0
230
1
0
CIRCLE
5
156
100
AcDbEntity
8
0
100
AcDbCircle
10
82.750215137561923
20
21.509344357446597
30
0
40
1.6499999999999915
210
0
220
-0
230
1
0
CIRCLE
5
157
100
AcDbEntity
8
0
100
AcDbCircle
10
-82.750215137561881
20
-21.509344357446647
30
0
40
1.6499999999999915
210
0
220
-0
230
1
0
CIRCLE
5
158
100
AcDbEntity
8
0
100
AcDbCircle
10
49.864290956596342
20
69.453599528000737
30
0
40
1.6500000000000004
210
0
220
-0
230
1
0
CIRCLE
5
159
100
AcDbEntity
8
0
100
AcDbCircle
10
-49.864290956596307
20
-69.453599528000765
30
0
40
1.6500000000000004
210
0
220
-0
230
1
0
CIRCLE
5
160
100
AcDbEntity
8
0
100
AcDbCircle
10
23.767221118146473
20
-31.157539002894687
30
0
40
1.6500000000000048
210
0
220
-0
230
1
0
CIRCLE
5
161
100
AcDbEntity
8
0
100
AcDbCircle
10
44.383464016826153
20
-45.298632621941223
30
0
40
1.6500000000000004
210
0
220
-0
230
1
0
CIRCLE
5
162
100
AcDbEntity
8
0
100
AcDbCircle
10
37.625804797538677
20
-10.953166196734681
30
0
40
1.6500000000000004
210
0
220
-0
230
1
0
CIRCLE
5
163
100
AcDbEntity
8
0
100
AcDbCircle
10
58.242047696218336
20
-25.094259815781214
30
0
40
1.6500000000000004
210
0
220
-0
230
1
0
CIRCLE
5
164
100
AcDbEntity
8
0
100
AcDbCircle
10
37.625804797538677
20
10.953166196734681
30
0
40
1.6500000000000004
210
0
220
-0
230
1
0
CIRCLE
5
165
100
AcDbEntity
8
0
100
AcDbCircle
10
58.242047696218336
20
25.094259815781214
30
0
40
1.6500000000000004
210
0
220
-0
230
1
0
CIRCLE
5
166
100
AcDbEntity
8
0
100
AcDbCircle
10
44.383464016826153
20
45.298632621941223
30
0
40
1.6500000000000004
210
0
220
-0
230
1
0
CIRCLE
5
167
100
AcDbEntity
8
0
100
AcDbCircle
10
23.767221118146473
20
31.157539002894687
30
0
40
1.6500000000000048
210
0
220
-0
230
1
0
CIRCLE
5
168
100
AcDbEntity
8
0
100
AcDbCircle
10
-44.38346401682616
20
45.298632621941209
30
0
40
1.6500000000000004
210
0
220
-0
230
1
0
CIRCLE
5
169
100
AcDbEntity
8
0
100
AcDbCircle
10
-23.76722111814648
20
31.15753900289468
30
0
40
1.6500000000000048
210
0
220
-0
230
1
0
CIRCLE
5
170
100
AcDbEntity
8
0
100
AcDbCircle
10
-58.24204769621835
20
25.0942598157812
30
0
40
1.6500000000000004
210
0
220
-0
230
1
0
CIRCLE
5
171
100
AcDbEntity
8
0
100
AcDbCircle
10
-37.625804797538677
20
10.953166196734671
30
0
40
1.6500000000000004
210
0
220
-0
230
1
0
CIRCLE
5
172
100
AcDbEntity
8
0
100
AcDbCircle
10
-58.24204769621835
20
-25.0942598157812
30
0
40
1.6500000000000004
210
0
220
-0
230
1
0
CIRCLE
5
173
100
AcDbEntity
8
0
100
AcDbCircle
10
-37.625804797538677
20
-10.953166196734671
30
0
40
1.6500000000000004
210
0
220
-0
230
1
0
CIRCLE
5
174
100
AcDbEntity
8
0
100
AcDbCircle
10
-44.38346401682616
20
-45.298632621941209
30
0
40
1.6500000000000004
210
0
220
-0
230
1
0
CIRCLE
5
175
100
AcDbEntity
8
0
100
AcDbCircle
10
-23.76722111814648
20
-31.15753900289468
30
0
40
1.6500000000000048
210
0
220
-0
230
1
0
CIRCLE
5
176
100
AcDbEntity
8
0
100
AcDbCircle
10
-16.64999999999997
20
-53.999999999999986
30
0
40
1.6500000000000004
210
0
220
-0
230
1
0
CIRCLE
5
177
100
AcDbEntity
8
0
100
AcDbCircle
10
-3.9999999999999725
20
-33.999999999999986
30
0
40
1.6500000000000004
210
0
220
-0
230
1
0
CIRCLE
5
178
100
AcDbEntity
8
0
100
AcDbCircle
10
4.0000000000000302
20
-33.999999999999986
30
0
40
1.6500000000000004
210
0
220
-0
230
1
0
CIRCLE
5
179
100
AcDbEntity
8
0
100
AcDbCircle
10
16.650000000000031
20
-53.999999999999986
30
0
40
1.6500000000000004
210
0
220
-0
230
1
0
CIRCLE
5
180
100
AcDbEntity
8
0
100
AcDbCircle
10
4.0000000000000231
20
-53.999999999999986
30
0
40
1.6500000000000004
210
0
220
-0
230
1
0
CIRCLE
5
181
100
AcDbEntity
8
0
100
AcDbCircle
10
-3.9999999999999791
20
-53.999999999999986
30
0
40
1.6500000000000004
210
0
220
-0
230
1
0
ENDSEC
0
SECTION
2
OBJECTS
0
DICTIONARY
5
C
100
AcDbDictionary
3
ACAD_GROUP
350
D
3
ACAD_MLINESTYLE
350
17
0
DICTIONARY
5
D
100
AcDbDictionary
0
DICTIONARY
5
1A
330
C
100
AcDbDictionary
0
DICTIONARY
5
17
100
AcDbDictionary
0
ENDSEC
0
EOF
