0
SECTION
2
HEADER
9
$INSUNITS
70
4
9
$ACADVER
1
AC1014
9
$HANDSEED
5
FFFF
0
ENDSEC
0
SECTION
2
TABLES
0
TABLE
2
VPORT
5
8
100
AcDbSymbolTable
0
ENDTAB
0
TABLE
2
LTYPE
5
5
100
AcDbSymbolTable
0
LTYPE
5
14
100
AcDbSymbolTableRecord
100
AcDbLinetypeTableRecord
2
BYBLOCK
70
0
0
LTYPE
5
15
100
AcDbSymbolTableRecord
100
AcDbLinetypeTableRecord
2
BYLAYER
70
0
0
LTYPE
5
16
100
AcDbSymbolTableRecord
100
AcDbLinetypeTableRecord
2
DASHED
70
0
3
Dashed __ __ __ __ __ __ __ __ __ __ __ __ __ _
72
65
73
2
40
0.75
49
0.5
74
0
49
-0.25
74
0
0
ENDTAB
0
TABLE
2
LAYER
5
2
100
AcDbSymbolTable
70
3
0
LAYER
5
50
100
AcDbSymbolTableRecord
100
AcDbLayerTableRecord
2
1
70
0
62
7
6
DASHED
0
LAYER
5
51
100
AcDbSymbolTableRecord
100
AcDbLayerTableRecord
2
0
70
0
62
7
6
CONTINUOUS
0
ENDTAB
0
TABLE
2
STYLE
5
3
100
AcDbSymbolTable
70
1
0
STYLE
5
11
100
AcDbSymbolTableRecord
100
AcDbTextStyleTableRecord
2
STANDARD
70
0
0
ENDTAB
0
TABLE
2
VIEW
5
6
100
AcDbSymbolTable
70
0
0
ENDTAB
0
TABLE
2
UCS
5
7
100
AcDbSymbolTable
70
0
0
ENDTAB
0
TABLE
2
APPID
5
9
100
AcDbSymbolTable
70
2
0
APPID
5
12
100
AcDbSymbolTableRecord
100
AcDbRegAppTableRecord
2
ACAD
70
0
0
ENDTAB
0
TABLE
2
DIMSTYLE
5
A
100
AcDbSymbolTable
70
1
0
ENDTAB
0
TABLE
2
BLOCK_RECORD
5
1
100
AcDbSymbolTable
70
1
0
BLOCK_RECORD
5
1F
100
AcDbSymbolTableRecord
100
AcDbBlockTableRecord
2
*MODEL_SPACE
0
BLOCK_RECORD
5
1B
100
AcDbSymbolTableRecord
100
AcDbBlockTableRecord
2
*PAPER_SPACE
0
ENDTAB
0
ENDSEC
0
SECTION
2
BLOCKS
0
BLOCK
5
20
100
AcDbEntity
100
AcDbBlockBegin
2
*MODEL_SPACE
0
ENDBLK
5
21
100
AcDbEntity
100
AcDbBlockEnd
0
BLOCK
5
1C
100
AcDbEntity
100
AcDbBlockBegin
2
*PAPER_SPACE
0
ENDBLK
5
1D
100
AcDbEntity
100
AcDbBlockEnd
0
ENDSEC
0
SECTION
2
ENTITIES
0
CIRCLE
5
100
100
AcDbEntity
8
0
100
AcDbCircle
10
37.24908930370637
20
69.563155958692064
30
0
40
1.6500000000000004
210
0
220
-0
230
1
0
CIRCLE
5
101
100
AcDbEntity
8
0
100
AcDbCircle
10
-30.500000000000007
20
-61.549999999999976
30
0
40
1.6500000000000004
210
0
220
-0
230
1
0
CIRCLE
5
102
100
AcDbEntity
8
0
100
AcDbCircle
10
-81.555625743926299
20
-23.293232074452497
30
0
40
1.6500000000000004
210
0
220
-0
230
1
0
CIRCLE
5
103
100
AcDbEntity
8
0
100
AcDbCircle
10
81.555625743926242
20
23.293232074452437
30
0
40
1.6499999999999915
210
0
220
-0
230
1
0
CIRCLE
5
104
100
AcDbEntity
8
0
100
AcDbCircle
10
-37.249089303706462
20
69.56315595869205
30
0
40
1.6500000000000004
210
0
220
-0
230
1
0
CIRCLE
5
105
100
AcDbEntity
8
0
100
AcDbCircle
10
30.499999999999993
20
-61.550000000000004
30
0
40
1.6500000000000004
210
0
220
-0
230
1
0
CIRCLE
5
106
100
AcDbEntity
8
0
100
AcDbCircle
10
-81.555625743926299
20
23.293232074452401
30
0
40
1.6500000000000004
210
0
220
-0
230
1
0
CIRCLE
5
107
100
AcDbEntity
8
0
100
AcDbCircle
10
81.555625743926242
20
-23.293232074452455
30
0
40
1.6499999999999915
210
0
220
-0
230
1
0
CIRCLE
5
108
100
AcDbEntity
8
0
100
AcDbCircle
10
21.323931462485252
20
-31.199298703983267
30
0
40
1.6500000000000024
210
0
220
-0
230
1
0
CIRCLE
5
109
100
AcDbEntity
8
0
100
AcDbCircle
10
41.359606913635865
20
-46.15161321432447
30
0
40
1.6500000000000004
210
0
220
-0
230
1
0
CIRCLE
5
110
100
AcDbEntity
8
0
100
AcDbCircle
10
35.977529509743285
20
-11.563894802906807
30
0
40
1.6500000000000004
210
0
220
-0
230
1
0
CIRCLE
5
111
100
AcDbEntity
8
0
100
AcDbCircle
10
56.013204960893866
20
-26.516209313247995
30
0
40
1.6500000000000004
210
0
220
-0
230
1
0
CIRCLE
5
112
100
AcDbEntity
8
0
100
AcDbCircle
10
35.977529509743285
20
11.563894802906807
30
0
40
1.6500000000000004
210
0
220
-0
230
1
0
CIRCLE
5
113
100
AcDbEntity
8
0
100
AcDbCircle
10
56.013204960893866
20
26.516209313247995
30
0
40
1.6500000000000004
210
0
220
-0
230
1
0
CIRCLE
5
114
100
AcDbEntity
8
0
100
AcDbCircle
10
41.359606913635865
20
46.15161321432447
30
0
40
1.6500000000000004
210
0
220
-0
230
1
0
CIRCLE
5
115
100
AcDbEntity
8
0
100
AcDbCircle
10
21.323931462485252
20
31.199298703983267
30
0
40
1.6500000000000024
210
0
220
-0
230
1
0
CIRCLE
5
116
100
AcDbEntity
8
0
100
AcDbCircle
10
-41.359606913635872
20
46.151613214324463
30
0
40
1.6500000000000004
210
0
220
-0
230
1
0
CIRCLE
5
117
100
AcDbEntity
8
0
100
AcDbCircle
10
-21.323931462485263
20
31.199298703983263
30
0
40
1.6500000000000024
210
0
220
-0
230
1
0
CIRCLE
5
118
100
AcDbEntity
8
0
100
AcDbCircle
10
-56.013204960893873
20
26.51620931324798
30
0
40
1.6500000000000004
210
0
220
-0
230
1
0
CIRCLE
5
119
100
AcDbEntity
8
0
100
AcDbCircle
10
-35.977529509743292
20
11.563894802906798
30
0
40
1.6500000000000004
210
0
220
-0
230
1
0
CIRCLE
5
120
100
AcDbEntity
8
0
100
AcDbCircle
10
-56.013204960893873
20
-26.51620931324798
30
0
40
1.6500000000000004
210
0
220
-0
230
1
0
CIRCLE
5
121
100
AcDbEntity
8
0
100
AcDbCircle
10
-35.977529509743292
20
-11.563894802906798
30
0
40
1.6500000000000004
210
0
220
-0
230
1
0
CIRCLE
5
122
100
AcDbEntity
8
0
100
AcDbCircle
10
-41.359606913635872
20
-46.151613214324463
30
0
40
1.6500000000000004
210
0
220
-0
230
1
0
CIRCLE
5
123
100
AcDbEntity
8
0
100
AcDbCircle
10
-21.323931462485263
20
-31.199298703983263
30
0
40
1.6500000000000024
210
0
220
-0
230
1
0
LWPOLYLINE
5
124
100
AcDbEntity
8
0
100
AcDbPolyline
90
40
70
1
43
0.0
10
-37.404274425775554
20
-81.859148875866467
42
0.37526903976893172
10
-33.62109422861888
20
-80.732641004968016
10
-30.882981761135749
20
-76.397869575036196
42
-0.25731889950230524
10
-28.346610711504916
20
-74.999999999999972
10
28.346610711504894
20
-74.999999999999986
42
-0.2573188995023018
10
30.882981761135717
20
-76.397869575036182
10
33.621094228618929
20
-80.732641004968016
42
0.37526903976891712
10
37.404274425775618
20
-81.859148875866467
42
0.053952477519885217
10
54.05078203831696
20
-71.961885474509046
42
0.50052406485224121
10
54.043367044947331
20
-67.158874904553997
10
42.238831602782547
20
-58.349332795027415
42
-0.41421356237309209
10
41.628828289885433
20
-54.150773999648408
10
63.758253765164845
20
-24.497974331979762
42
-0.41421356237307455
10
67.956812560543696
20
-23.887971019082521
10
79.761348002685452
20
-32.697513128590629
42
0.50052406485260781
10
84.367888700613364
20
-31.337826283916321
42
0.1797224621886821
10
84.367888700613378
20
31.337826283916289
42
0.50052406485261158
10
79.761348002685452
20
32.697513128590636
10
67.956812560543696
20
23.887971019082521
42
-0.41421356237307488
10
63.758253765164845
20
24.497974331979762
10
41.62882828988544
20
54.150773999648393
42
-0.41421356237309265
10
42.238831602782554
20
58.349332795027408
10
54.043367044947331
20
67.158874904553997
42
0.50052406485224155
10
54.050782038316953
20
71.961885474509046
42
0.33372531987980564
10
-54.05078203831701
20
71.961885474509003
42
0.50052406485223955
10
-54.043367044947352
20
67.158874904553983
10
-42.238831602782568
20
58.349332795027387
42
-0.41421356237309265
10
-41.628828289885448
20
54.150773999648379
10
-63.758253765164838
20
24.497974331979755
42
-0.41421356237307544
10
-67.956812560543696
20
23.887971019082499
10
-79.761348002685466
20
32.697513128590614
42
0.50052406485260581
10
-84.367888700613364
20
31.337826283916304
42
0.17972246218868199
10
-84.367888700613364
20
-31.337826283916304
42
0.50052406485260614
10
-79.761348002685452
20
-32.697513128590614
10
-67.95681256054371
20
-23.887971019082499
42
-0.41421356237307638
10
-63.758253765164838
20
-24.497974331979758
10
-41.628828289885462
20
-54.150773999648379
42
-0.41421356237309315
10
-42.238831602782568
20
-58.349332795027387
10
-54.043367044947352
20
-67.158874904553983
42
0.50052406485224532
10
-54.05078203831696
20
-71.961885474509032
42
0.053952477519885605
0
CIRCLE
5
125
100
AcDbEntity
8
0
100
AcDbCircle
10
5.2999999999999954
20
-58.799999999999983
30
0
40
1.5000000000000002
210
0
220
0
230
1
0
CIRCLE
5
126
100
AcDbEntity
8
0
100
AcDbCircle
10
-5.2000000000000046
20
-58.799999999999969
30
0
40
1.4999999999999991
210
0
220
0
230
1
0
CIRCLE
5
127
100
AcDbEntity
8
0
100
AcDbCircle
10
-5.1999999999999975
20
-36.499999999999972
30
0
40
1.4999999999999991
210
0
220
0
230
1
0
CIRCLE
5
128
100
AcDbEntity
8
0
100
AcDbCircle
10
5.3000000000000007
20
-36.499999999999979
30
0
40
1.5000000000000036
210
0
220
0
230
1
0
CIRCLE
5
129
100
AcDbEntity
8
0
100
AcDbCircle
10
5.2999999999999954
20
-58.799999999999983
30
0
40
1.6500000000000004
210
0
220
0
230
1
0
CIRCLE
5
130
100
AcDbEntity
8
0
100
AcDbCircle
10
-5.2000000000000046
20
-58.799999999999969
30
0
40
1.6500000000000004
210
0
220
0
230
1
0
CIRCLE
5
131
100
AcDbEntity
8
0
100
AcDbCircle
10
5.3000000000000007
20
-36.499999999999979
30
0
40
1.6500000000000004
210
0
220
0
230
1
0
CIRCLE
5
132
100
AcDbEntity
8
0
100
AcDbCircle
10
-5.1999999999999975
20
-36.499999999999972
30
0
40
1.6500000000000004
210
0
220
0
230
1
0
ENDSEC
0
SECTION
2
OBJECTS
0
DICTIONARY
5
C
100
AcDbDictionary
3
ACAD_GROUP
350
D
3
ACAD_MLINESTYLE
350
17
0
DICTIONARY
5
D
100
AcDbDictionary
0
DICTIONARY
5
1A
330
C
100
AcDbDictionary
0
DICTIONARY
5
17
100
AcDbDictionary
0
ENDSEC
0
EOF
