ISO-10303-21;
HEADER;
/* Generated by software containing ST-Developer
 * from STEP Tools, Inc. (www.steptools.com) 
 */

FILE_DESCRIPTION(
/* description */ ('',
'CAx-IF Rec.Pracs.---Representation and Presentation of Product Manufa
cturing Information (PMI)---4.0---2014-10-13'),
/* implementation_level */ '2;1');

FILE_NAME(
/* name */ 'KICK SURFACE.step',
/* time_stamp */ '2025-03-25T19:09:57+08:00',
/* author */ (''),
/* organization */ (''),
/* preprocessor_version */ 'ST-DEVELOPER v20',
/* originating_system */ 'Autodesk Translation Framework v13.20.0.188',

/* authorisation */ '');

FILE_SCHEMA (('AP242_MANAGED_MODEL_BASED_3D_ENGINEERING_MIM_LF { 1 0 10303 442 1 1 4 }'));
ENDSEC;

DATA;
#10=MECHANICAL_DESIGN_GEOMETRIC_PRESENTATION_REPRESENTATION('',(#13),#1398);
#11=SHAPE_REPRESENTATION_RELATIONSHIP('SRR','None',#1405,#12);
#12=ADVANCED_BREP_SHAPE_REPRESENTATION('',(#14),#1397);
#13=STYLED_ITEM('',(#1415),#14);
#14=MANIFOLD_SOLID_BREP('Body1',#824);
#15=B_SPLINE_CURVE_WITH_KNOTS('',3,(#1356,#1357,#1358,#1359),
 .UNSPECIFIED.,.F.,.F.,(4,4),(2.06393609174294,2.08418538653461),
 .UNSPECIFIED.);
#16=B_SPLINE_CURVE_WITH_KNOTS('',3,(#1367,#1368,#1369,#1370),
 .UNSPECIFIED.,.F.,.F.,(4,4),(0.,0.0202492947916515),.UNSPECIFIED.);
#17=ELLIPSE('',#882,4.94974746830585,3.5);
#18=ELLIPSE('',#883,4.94974746830585,3.5);
#19=ELLIPSE('',#890,4.94974746830583,3.5);
#20=ELLIPSE('',#895,4.94974746830583,3.5);
#21=FACE_BOUND('',#104,.T.);
#22=FACE_BOUND('',#107,.T.);
#23=FACE_BOUND('',#129,.T.);
#24=FACE_BOUND('',#130,.T.);
#25=FACE_BOUND('',#131,.T.);
#26=FACE_BOUND('',#136,.T.);
#27=FACE_BOUND('',#145,.T.);
#28=FACE_BOUND('',#149,.T.);
#29=FACE_BOUND('',#150,.T.);
#30=PLANE('',#841);
#31=PLANE('',#846);
#32=PLANE('',#855);
#33=PLANE('',#859);
#34=PLANE('',#869);
#35=PLANE('',#873);
#36=PLANE('',#874);
#37=PLANE('',#875);
#38=PLANE('',#876);
#39=PLANE('',#877);
#40=PLANE('',#878);
#41=PLANE('',#879);
#42=PLANE('',#880);
#43=PLANE('',#881);
#44=PLANE('',#884);
#45=PLANE('',#885);
#46=PLANE('',#886);
#47=PLANE('',#889);
#48=PLANE('',#891);
#49=PLANE('',#894);
#50=PLANE('',#898);
#51=PLANE('',#907);
#52=PLANE('',#909);
#53=PLANE('',#910);
#54=PLANE('',#911);
#55=PLANE('',#912);
#56=PLANE('',#914);
#57=PLANE('',#915);
#58=FACE_OUTER_BOUND('',#102,.T.);
#59=FACE_OUTER_BOUND('',#103,.T.);
#60=FACE_OUTER_BOUND('',#105,.T.);
#61=FACE_OUTER_BOUND('',#106,.T.);
#62=FACE_OUTER_BOUND('',#108,.T.);
#63=FACE_OUTER_BOUND('',#109,.T.);
#64=FACE_OUTER_BOUND('',#110,.T.);
#65=FACE_OUTER_BOUND('',#111,.T.);
#66=FACE_OUTER_BOUND('',#112,.T.);
#67=FACE_OUTER_BOUND('',#113,.T.);
#68=FACE_OUTER_BOUND('',#114,.T.);
#69=FACE_OUTER_BOUND('',#115,.T.);
#70=FACE_OUTER_BOUND('',#116,.T.);
#71=FACE_OUTER_BOUND('',#117,.T.);
#72=FACE_OUTER_BOUND('',#118,.T.);
#73=FACE_OUTER_BOUND('',#119,.T.);
#74=FACE_OUTER_BOUND('',#120,.T.);
#75=FACE_OUTER_BOUND('',#121,.T.);
#76=FACE_OUTER_BOUND('',#122,.T.);
#77=FACE_OUTER_BOUND('',#123,.T.);
#78=FACE_OUTER_BOUND('',#124,.T.);
#79=FACE_OUTER_BOUND('',#125,.T.);
#80=FACE_OUTER_BOUND('',#126,.T.);
#81=FACE_OUTER_BOUND('',#127,.T.);
#82=FACE_OUTER_BOUND('',#128,.T.);
#83=FACE_OUTER_BOUND('',#132,.T.);
#84=FACE_OUTER_BOUND('',#133,.T.);
#85=FACE_OUTER_BOUND('',#134,.T.);
#86=FACE_OUTER_BOUND('',#135,.T.);
#87=FACE_OUTER_BOUND('',#137,.T.);
#88=FACE_OUTER_BOUND('',#138,.T.);
#89=FACE_OUTER_BOUND('',#139,.T.);
#90=FACE_OUTER_BOUND('',#140,.T.);
#91=FACE_OUTER_BOUND('',#141,.T.);
#92=FACE_OUTER_BOUND('',#142,.T.);
#93=FACE_OUTER_BOUND('',#143,.T.);
#94=FACE_OUTER_BOUND('',#144,.T.);
#95=FACE_OUTER_BOUND('',#146,.T.);
#96=FACE_OUTER_BOUND('',#147,.T.);
#97=FACE_OUTER_BOUND('',#148,.T.);
#98=FACE_OUTER_BOUND('',#151,.T.);
#99=FACE_OUTER_BOUND('',#152,.T.);
#100=FACE_OUTER_BOUND('',#153,.T.);
#101=FACE_OUTER_BOUND('',#154,.T.);
#102=EDGE_LOOP('',(#534,#535,#536,#537));
#103=EDGE_LOOP('',(#538));
#104=EDGE_LOOP('',(#539));
#105=EDGE_LOOP('',(#540,#541,#542,#543));
#106=EDGE_LOOP('',(#544));
#107=EDGE_LOOP('',(#545));
#108=EDGE_LOOP('',(#546,#547,#548,#549));
#109=EDGE_LOOP('',(#550,#551,#552,#553));
#110=EDGE_LOOP('',(#554,#555,#556,#557));
#111=EDGE_LOOP('',(#558,#559,#560,#561));
#112=EDGE_LOOP('',(#562,#563,#564,#565));
#113=EDGE_LOOP('',(#566,#567,#568,#569));
#114=EDGE_LOOP('',(#570,#571,#572,#573));
#115=EDGE_LOOP('',(#574,#575,#576,#577));
#116=EDGE_LOOP('',(#578,#579,#580,#581));
#117=EDGE_LOOP('',(#582,#583,#584,#585));
#118=EDGE_LOOP('',(#586,#587,#588,#589));
#119=EDGE_LOOP('',(#590,#591,#592,#593));
#120=EDGE_LOOP('',(#594,#595,#596,#597));
#121=EDGE_LOOP('',(#598,#599,#600,#601));
#122=EDGE_LOOP('',(#602,#603,#604,#605));
#123=EDGE_LOOP('',(#606,#607,#608,#609));
#124=EDGE_LOOP('',(#610,#611,#612,#613));
#125=EDGE_LOOP('',(#614,#615,#616,#617));
#126=EDGE_LOOP('',(#618,#619,#620,#621,#622,#623));
#127=EDGE_LOOP('',(#624,#625,#626,#627));
#128=EDGE_LOOP('',(#628,#629,#630,#631,#632,#633,#634,#635));
#129=EDGE_LOOP('',(#636));
#130=EDGE_LOOP('',(#637));
#131=EDGE_LOOP('',(#638,#639,#640,#641,#642,#643));
#132=EDGE_LOOP('',(#644,#645,#646,#647));
#133=EDGE_LOOP('',(#648,#649,#650,#651,#652,#653));
#134=EDGE_LOOP('',(#654,#655,#656,#657,#658));
#135=EDGE_LOOP('',(#659,#660,#661,#662));
#136=EDGE_LOOP('',(#663));
#137=EDGE_LOOP('',(#664,#665,#666,#667,#668));
#138=EDGE_LOOP('',(#669,#670,#671,#672,#673));
#139=EDGE_LOOP('',(#674,#675,#676,#677,#678));
#140=EDGE_LOOP('',(#679,#680,#681,#682,#683));
#141=EDGE_LOOP('',(#684,#685,#686,#687,#688,#689));
#142=EDGE_LOOP('',(#690,#691,#692,#693,#694,#695));
#143=EDGE_LOOP('',(#696,#697,#698,#699,#700,#701));
#144=EDGE_LOOP('',(#702,#703,#704,#705));
#145=EDGE_LOOP('',(#706));
#146=EDGE_LOOP('',(#707,#708,#709,#710));
#147=EDGE_LOOP('',(#711,#712,#713,#714,#715,#716,#717,#718,#719,#720,#721,
#722));
#148=EDGE_LOOP('',(#723,#724,#725,#726));
#149=EDGE_LOOP('',(#727));
#150=EDGE_LOOP('',(#728));
#151=EDGE_LOOP('',(#729,#730,#731,#732,#733));
#152=EDGE_LOOP('',(#734,#735,#736,#737));
#153=EDGE_LOOP('',(#738,#739,#740,#741,#742,#743,#744,#745,#746,#747,#748,
#749,#750,#751,#752,#753,#754,#755,#756,#757));
#154=EDGE_LOOP('',(#758,#759,#760,#761,#762,#763));
#155=LINE('',#1158,#234);
#156=LINE('',#1167,#235);
#157=LINE('',#1175,#236);
#158=LINE('',#1179,#237);
#159=LINE('',#1185,#238);
#160=LINE('',#1188,#239);
#161=LINE('',#1191,#240);
#162=LINE('',#1193,#241);
#163=LINE('',#1194,#242);
#164=LINE('',#1199,#243);
#165=LINE('',#1203,#244);
#166=LINE('',#1205,#245);
#167=LINE('',#1206,#246);
#168=LINE('',#1211,#247);
#169=LINE('',#1218,#248);
#170=LINE('',#1221,#249);
#171=LINE('',#1227,#250);
#172=LINE('',#1230,#251);
#173=LINE('',#1233,#252);
#174=LINE('',#1235,#253);
#175=LINE('',#1236,#254);
#176=LINE('',#1241,#255);
#177=LINE('',#1244,#256);
#178=LINE('',#1245,#257);
#179=LINE('',#1249,#258);
#180=LINE('',#1251,#259);
#181=LINE('',#1253,#260);
#182=LINE('',#1254,#261);
#183=LINE('',#1257,#262);
#184=LINE('',#1259,#263);
#185=LINE('',#1260,#264);
#186=LINE('',#1263,#265);
#187=LINE('',#1265,#266);
#188=LINE('',#1266,#267);
#189=LINE('',#1269,#268);
#190=LINE('',#1271,#269);
#191=LINE('',#1272,#270);
#192=LINE('',#1275,#271);
#193=LINE('',#1277,#272);
#194=LINE('',#1278,#273);
#195=LINE('',#1280,#274);
#196=LINE('',#1281,#275);
#197=LINE('',#1288,#276);
#198=LINE('',#1291,#277);
#199=LINE('',#1294,#278);
#200=LINE('',#1296,#279);
#201=LINE('',#1297,#280);
#202=LINE('',#1298,#281);
#203=LINE('',#1299,#282);
#204=LINE('',#1303,#283);
#205=LINE('',#1305,#284);
#206=LINE('',#1307,#285);
#207=LINE('',#1308,#286);
#208=LINE('',#1312,#287);
#209=LINE('',#1314,#288);
#210=LINE('',#1318,#289);
#211=LINE('',#1320,#290);
#212=LINE('',#1323,#291);
#213=LINE('',#1326,#292);
#214=LINE('',#1329,#293);
#215=LINE('',#1334,#294);
#216=LINE('',#1336,#295);
#217=LINE('',#1339,#296);
#218=LINE('',#1342,#297);
#219=LINE('',#1346,#298);
#220=LINE('',#1347,#299);
#221=LINE('',#1351,#300);
#222=LINE('',#1360,#301);
#223=LINE('',#1363,#302);
#224=LINE('',#1371,#303);
#225=LINE('',#1374,#304);
#226=LINE('',#1377,#305);
#227=LINE('',#1378,#306);
#228=LINE('',#1380,#307);
#229=LINE('',#1384,#308);
#230=LINE('',#1386,#309);
#231=LINE('',#1388,#310);
#232=LINE('',#1390,#311);
#233=LINE('',#1392,#312);
#234=VECTOR('',#922,2.85);
#235=VECTOR('',#933,2.85);
#236=VECTOR('',#944,1.65);
#237=VECTOR('',#949,1.65);
#238=VECTOR('',#954,10.);
#239=VECTOR('',#957,10.);
#240=VECTOR('',#960,10.);
#241=VECTOR('',#961,10.);
#242=VECTOR('',#962,10.);
#243=VECTOR('',#967,10.);
#244=VECTOR('',#972,10.);
#245=VECTOR('',#973,10.);
#246=VECTOR('',#974,10.);
#247=VECTOR('',#979,10.);
#248=VECTOR('',#986,10.);
#249=VECTOR('',#989,10.);
#250=VECTOR('',#994,10.);
#251=VECTOR('',#997,10.);
#252=VECTOR('',#1000,10.);
#253=VECTOR('',#1001,10.);
#254=VECTOR('',#1002,10.);
#255=VECTOR('',#1007,10.);
#256=VECTOR('',#1012,10.);
#257=VECTOR('',#1013,10.);
#258=VECTOR('',#1016,10.);
#259=VECTOR('',#1017,10.);
#260=VECTOR('',#1018,10.);
#261=VECTOR('',#1019,10.);
#262=VECTOR('',#1022,10.);
#263=VECTOR('',#1023,10.);
#264=VECTOR('',#1024,10.);
#265=VECTOR('',#1027,10.);
#266=VECTOR('',#1028,10.);
#267=VECTOR('',#1029,10.);
#268=VECTOR('',#1032,10.);
#269=VECTOR('',#1033,10.);
#270=VECTOR('',#1034,10.);
#271=VECTOR('',#1037,10.);
#272=VECTOR('',#1038,10.);
#273=VECTOR('',#1039,10.);
#274=VECTOR('',#1042,10.);
#275=VECTOR('',#1043,10.);
#276=VECTOR('',#1050,10.);
#277=VECTOR('',#1053,10.);
#278=VECTOR('',#1056,10.);
#279=VECTOR('',#1057,10.);
#280=VECTOR('',#1058,10.);
#281=VECTOR('',#1059,10.);
#282=VECTOR('',#1060,10.);
#283=VECTOR('',#1063,10.);
#284=VECTOR('',#1064,10.);
#285=VECTOR('',#1065,10.);
#286=VECTOR('',#1066,10.);
#287=VECTOR('',#1071,10.);
#288=VECTOR('',#1072,10.);
#289=VECTOR('',#1077,10.);
#290=VECTOR('',#1078,10.);
#291=VECTOR('',#1081,10.);
#292=VECTOR('',#1084,10.);
#293=VECTOR('',#1087,10.);
#294=VECTOR('',#1092,10.);
#295=VECTOR('',#1093,10.);
#296=VECTOR('',#1096,10.);
#297=VECTOR('',#1099,10.);
#298=VECTOR('',#1104,10.);
#299=VECTOR('',#1105,10.);
#300=VECTOR('',#1110,10.);
#301=VECTOR('',#1115,10.);
#302=VECTOR('',#1118,10.);
#303=VECTOR('',#1121,10.);
#304=VECTOR('',#1124,10.);
#305=VECTOR('',#1127,10.);
#306=VECTOR('',#1128,10.);
#307=VECTOR('',#1131,10.);
#308=VECTOR('',#1136,10.);
#309=VECTOR('',#1139,10.);
#310=VECTOR('',#1142,10.);
#311=VECTOR('',#1145,10.);
#312=VECTOR('',#1148,1.65);
#313=CIRCLE('',#839,2.85);
#314=CIRCLE('',#840,2.85);
#315=CIRCLE('',#842,1.65);
#316=CIRCLE('',#844,2.85);
#317=CIRCLE('',#845,2.85);
#318=CIRCLE('',#847,1.65);
#319=CIRCLE('',#849,1.65);
#320=CIRCLE('',#851,1.65);
#321=CIRCLE('',#853,3.);
#322=CIRCLE('',#854,3.);
#323=CIRCLE('',#857,1.85);
#324=CIRCLE('',#858,1.85);
#325=CIRCLE('',#861,6.7);
#326=CIRCLE('',#862,6.7);
#327=CIRCLE('',#864,3.);
#328=CIRCLE('',#865,3.);
#329=CIRCLE('',#867,6.7);
#330=CIRCLE('',#868,6.7);
#331=CIRCLE('',#871,1.85);
#332=CIRCLE('',#872,1.85);
#333=CIRCLE('',#887,3.5);
#334=CIRCLE('',#888,3.5);
#335=CIRCLE('',#892,2.9999996510053);
#336=CIRCLE('',#893,1.65);
#337=CIRCLE('',#897,3.5);
#338=CIRCLE('',#900,3.5);
#339=CIRCLE('',#902,3.5);
#340=CIRCLE('',#904,2.9999996510053);
#341=CIRCLE('',#906,3.5);
#342=CIRCLE('',#908,1.65);
#343=VERTEX_POINT('',#1155);
#344=VERTEX_POINT('',#1157);
#345=VERTEX_POINT('',#1161);
#346=VERTEX_POINT('',#1164);
#347=VERTEX_POINT('',#1166);
#348=VERTEX_POINT('',#1170);
#349=VERTEX_POINT('',#1173);
#350=VERTEX_POINT('',#1177);
#351=VERTEX_POINT('',#1181);
#352=VERTEX_POINT('',#1182);
#353=VERTEX_POINT('',#1184);
#354=VERTEX_POINT('',#1186);
#355=VERTEX_POINT('',#1190);
#356=VERTEX_POINT('',#1192);
#357=VERTEX_POINT('',#1196);
#358=VERTEX_POINT('',#1198);
#359=VERTEX_POINT('',#1202);
#360=VERTEX_POINT('',#1204);
#361=VERTEX_POINT('',#1208);
#362=VERTEX_POINT('',#1210);
#363=VERTEX_POINT('',#1214);
#364=VERTEX_POINT('',#1215);
#365=VERTEX_POINT('',#1217);
#366=VERTEX_POINT('',#1219);
#367=VERTEX_POINT('',#1223);
#368=VERTEX_POINT('',#1224);
#369=VERTEX_POINT('',#1226);
#370=VERTEX_POINT('',#1228);
#371=VERTEX_POINT('',#1232);
#372=VERTEX_POINT('',#1234);
#373=VERTEX_POINT('',#1238);
#374=VERTEX_POINT('',#1240);
#375=VERTEX_POINT('',#1247);
#376=VERTEX_POINT('',#1248);
#377=VERTEX_POINT('',#1250);
#378=VERTEX_POINT('',#1252);
#379=VERTEX_POINT('',#1256);
#380=VERTEX_POINT('',#1258);
#381=VERTEX_POINT('',#1262);
#382=VERTEX_POINT('',#1264);
#383=VERTEX_POINT('',#1268);
#384=VERTEX_POINT('',#1270);
#385=VERTEX_POINT('',#1274);
#386=VERTEX_POINT('',#1276);
#387=VERTEX_POINT('',#1284);
#388=VERTEX_POINT('',#1285);
#389=VERTEX_POINT('',#1287);
#390=VERTEX_POINT('',#1289);
#391=VERTEX_POINT('',#1293);
#392=VERTEX_POINT('',#1295);
#393=VERTEX_POINT('',#1301);
#394=VERTEX_POINT('',#1302);
#395=VERTEX_POINT('',#1304);
#396=VERTEX_POINT('',#1306);
#397=VERTEX_POINT('',#1310);
#398=VERTEX_POINT('',#1313);
#399=VERTEX_POINT('',#1317);
#400=VERTEX_POINT('',#1319);
#401=VERTEX_POINT('',#1321);
#402=VERTEX_POINT('',#1325);
#403=VERTEX_POINT('',#1327);
#404=VERTEX_POINT('',#1330);
#405=VERTEX_POINT('',#1333);
#406=VERTEX_POINT('',#1335);
#407=VERTEX_POINT('',#1337);
#408=VERTEX_POINT('',#1341);
#409=VERTEX_POINT('',#1345);
#410=VERTEX_POINT('',#1349);
#411=VERTEX_POINT('',#1353);
#412=VERTEX_POINT('',#1355);
#413=VERTEX_POINT('',#1362);
#414=VERTEX_POINT('',#1364);
#415=VERTEX_POINT('',#1366);
#416=VERTEX_POINT('',#1373);
#417=VERTEX_POINT('',#1375);
#418=VERTEX_POINT('',#1381);
#419=EDGE_CURVE('',#343,#343,#313,.T.);
#420=EDGE_CURVE('',#343,#344,#155,.T.);
#421=EDGE_CURVE('',#344,#344,#314,.T.);
#422=EDGE_CURVE('',#345,#345,#315,.T.);
#423=EDGE_CURVE('',#346,#346,#316,.T.);
#424=EDGE_CURVE('',#346,#347,#156,.T.);
#425=EDGE_CURVE('',#347,#347,#317,.T.);
#426=EDGE_CURVE('',#348,#348,#318,.T.);
#427=EDGE_CURVE('',#349,#349,#319,.T.);
#428=EDGE_CURVE('',#349,#348,#157,.T.);
#429=EDGE_CURVE('',#350,#350,#320,.T.);
#430=EDGE_CURVE('',#350,#345,#158,.T.);
#431=EDGE_CURVE('',#351,#352,#321,.T.);
#432=EDGE_CURVE('',#353,#352,#159,.T.);
#433=EDGE_CURVE('',#353,#354,#322,.T.);
#434=EDGE_CURVE('',#351,#354,#160,.T.);
#435=EDGE_CURVE('',#352,#355,#161,.T.);
#436=EDGE_CURVE('',#356,#355,#162,.T.);
#437=EDGE_CURVE('',#356,#353,#163,.T.);
#438=EDGE_CURVE('',#355,#357,#323,.T.);
#439=EDGE_CURVE('',#358,#357,#164,.T.);
#440=EDGE_CURVE('',#356,#358,#324,.T.);
#441=EDGE_CURVE('',#357,#359,#165,.T.);
#442=EDGE_CURVE('',#360,#359,#166,.T.);
#443=EDGE_CURVE('',#358,#360,#167,.T.);
#444=EDGE_CURVE('',#359,#361,#325,.T.);
#445=EDGE_CURVE('',#362,#361,#168,.T.);
#446=EDGE_CURVE('',#360,#362,#326,.T.);
#447=EDGE_CURVE('',#363,#364,#327,.T.);
#448=EDGE_CURVE('',#365,#364,#169,.T.);
#449=EDGE_CURVE('',#365,#366,#328,.T.);
#450=EDGE_CURVE('',#366,#363,#170,.T.);
#451=EDGE_CURVE('',#367,#368,#329,.T.);
#452=EDGE_CURVE('',#369,#368,#171,.T.);
#453=EDGE_CURVE('',#370,#369,#330,.T.);
#454=EDGE_CURVE('',#367,#370,#172,.T.);
#455=EDGE_CURVE('',#368,#371,#173,.T.);
#456=EDGE_CURVE('',#372,#371,#174,.T.);
#457=EDGE_CURVE('',#369,#372,#175,.T.);
#458=EDGE_CURVE('',#371,#373,#331,.T.);
#459=EDGE_CURVE('',#374,#373,#176,.T.);
#460=EDGE_CURVE('',#372,#374,#332,.T.);
#461=EDGE_CURVE('',#373,#363,#177,.T.);
#462=EDGE_CURVE('',#366,#374,#178,.T.);
#463=EDGE_CURVE('',#375,#376,#179,.T.);
#464=EDGE_CURVE('',#375,#377,#180,.T.);
#465=EDGE_CURVE('',#377,#378,#181,.T.);
#466=EDGE_CURVE('',#376,#378,#182,.T.);
#467=EDGE_CURVE('',#379,#375,#183,.T.);
#468=EDGE_CURVE('',#379,#380,#184,.T.);
#469=EDGE_CURVE('',#380,#377,#185,.T.);
#470=EDGE_CURVE('',#381,#379,#186,.T.);
#471=EDGE_CURVE('',#381,#382,#187,.T.);
#472=EDGE_CURVE('',#382,#380,#188,.T.);
#473=EDGE_CURVE('',#383,#381,#189,.T.);
#474=EDGE_CURVE('',#383,#384,#190,.T.);
#475=EDGE_CURVE('',#384,#382,#191,.T.);
#476=EDGE_CURVE('',#385,#383,#192,.T.);
#477=EDGE_CURVE('',#385,#386,#193,.T.);
#478=EDGE_CURVE('',#386,#384,#194,.T.);
#479=EDGE_CURVE('',#376,#385,#195,.T.);
#480=EDGE_CURVE('',#378,#386,#196,.T.);
#481=EDGE_CURVE('',#387,#388,#17,.T.);
#482=EDGE_CURVE('',#388,#389,#197,.T.);
#483=EDGE_CURVE('',#389,#390,#18,.T.);
#484=EDGE_CURVE('',#390,#387,#198,.T.);
#485=EDGE_CURVE('',#389,#391,#199,.T.);
#486=EDGE_CURVE('',#392,#388,#200,.T.);
#487=EDGE_CURVE('',#392,#362,#201,.T.);
#488=EDGE_CURVE('',#361,#367,#202,.T.);
#489=EDGE_CURVE('',#370,#391,#203,.T.);
#490=EDGE_CURVE('',#393,#394,#204,.T.);
#491=EDGE_CURVE('',#394,#395,#205,.T.);
#492=EDGE_CURVE('',#396,#395,#206,.F.);
#493=EDGE_CURVE('',#396,#393,#207,.T.);
#494=EDGE_CURVE('',#397,#390,#333,.T.);
#495=EDGE_CURVE('',#393,#397,#208,.T.);
#496=EDGE_CURVE('',#398,#396,#209,.T.);
#497=EDGE_CURVE('',#387,#398,#334,.T.);
#498=EDGE_CURVE('',#395,#399,#210,.T.);
#499=EDGE_CURVE('',#399,#400,#211,.T.);
#500=EDGE_CURVE('',#400,#401,#19,.T.);
#501=EDGE_CURVE('',#396,#401,#212,.T.);
#502=EDGE_CURVE('',#399,#402,#213,.F.);
#503=EDGE_CURVE('',#402,#403,#335,.F.);
#504=EDGE_CURVE('',#400,#403,#214,.T.);
#505=EDGE_CURVE('',#404,#404,#336,.F.);
#506=EDGE_CURVE('',#405,#394,#215,.T.);
#507=EDGE_CURVE('',#406,#393,#216,.T.);
#508=EDGE_CURVE('',#406,#407,#20,.T.);
#509=EDGE_CURVE('',#407,#405,#217,.T.);
#510=EDGE_CURVE('',#398,#408,#218,.T.);
#511=EDGE_CURVE('',#408,#392,#337,.T.);
#512=EDGE_CURVE('',#409,#401,#219,.T.);
#513=EDGE_CURVE('',#409,#408,#220,.T.);
#514=EDGE_CURVE('',#391,#410,#338,.T.);
#515=EDGE_CURVE('',#410,#397,#221,.T.);
#516=EDGE_CURVE('',#411,#409,#339,.T.);
#517=EDGE_CURVE('',#403,#412,#15,.T.);
#518=EDGE_CURVE('',#412,#411,#222,.T.);
#519=EDGE_CURVE('',#402,#413,#223,.T.);
#520=EDGE_CURVE('',#414,#413,#340,.F.);
#521=EDGE_CURVE('',#415,#414,#16,.T.);
#522=EDGE_CURVE('',#415,#412,#224,.T.);
#523=EDGE_CURVE('',#406,#416,#225,.T.);
#524=EDGE_CURVE('',#416,#417,#341,.T.);
#525=EDGE_CURVE('',#417,#415,#226,.T.);
#526=EDGE_CURVE('',#414,#407,#227,.T.);
#527=EDGE_CURVE('',#413,#405,#228,.F.);
#528=EDGE_CURVE('',#418,#418,#342,.F.);
#529=EDGE_CURVE('',#417,#411,#229,.T.);
#530=EDGE_CURVE('',#364,#351,#230,.T.);
#531=EDGE_CURVE('',#365,#354,#231,.T.);
#532=EDGE_CURVE('',#410,#416,#232,.T.);
#533=EDGE_CURVE('',#418,#404,#233,.T.);
#534=ORIENTED_EDGE('',*,*,#419,.F.);
#535=ORIENTED_EDGE('',*,*,#420,.T.);
#536=ORIENTED_EDGE('',*,*,#421,.T.);
#537=ORIENTED_EDGE('',*,*,#420,.F.);
#538=ORIENTED_EDGE('',*,*,#421,.F.);
#539=ORIENTED_EDGE('',*,*,#422,.F.);
#540=ORIENTED_EDGE('',*,*,#423,.F.);
#541=ORIENTED_EDGE('',*,*,#424,.T.);
#542=ORIENTED_EDGE('',*,*,#425,.T.);
#543=ORIENTED_EDGE('',*,*,#424,.F.);
#544=ORIENTED_EDGE('',*,*,#425,.F.);
#545=ORIENTED_EDGE('',*,*,#426,.F.);
#546=ORIENTED_EDGE('',*,*,#427,.F.);
#547=ORIENTED_EDGE('',*,*,#428,.T.);
#548=ORIENTED_EDGE('',*,*,#426,.T.);
#549=ORIENTED_EDGE('',*,*,#428,.F.);
#550=ORIENTED_EDGE('',*,*,#429,.F.);
#551=ORIENTED_EDGE('',*,*,#430,.T.);
#552=ORIENTED_EDGE('',*,*,#422,.T.);
#553=ORIENTED_EDGE('',*,*,#430,.F.);
#554=ORIENTED_EDGE('',*,*,#431,.T.);
#555=ORIENTED_EDGE('',*,*,#432,.F.);
#556=ORIENTED_EDGE('',*,*,#433,.T.);
#557=ORIENTED_EDGE('',*,*,#434,.F.);
#558=ORIENTED_EDGE('',*,*,#435,.T.);
#559=ORIENTED_EDGE('',*,*,#436,.F.);
#560=ORIENTED_EDGE('',*,*,#437,.T.);
#561=ORIENTED_EDGE('',*,*,#432,.T.);
#562=ORIENTED_EDGE('',*,*,#438,.T.);
#563=ORIENTED_EDGE('',*,*,#439,.F.);
#564=ORIENTED_EDGE('',*,*,#440,.F.);
#565=ORIENTED_EDGE('',*,*,#436,.T.);
#566=ORIENTED_EDGE('',*,*,#441,.T.);
#567=ORIENTED_EDGE('',*,*,#442,.F.);
#568=ORIENTED_EDGE('',*,*,#443,.F.);
#569=ORIENTED_EDGE('',*,*,#439,.T.);
#570=ORIENTED_EDGE('',*,*,#444,.T.);
#571=ORIENTED_EDGE('',*,*,#445,.F.);
#572=ORIENTED_EDGE('',*,*,#446,.F.);
#573=ORIENTED_EDGE('',*,*,#442,.T.);
#574=ORIENTED_EDGE('',*,*,#447,.T.);
#575=ORIENTED_EDGE('',*,*,#448,.F.);
#576=ORIENTED_EDGE('',*,*,#449,.T.);
#577=ORIENTED_EDGE('',*,*,#450,.T.);
#578=ORIENTED_EDGE('',*,*,#451,.T.);
#579=ORIENTED_EDGE('',*,*,#452,.F.);
#580=ORIENTED_EDGE('',*,*,#453,.F.);
#581=ORIENTED_EDGE('',*,*,#454,.F.);
#582=ORIENTED_EDGE('',*,*,#455,.T.);
#583=ORIENTED_EDGE('',*,*,#456,.F.);
#584=ORIENTED_EDGE('',*,*,#457,.F.);
#585=ORIENTED_EDGE('',*,*,#452,.T.);
#586=ORIENTED_EDGE('',*,*,#458,.T.);
#587=ORIENTED_EDGE('',*,*,#459,.F.);
#588=ORIENTED_EDGE('',*,*,#460,.F.);
#589=ORIENTED_EDGE('',*,*,#456,.T.);
#590=ORIENTED_EDGE('',*,*,#461,.T.);
#591=ORIENTED_EDGE('',*,*,#450,.F.);
#592=ORIENTED_EDGE('',*,*,#462,.T.);
#593=ORIENTED_EDGE('',*,*,#459,.T.);
#594=ORIENTED_EDGE('',*,*,#463,.F.);
#595=ORIENTED_EDGE('',*,*,#464,.T.);
#596=ORIENTED_EDGE('',*,*,#465,.T.);
#597=ORIENTED_EDGE('',*,*,#466,.F.);
#598=ORIENTED_EDGE('',*,*,#467,.F.);
#599=ORIENTED_EDGE('',*,*,#468,.T.);
#600=ORIENTED_EDGE('',*,*,#469,.T.);
#601=ORIENTED_EDGE('',*,*,#464,.F.);
#602=ORIENTED_EDGE('',*,*,#470,.F.);
#603=ORIENTED_EDGE('',*,*,#471,.T.);
#604=ORIENTED_EDGE('',*,*,#472,.T.);
#605=ORIENTED_EDGE('',*,*,#468,.F.);
#606=ORIENTED_EDGE('',*,*,#473,.F.);
#607=ORIENTED_EDGE('',*,*,#474,.T.);
#608=ORIENTED_EDGE('',*,*,#475,.T.);
#609=ORIENTED_EDGE('',*,*,#471,.F.);
#610=ORIENTED_EDGE('',*,*,#476,.F.);
#611=ORIENTED_EDGE('',*,*,#477,.T.);
#612=ORIENTED_EDGE('',*,*,#478,.T.);
#613=ORIENTED_EDGE('',*,*,#474,.F.);
#614=ORIENTED_EDGE('',*,*,#479,.F.);
#615=ORIENTED_EDGE('',*,*,#466,.T.);
#616=ORIENTED_EDGE('',*,*,#480,.T.);
#617=ORIENTED_EDGE('',*,*,#477,.F.);
#618=ORIENTED_EDGE('',*,*,#480,.F.);
#619=ORIENTED_EDGE('',*,*,#465,.F.);
#620=ORIENTED_EDGE('',*,*,#469,.F.);
#621=ORIENTED_EDGE('',*,*,#472,.F.);
#622=ORIENTED_EDGE('',*,*,#475,.F.);
#623=ORIENTED_EDGE('',*,*,#478,.F.);
#624=ORIENTED_EDGE('',*,*,#481,.T.);
#625=ORIENTED_EDGE('',*,*,#482,.T.);
#626=ORIENTED_EDGE('',*,*,#483,.T.);
#627=ORIENTED_EDGE('',*,*,#484,.T.);
#628=ORIENTED_EDGE('',*,*,#485,.F.);
#629=ORIENTED_EDGE('',*,*,#482,.F.);
#630=ORIENTED_EDGE('',*,*,#486,.F.);
#631=ORIENTED_EDGE('',*,*,#487,.T.);
#632=ORIENTED_EDGE('',*,*,#445,.T.);
#633=ORIENTED_EDGE('',*,*,#488,.T.);
#634=ORIENTED_EDGE('',*,*,#454,.T.);
#635=ORIENTED_EDGE('',*,*,#489,.T.);
#636=ORIENTED_EDGE('',*,*,#427,.T.);
#637=ORIENTED_EDGE('',*,*,#429,.T.);
#638=ORIENTED_EDGE('',*,*,#463,.T.);
#639=ORIENTED_EDGE('',*,*,#479,.T.);
#640=ORIENTED_EDGE('',*,*,#476,.T.);
#641=ORIENTED_EDGE('',*,*,#473,.T.);
#642=ORIENTED_EDGE('',*,*,#470,.T.);
#643=ORIENTED_EDGE('',*,*,#467,.T.);
#644=ORIENTED_EDGE('',*,*,#490,.T.);
#645=ORIENTED_EDGE('',*,*,#491,.T.);
#646=ORIENTED_EDGE('',*,*,#492,.F.);
#647=ORIENTED_EDGE('',*,*,#493,.T.);
#648=ORIENTED_EDGE('',*,*,#484,.F.);
#649=ORIENTED_EDGE('',*,*,#494,.F.);
#650=ORIENTED_EDGE('',*,*,#495,.F.);
#651=ORIENTED_EDGE('',*,*,#493,.F.);
#652=ORIENTED_EDGE('',*,*,#496,.F.);
#653=ORIENTED_EDGE('',*,*,#497,.F.);
#654=ORIENTED_EDGE('',*,*,#498,.T.);
#655=ORIENTED_EDGE('',*,*,#499,.T.);
#656=ORIENTED_EDGE('',*,*,#500,.T.);
#657=ORIENTED_EDGE('',*,*,#501,.F.);
#658=ORIENTED_EDGE('',*,*,#492,.T.);
#659=ORIENTED_EDGE('',*,*,#499,.F.);
#660=ORIENTED_EDGE('',*,*,#502,.T.);
#661=ORIENTED_EDGE('',*,*,#503,.T.);
#662=ORIENTED_EDGE('',*,*,#504,.F.);
#663=ORIENTED_EDGE('',*,*,#505,.T.);
#664=ORIENTED_EDGE('',*,*,#506,.T.);
#665=ORIENTED_EDGE('',*,*,#490,.F.);
#666=ORIENTED_EDGE('',*,*,#507,.F.);
#667=ORIENTED_EDGE('',*,*,#508,.T.);
#668=ORIENTED_EDGE('',*,*,#509,.T.);
#669=ORIENTED_EDGE('',*,*,#497,.T.);
#670=ORIENTED_EDGE('',*,*,#510,.T.);
#671=ORIENTED_EDGE('',*,*,#511,.T.);
#672=ORIENTED_EDGE('',*,*,#486,.T.);
#673=ORIENTED_EDGE('',*,*,#481,.F.);
#674=ORIENTED_EDGE('',*,*,#510,.F.);
#675=ORIENTED_EDGE('',*,*,#496,.T.);
#676=ORIENTED_EDGE('',*,*,#501,.T.);
#677=ORIENTED_EDGE('',*,*,#512,.F.);
#678=ORIENTED_EDGE('',*,*,#513,.T.);
#679=ORIENTED_EDGE('',*,*,#494,.T.);
#680=ORIENTED_EDGE('',*,*,#483,.F.);
#681=ORIENTED_EDGE('',*,*,#485,.T.);
#682=ORIENTED_EDGE('',*,*,#514,.T.);
#683=ORIENTED_EDGE('',*,*,#515,.T.);
#684=ORIENTED_EDGE('',*,*,#516,.T.);
#685=ORIENTED_EDGE('',*,*,#512,.T.);
#686=ORIENTED_EDGE('',*,*,#500,.F.);
#687=ORIENTED_EDGE('',*,*,#504,.T.);
#688=ORIENTED_EDGE('',*,*,#517,.T.);
#689=ORIENTED_EDGE('',*,*,#518,.T.);
#690=ORIENTED_EDGE('',*,*,#517,.F.);
#691=ORIENTED_EDGE('',*,*,#503,.F.);
#692=ORIENTED_EDGE('',*,*,#519,.T.);
#693=ORIENTED_EDGE('',*,*,#520,.F.);
#694=ORIENTED_EDGE('',*,*,#521,.F.);
#695=ORIENTED_EDGE('',*,*,#522,.T.);
#696=ORIENTED_EDGE('',*,*,#523,.T.);
#697=ORIENTED_EDGE('',*,*,#524,.T.);
#698=ORIENTED_EDGE('',*,*,#525,.T.);
#699=ORIENTED_EDGE('',*,*,#521,.T.);
#700=ORIENTED_EDGE('',*,*,#526,.T.);
#701=ORIENTED_EDGE('',*,*,#508,.F.);
#702=ORIENTED_EDGE('',*,*,#509,.F.);
#703=ORIENTED_EDGE('',*,*,#526,.F.);
#704=ORIENTED_EDGE('',*,*,#520,.T.);
#705=ORIENTED_EDGE('',*,*,#527,.T.);
#706=ORIENTED_EDGE('',*,*,#528,.T.);
#707=ORIENTED_EDGE('',*,*,#518,.F.);
#708=ORIENTED_EDGE('',*,*,#522,.F.);
#709=ORIENTED_EDGE('',*,*,#525,.F.);
#710=ORIENTED_EDGE('',*,*,#529,.T.);
#711=ORIENTED_EDGE('',*,*,#530,.F.);
#712=ORIENTED_EDGE('',*,*,#447,.F.);
#713=ORIENTED_EDGE('',*,*,#461,.F.);
#714=ORIENTED_EDGE('',*,*,#458,.F.);
#715=ORIENTED_EDGE('',*,*,#455,.F.);
#716=ORIENTED_EDGE('',*,*,#451,.F.);
#717=ORIENTED_EDGE('',*,*,#488,.F.);
#718=ORIENTED_EDGE('',*,*,#444,.F.);
#719=ORIENTED_EDGE('',*,*,#441,.F.);
#720=ORIENTED_EDGE('',*,*,#438,.F.);
#721=ORIENTED_EDGE('',*,*,#435,.F.);
#722=ORIENTED_EDGE('',*,*,#431,.F.);
#723=ORIENTED_EDGE('',*,*,#434,.T.);
#724=ORIENTED_EDGE('',*,*,#531,.F.);
#725=ORIENTED_EDGE('',*,*,#448,.T.);
#726=ORIENTED_EDGE('',*,*,#530,.T.);
#727=ORIENTED_EDGE('',*,*,#419,.T.);
#728=ORIENTED_EDGE('',*,*,#423,.T.);
#729=ORIENTED_EDGE('',*,*,#515,.F.);
#730=ORIENTED_EDGE('',*,*,#532,.T.);
#731=ORIENTED_EDGE('',*,*,#523,.F.);
#732=ORIENTED_EDGE('',*,*,#507,.T.);
#733=ORIENTED_EDGE('',*,*,#495,.T.);
#734=ORIENTED_EDGE('',*,*,#528,.F.);
#735=ORIENTED_EDGE('',*,*,#533,.T.);
#736=ORIENTED_EDGE('',*,*,#505,.F.);
#737=ORIENTED_EDGE('',*,*,#533,.F.);
#738=ORIENTED_EDGE('',*,*,#516,.F.);
#739=ORIENTED_EDGE('',*,*,#529,.F.);
#740=ORIENTED_EDGE('',*,*,#524,.F.);
#741=ORIENTED_EDGE('',*,*,#532,.F.);
#742=ORIENTED_EDGE('',*,*,#514,.F.);
#743=ORIENTED_EDGE('',*,*,#489,.F.);
#744=ORIENTED_EDGE('',*,*,#453,.T.);
#745=ORIENTED_EDGE('',*,*,#457,.T.);
#746=ORIENTED_EDGE('',*,*,#460,.T.);
#747=ORIENTED_EDGE('',*,*,#462,.F.);
#748=ORIENTED_EDGE('',*,*,#449,.F.);
#749=ORIENTED_EDGE('',*,*,#531,.T.);
#750=ORIENTED_EDGE('',*,*,#433,.F.);
#751=ORIENTED_EDGE('',*,*,#437,.F.);
#752=ORIENTED_EDGE('',*,*,#440,.T.);
#753=ORIENTED_EDGE('',*,*,#443,.T.);
#754=ORIENTED_EDGE('',*,*,#446,.T.);
#755=ORIENTED_EDGE('',*,*,#487,.F.);
#756=ORIENTED_EDGE('',*,*,#511,.F.);
#757=ORIENTED_EDGE('',*,*,#513,.F.);
#758=ORIENTED_EDGE('',*,*,#491,.F.);
#759=ORIENTED_EDGE('',*,*,#506,.F.);
#760=ORIENTED_EDGE('',*,*,#527,.F.);
#761=ORIENTED_EDGE('',*,*,#519,.F.);
#762=ORIENTED_EDGE('',*,*,#502,.F.);
#763=ORIENTED_EDGE('',*,*,#498,.F.);
#764=CYLINDRICAL_SURFACE('',#838,2.85);
#765=CYLINDRICAL_SURFACE('',#843,2.85);
#766=CYLINDRICAL_SURFACE('',#848,1.65);
#767=CYLINDRICAL_SURFACE('',#850,1.65);
#768=CYLINDRICAL_SURFACE('',#852,3.);
#769=CYLINDRICAL_SURFACE('',#856,1.85);
#770=CYLINDRICAL_SURFACE('',#860,6.7);
#771=CYLINDRICAL_SURFACE('',#863,3.);
#772=CYLINDRICAL_SURFACE('',#866,6.7);
#773=CYLINDRICAL_SURFACE('',#870,1.85);
#774=CYLINDRICAL_SURFACE('',#896,3.5);
#775=CYLINDRICAL_SURFACE('',#899,3.5);
#776=CYLINDRICAL_SURFACE('',#901,3.5);
#777=CYLINDRICAL_SURFACE('',#903,2.9999996510053);
#778=CYLINDRICAL_SURFACE('',#905,3.5);
#779=CYLINDRICAL_SURFACE('',#913,1.65);
#780=ADVANCED_FACE('',(#58),#764,.F.);
#781=ADVANCED_FACE('',(#59,#21),#30,.T.);
#782=ADVANCED_FACE('',(#60),#765,.F.);
#783=ADVANCED_FACE('',(#61,#22),#31,.T.);
#784=ADVANCED_FACE('',(#62),#766,.F.);
#785=ADVANCED_FACE('',(#63),#767,.F.);
#786=ADVANCED_FACE('',(#64),#768,.F.);
#787=ADVANCED_FACE('',(#65),#32,.T.);
#788=ADVANCED_FACE('',(#66),#769,.T.);
#789=ADVANCED_FACE('',(#67),#33,.T.);
#790=ADVANCED_FACE('',(#68),#770,.T.);
#791=ADVANCED_FACE('',(#69),#771,.F.);
#792=ADVANCED_FACE('',(#70),#772,.T.);
#793=ADVANCED_FACE('',(#71),#34,.T.);
#794=ADVANCED_FACE('',(#72),#773,.T.);
#795=ADVANCED_FACE('',(#73),#35,.T.);
#796=ADVANCED_FACE('',(#74),#36,.F.);
#797=ADVANCED_FACE('',(#75),#37,.F.);
#798=ADVANCED_FACE('',(#76),#38,.F.);
#799=ADVANCED_FACE('',(#77),#39,.F.);
#800=ADVANCED_FACE('',(#78),#40,.F.);
#801=ADVANCED_FACE('',(#79),#41,.F.);
#802=ADVANCED_FACE('',(#80),#42,.F.);
#803=ADVANCED_FACE('',(#81),#43,.T.);
#804=ADVANCED_FACE('',(#82,#23,#24,#25),#44,.T.);
#805=ADVANCED_FACE('',(#83),#45,.T.);
#806=ADVANCED_FACE('',(#84),#46,.T.);
#807=ADVANCED_FACE('',(#85),#47,.T.);
#808=ADVANCED_FACE('',(#86,#26),#48,.F.);
#809=ADVANCED_FACE('',(#87),#49,.T.);
#810=ADVANCED_FACE('',(#88),#774,.F.);
#811=ADVANCED_FACE('',(#89),#50,.T.);
#812=ADVANCED_FACE('',(#90),#775,.F.);
#813=ADVANCED_FACE('',(#91),#776,.T.);
#814=ADVANCED_FACE('',(#92),#777,.T.);
#815=ADVANCED_FACE('',(#93),#778,.T.);
#816=ADVANCED_FACE('',(#94,#27),#51,.F.);
#817=ADVANCED_FACE('',(#95),#52,.T.);
#818=ADVANCED_FACE('',(#96),#53,.T.);
#819=ADVANCED_FACE('',(#97,#28,#29),#54,.T.);
#820=ADVANCED_FACE('',(#98),#55,.T.);
#821=ADVANCED_FACE('',(#99),#779,.F.);
#822=ADVANCED_FACE('',(#100),#56,.T.);
#823=ADVANCED_FACE('',(#101),#57,.T.);
#824=CLOSED_SHELL('',(#780,#781,#782,#783,#784,#785,#786,#787,#788,#789,
#790,#791,#792,#793,#794,#795,#796,#797,#798,#799,#800,#801,#802,#803,#804,
#805,#806,#807,#808,#809,#810,#811,#812,#813,#814,#815,#816,#817,#818,#819,
#820,#821,#822,#823));
#825=DERIVED_UNIT_ELEMENT(#827,1.);
#826=DERIVED_UNIT_ELEMENT(#1400,-3.);
#827=(
MASS_UNIT()
NAMED_UNIT(*)
SI_UNIT(.KILO.,.GRAM.)
);
#828=DERIVED_UNIT((#825,#826));
#829=MEASURE_REPRESENTATION_ITEM('density measure',
POSITIVE_RATIO_MEASURE(7850.),#828);
#830=PROPERTY_DEFINITION_REPRESENTATION(#835,#832);
#831=PROPERTY_DEFINITION_REPRESENTATION(#836,#833);
#832=REPRESENTATION('material name',(#834),#1397);
#833=REPRESENTATION('density',(#829),#1397);
#834=DESCRIPTIVE_REPRESENTATION_ITEM('Steel','Steel');
#835=PROPERTY_DEFINITION('material property','material name',#1407);
#836=PROPERTY_DEFINITION('material property','density of part',#1407);
#837=AXIS2_PLACEMENT_3D('',#1153,#916,#917);
#838=AXIS2_PLACEMENT_3D('',#1154,#918,#919);
#839=AXIS2_PLACEMENT_3D('',#1156,#920,#921);
#840=AXIS2_PLACEMENT_3D('',#1159,#923,#924);
#841=AXIS2_PLACEMENT_3D('',#1160,#925,#926);
#842=AXIS2_PLACEMENT_3D('',#1162,#927,#928);
#843=AXIS2_PLACEMENT_3D('',#1163,#929,#930);
#844=AXIS2_PLACEMENT_3D('',#1165,#931,#932);
#845=AXIS2_PLACEMENT_3D('',#1168,#934,#935);
#846=AXIS2_PLACEMENT_3D('',#1169,#936,#937);
#847=AXIS2_PLACEMENT_3D('',#1171,#938,#939);
#848=AXIS2_PLACEMENT_3D('',#1172,#940,#941);
#849=AXIS2_PLACEMENT_3D('',#1174,#942,#943);
#850=AXIS2_PLACEMENT_3D('',#1176,#945,#946);
#851=AXIS2_PLACEMENT_3D('',#1178,#947,#948);
#852=AXIS2_PLACEMENT_3D('',#1180,#950,#951);
#853=AXIS2_PLACEMENT_3D('',#1183,#952,#953);
#854=AXIS2_PLACEMENT_3D('',#1187,#955,#956);
#855=AXIS2_PLACEMENT_3D('',#1189,#958,#959);
#856=AXIS2_PLACEMENT_3D('',#1195,#963,#964);
#857=AXIS2_PLACEMENT_3D('',#1197,#965,#966);
#858=AXIS2_PLACEMENT_3D('',#1200,#968,#969);
#859=AXIS2_PLACEMENT_3D('',#1201,#970,#971);
#860=AXIS2_PLACEMENT_3D('',#1207,#975,#976);
#861=AXIS2_PLACEMENT_3D('',#1209,#977,#978);
#862=AXIS2_PLACEMENT_3D('',#1212,#980,#981);
#863=AXIS2_PLACEMENT_3D('',#1213,#982,#983);
#864=AXIS2_PLACEMENT_3D('',#1216,#984,#985);
#865=AXIS2_PLACEMENT_3D('',#1220,#987,#988);
#866=AXIS2_PLACEMENT_3D('',#1222,#990,#991);
#867=AXIS2_PLACEMENT_3D('',#1225,#992,#993);
#868=AXIS2_PLACEMENT_3D('',#1229,#995,#996);
#869=AXIS2_PLACEMENT_3D('',#1231,#998,#999);
#870=AXIS2_PLACEMENT_3D('',#1237,#1003,#1004);
#871=AXIS2_PLACEMENT_3D('',#1239,#1005,#1006);
#872=AXIS2_PLACEMENT_3D('',#1242,#1008,#1009);
#873=AXIS2_PLACEMENT_3D('',#1243,#1010,#1011);
#874=AXIS2_PLACEMENT_3D('',#1246,#1014,#1015);
#875=AXIS2_PLACEMENT_3D('',#1255,#1020,#1021);
#876=AXIS2_PLACEMENT_3D('',#1261,#1025,#1026);
#877=AXIS2_PLACEMENT_3D('',#1267,#1030,#1031);
#878=AXIS2_PLACEMENT_3D('',#1273,#1035,#1036);
#879=AXIS2_PLACEMENT_3D('',#1279,#1040,#1041);
#880=AXIS2_PLACEMENT_3D('',#1282,#1044,#1045);
#881=AXIS2_PLACEMENT_3D('',#1283,#1046,#1047);
#882=AXIS2_PLACEMENT_3D('',#1286,#1048,#1049);
#883=AXIS2_PLACEMENT_3D('',#1290,#1051,#1052);
#884=AXIS2_PLACEMENT_3D('',#1292,#1054,#1055);
#885=AXIS2_PLACEMENT_3D('',#1300,#1061,#1062);
#886=AXIS2_PLACEMENT_3D('',#1309,#1067,#1068);
#887=AXIS2_PLACEMENT_3D('',#1311,#1069,#1070);
#888=AXIS2_PLACEMENT_3D('',#1315,#1073,#1074);
#889=AXIS2_PLACEMENT_3D('',#1316,#1075,#1076);
#890=AXIS2_PLACEMENT_3D('',#1322,#1079,#1080);
#891=AXIS2_PLACEMENT_3D('',#1324,#1082,#1083);
#892=AXIS2_PLACEMENT_3D('',#1328,#1085,#1086);
#893=AXIS2_PLACEMENT_3D('',#1331,#1088,#1089);
#894=AXIS2_PLACEMENT_3D('',#1332,#1090,#1091);
#895=AXIS2_PLACEMENT_3D('',#1338,#1094,#1095);
#896=AXIS2_PLACEMENT_3D('',#1340,#1097,#1098);
#897=AXIS2_PLACEMENT_3D('',#1343,#1100,#1101);
#898=AXIS2_PLACEMENT_3D('',#1344,#1102,#1103);
#899=AXIS2_PLACEMENT_3D('',#1348,#1106,#1107);
#900=AXIS2_PLACEMENT_3D('',#1350,#1108,#1109);
#901=AXIS2_PLACEMENT_3D('',#1352,#1111,#1112);
#902=AXIS2_PLACEMENT_3D('',#1354,#1113,#1114);
#903=AXIS2_PLACEMENT_3D('',#1361,#1116,#1117);
#904=AXIS2_PLACEMENT_3D('',#1365,#1119,#1120);
#905=AXIS2_PLACEMENT_3D('',#1372,#1122,#1123);
#906=AXIS2_PLACEMENT_3D('',#1376,#1125,#1126);
#907=AXIS2_PLACEMENT_3D('',#1379,#1129,#1130);
#908=AXIS2_PLACEMENT_3D('',#1382,#1132,#1133);
#909=AXIS2_PLACEMENT_3D('',#1383,#1134,#1135);
#910=AXIS2_PLACEMENT_3D('',#1385,#1137,#1138);
#911=AXIS2_PLACEMENT_3D('',#1387,#1140,#1141);
#912=AXIS2_PLACEMENT_3D('',#1389,#1143,#1144);
#913=AXIS2_PLACEMENT_3D('',#1391,#1146,#1147);
#914=AXIS2_PLACEMENT_3D('',#1393,#1149,#1150);
#915=AXIS2_PLACEMENT_3D('',#1394,#1151,#1152);
#916=DIRECTION('axis',(0.,0.,1.));
#917=DIRECTION('refdir',(1.,0.,0.));
#918=DIRECTION('center_axis',(1.38777878078144E-15,-1.38777878078144E-15,
1.));
#919=DIRECTION('ref_axis',(1.,2.79080574280026E-16,-1.38777878078144E-15));
#920=DIRECTION('center_axis',(0.,5.01777779126338E-34,1.));
#921=DIRECTION('ref_axis',(1.,2.79080574280026E-16,-1.38777878078144E-15));
#922=DIRECTION('',(1.38777878078144E-15,-1.38777878078144E-15,1.));
#923=DIRECTION('center_axis',(0.,5.01777779126338E-34,1.));
#924=DIRECTION('ref_axis',(1.,2.79080574280025E-16,-1.09112827972998E-15));
#925=DIRECTION('center_axis',(0.,-5.01777779126338E-34,-1.));
#926=DIRECTION('ref_axis',(-1.,0.,0.));
#927=DIRECTION('center_axis',(0.,-5.01777779126338E-34,-1.));
#928=DIRECTION('ref_axis',(1.,2.79080574280025E-16,-1.09112827972998E-15));
#929=DIRECTION('center_axis',(1.38777878078144E-15,-1.38777878078144E-15,
1.));
#930=DIRECTION('ref_axis',(1.,2.79080574280026E-16,-1.38777878078144E-15));
#931=DIRECTION('center_axis',(0.,5.01777779126338E-34,1.));
#932=DIRECTION('ref_axis',(1.,2.79080574280026E-16,-1.38777878078144E-15));
#933=DIRECTION('',(1.38777878078144E-15,-1.38777878078144E-15,1.));
#934=DIRECTION('center_axis',(0.,5.01777779126338E-34,1.));
#935=DIRECTION('ref_axis',(1.,2.79080574280025E-16,-1.09112827972998E-15));
#936=DIRECTION('center_axis',(0.,-5.01777779126338E-34,-1.));
#937=DIRECTION('ref_axis',(-1.,0.,0.));
#938=DIRECTION('center_axis',(0.,-5.01777779126338E-34,-1.));
#939=DIRECTION('ref_axis',(1.,2.79080574280025E-16,-1.09112827972998E-15));
#940=DIRECTION('center_axis',(-1.09112827972998E-15,5.45564139864988E-16,
-1.));
#941=DIRECTION('ref_axis',(1.,2.79080574280025E-16,-1.09112827972998E-15));
#942=DIRECTION('center_axis',(0.,-5.01777779126338E-34,-1.));
#943=DIRECTION('ref_axis',(1.,2.79080574280025E-16,-1.09112827972998E-15));
#944=DIRECTION('',(-1.09112827972998E-15,5.45564139864988E-16,-1.));
#945=DIRECTION('center_axis',(-1.09112827972998E-15,5.45564139864988E-16,
-1.));
#946=DIRECTION('ref_axis',(1.,2.79080574280025E-16,-1.09112827972998E-15));
#947=DIRECTION('center_axis',(0.,-5.01777779126338E-34,-1.));
#948=DIRECTION('ref_axis',(1.,2.79080574280025E-16,-1.09112827972998E-15));
#949=DIRECTION('',(-1.09112827972998E-15,5.45564139864988E-16,-1.));
#950=DIRECTION('center_axis',(0.,-1.,0.));
#951=DIRECTION('ref_axis',(-0.842789957661773,0.,0.538242591462685));
#952=DIRECTION('center_axis',(0.,-1.,0.));
#953=DIRECTION('ref_axis',(-0.842789957661773,0.,0.538242591462685));
#954=DIRECTION('',(0.,-1.,0.));
#955=DIRECTION('center_axis',(-3.18589408536263E-33,1.,-4.98853042086657E-33));
#956=DIRECTION('ref_axis',(-0.842789957661773,5.70189804819668E-49,0.538242591462685));
#957=DIRECTION('',(-6.02614991758979E-18,1.,-5.01777779126338E-34));
#958=DIRECTION('center_axis',(0.842789957661776,0.,-0.53824259146268));
#959=DIRECTION('ref_axis',(0.53824259146268,0.,0.842789957661776));
#960=DIRECTION('',(-0.53824259146268,0.,-0.842789957661776));
#961=DIRECTION('',(0.,-1.,0.));
#962=DIRECTION('',(0.53824259146268,0.,0.842789957661776));
#963=DIRECTION('center_axis',(0.,-1.,0.));
#964=DIRECTION('ref_axis',(0.842789957661774,0.,-0.538242591462683));
#965=DIRECTION('center_axis',(0.,1.,0.));
#966=DIRECTION('ref_axis',(0.842789957661774,0.,-0.538242591462683));
#967=DIRECTION('',(0.,-1.,0.));
#968=DIRECTION('center_axis',(0.,1.,0.));
#969=DIRECTION('ref_axis',(0.842789957661774,0.,-0.538242591462683));
#970=DIRECTION('center_axis',(-0.842789957661776,0.,0.53824259146268));
#971=DIRECTION('ref_axis',(-0.53824259146268,0.,-0.842789957661776));
#972=DIRECTION('',(0.53824259146268,0.,0.842789957661776));
#973=DIRECTION('',(0.,-1.,0.));
#974=DIRECTION('',(0.53824259146268,0.,0.842789957661776));
#975=DIRECTION('center_axis',(0.,-1.,0.));
#976=DIRECTION('ref_axis',(-0.842789957661775,0.,0.538242591462682));
#977=DIRECTION('center_axis',(0.,1.,0.));
#978=DIRECTION('ref_axis',(-0.842789957661775,0.,0.538242591462682));
#979=DIRECTION('',(6.02614991758979E-18,-1.,5.01777779126338E-34));
#980=DIRECTION('center_axis',(0.,1.,0.));
#981=DIRECTION('ref_axis',(-0.842789957661775,0.,0.538242591462682));
#982=DIRECTION('center_axis',(0.,-1.,0.));
#983=DIRECTION('ref_axis',(0.,0.,1.));
#984=DIRECTION('center_axis',(0.,-1.,0.));
#985=DIRECTION('ref_axis',(0.,0.,1.));
#986=DIRECTION('',(6.02614991758979E-18,-1.,5.01777779126338E-34));
#987=DIRECTION('center_axis',(-2.00666937578889E-47,1.,0.));
#988=DIRECTION('ref_axis',(0.,0.,1.));
#989=DIRECTION('',(0.,-1.,0.));
#990=DIRECTION('center_axis',(0.,-1.,0.));
#991=DIRECTION('ref_axis',(-6.62819716194123E-16,0.,1.));
#992=DIRECTION('center_axis',(0.,1.,0.));
#993=DIRECTION('ref_axis',(-6.62819716194123E-16,0.,1.));
#994=DIRECTION('',(0.,-1.,0.));
#995=DIRECTION('center_axis',(0.,1.,0.));
#996=DIRECTION('ref_axis',(-6.62819716194123E-16,0.,1.));
#997=DIRECTION('',(-6.02614991758979E-18,1.,-5.01777779126338E-34));
#998=DIRECTION('center_axis',(0.842789957661798,0.,0.538242591462646));
#999=DIRECTION('ref_axis',(-0.538242591462646,2.23757986896406E-47,0.842789957661798));
#1000=DIRECTION('',(0.538242591462646,0.,-0.842789957661798));
#1001=DIRECTION('',(0.,-1.,0.));
#1002=DIRECTION('',(0.538242591462646,-2.23757986896406E-47,-0.842789957661798));
#1003=DIRECTION('center_axis',(0.,-1.,0.));
#1004=DIRECTION('ref_axis',(0.842789957661795,0.,0.53824259146265));
#1005=DIRECTION('center_axis',(0.,1.,0.));
#1006=DIRECTION('ref_axis',(0.842789957661795,0.,0.53824259146265));
#1007=DIRECTION('',(0.,-1.,0.));
#1008=DIRECTION('center_axis',(0.,1.,0.));
#1009=DIRECTION('ref_axis',(0.842789957661795,0.,0.53824259146265));
#1010=DIRECTION('center_axis',(-0.842789957661795,0.,-0.538242591462651));
#1011=DIRECTION('ref_axis',(0.538242591462651,3.93032391176639E-33,-0.842789957661795));
#1012=DIRECTION('',(-0.538242591462651,0.,0.842789957661795));
#1013=DIRECTION('',(0.538242591462651,3.93032391176639E-33,-0.842789957661795));
#1014=DIRECTION('center_axis',(1.,1.00268768647143E-14,0.));
#1015=DIRECTION('ref_axis',(1.00268768647143E-14,-1.,-2.50888889563172E-34));
#1016=DIRECTION('',(1.00268768647143E-14,-1.,5.01777779126338E-34));
#1017=DIRECTION('',(0.,0.,-1.));
#1018=DIRECTION('',(1.00268768647143E-14,-1.,-2.50888889563172E-34));
#1019=DIRECTION('',(0.,0.,-1.));
#1020=DIRECTION('center_axis',(0.499999999999998,0.86602540378444,0.));
#1021=DIRECTION('ref_axis',(0.86602540378444,-0.499999999999998,-5.01777779126338E-34));
#1022=DIRECTION('',(0.86602540378444,-0.499999999999998,2.50888889563168E-34));
#1023=DIRECTION('',(0.,0.,-1.));
#1024=DIRECTION('',(0.86602540378444,-0.499999999999998,-5.01777779126338E-34));
#1025=DIRECTION('center_axis',(-0.5,0.866025403784439,0.));
#1026=DIRECTION('ref_axis',(0.866025403784439,0.5,-2.50888889563172E-34));
#1027=DIRECTION('',(0.866025403784439,0.5,-2.50888889563169E-34));
#1028=DIRECTION('',(0.,0.,-1.));
#1029=DIRECTION('',(0.866025403784439,0.5,-2.50888889563172E-34));
#1030=DIRECTION('center_axis',(-1.,-1.78560820878474E-15,0.));
#1031=DIRECTION('ref_axis',(-1.78560820878474E-15,1.,5.01777779126338E-34));
#1032=DIRECTION('',(-1.78560820878474E-15,1.,-5.01777779126338E-34));
#1033=DIRECTION('',(0.,0.,-1.));
#1034=DIRECTION('',(-1.78560820878474E-15,1.,5.01777779126338E-34));
#1035=DIRECTION('center_axis',(-0.500000000000001,-0.866025403784438,0.));
#1036=DIRECTION('ref_axis',(-0.866025403784438,0.500000000000001,2.50888889563171E-34));
#1037=DIRECTION('',(-0.866025403784438,0.500000000000001,-2.5088888956317E-34));
#1038=DIRECTION('',(0.,0.,-1.));
#1039=DIRECTION('',(-0.866025403784438,0.500000000000001,2.50888889563171E-34));
#1040=DIRECTION('center_axis',(0.499999999999999,-0.866025403784439,0.));
#1041=DIRECTION('ref_axis',(-0.866025403784439,-0.499999999999999,2.50888889563167E-34));
#1042=DIRECTION('',(-0.866025403784439,-0.499999999999999,2.50888889563169E-34));
#1043=DIRECTION('',(-0.866025403784439,-0.499999999999999,2.50888889563167E-34));
#1044=DIRECTION('center_axis',(0.,0.,-1.));
#1045=DIRECTION('ref_axis',(-1.,0.,0.));
#1046=DIRECTION('center_axis',(0.,-0.707106781186546,0.707106781186549));
#1047=DIRECTION('ref_axis',(1.,0.,0.));
#1048=DIRECTION('center_axis',(0.,0.707106781186546,-0.707106781186549));
#1049=DIRECTION('ref_axis',(0.,-0.707106781186549,-0.707106781186546));
#1050=DIRECTION('',(1.,0.,0.));
#1051=DIRECTION('center_axis',(0.,0.707106781186546,-0.707106781186549));
#1052=DIRECTION('ref_axis',(0.,-0.707106781186549,-0.707106781186546));
#1053=DIRECTION('',(-1.,0.,0.));
#1054=DIRECTION('center_axis',(0.,5.01777779126338E-34,1.));
#1055=DIRECTION('ref_axis',(-6.02614991758979E-18,1.,-5.01777779126338E-34));
#1056=DIRECTION('',(6.25938475990267E-50,1.,-5.01777779126338E-34));
#1057=DIRECTION('',(-6.25938475990267E-50,-1.,5.01777779126338E-34));
#1058=DIRECTION('',(-1.,0.,0.));
#1059=DIRECTION('',(1.,0.,0.));
#1060=DIRECTION('',(-1.,0.,0.));
#1061=DIRECTION('center_axis',(1.17171079006256E-16,-0.707106781186548,
-0.707106781186547));
#1062=DIRECTION('ref_axis',(-1.,0.,-1.65704929048537E-16));
#1063=DIRECTION('',(-0.577350269189626,-0.577350269189625,0.577350269189626));
#1064=DIRECTION('',(-1.,0.,-1.65704929048537E-16));
#1065=DIRECTION('',(-0.577350269189626,0.577350269189625,-0.577350269189626));
#1066=DIRECTION('',(1.,0.,1.65704929048537E-16));
#1067=DIRECTION('center_axis',(0.,-1.,0.));
#1068=DIRECTION('ref_axis',(-8.32667268468867E-17,0.,1.));
#1069=DIRECTION('center_axis',(0.,-1.,0.));
#1070=DIRECTION('ref_axis',(-0.707106781186548,0.,-0.707106781186547));
#1071=DIRECTION('',(8.32667268468867E-17,0.,-1.));
#1072=DIRECTION('',(-8.32667268468867E-17,0.,1.));
#1073=DIRECTION('center_axis',(0.,-1.,0.));
#1074=DIRECTION('ref_axis',(0.707106781186548,0.,-0.707106781186547));
#1075=DIRECTION('center_axis',(-0.707106781186547,-0.707106781186548,1.66209006368478E-16));
#1076=DIRECTION('ref_axis',(2.35055030994857E-16,0.,1.));
#1077=DIRECTION('',(0.707106781186548,-0.707106781186547,3.78853155453552E-16));
#1078=DIRECTION('',(2.35055030994857E-16,0.,1.));
#1079=DIRECTION('center_axis',(-0.707106781186547,-0.707106781186548,1.66209006368478E-16));
#1080=DIRECTION('ref_axis',(-0.707106781186548,0.707106781186547,1.79439138135289E-15));
#1081=DIRECTION('',(-8.32667268468867E-17,0.,1.));
#1082=DIRECTION('center_axis',(1.,-3.60822483003176E-16,-2.35055030994857E-16));
#1083=DIRECTION('ref_axis',(-2.35055030994857E-16,0.,-1.));
#1084=DIRECTION('',(3.60822483003176E-16,1.,-3.70074341541719E-16));
#1085=DIRECTION('center_axis',(1.,-3.60822483003176E-16,-2.35055030994857E-16));
#1086=DIRECTION('ref_axis',(-1.65704929048525E-16,0.,1.));
#1087=DIRECTION('',(1.40583764726151E-31,-1.,-1.12697672297436E-15));
#1088=DIRECTION('center_axis',(-1.,3.60822483003176E-16,2.35055030994857E-16));
#1089=DIRECTION('ref_axis',(-1.65704929048525E-16,0.,1.));
#1090=DIRECTION('center_axis',(0.707106781186547,-0.707106781186548,-1.66209006368477E-16));
#1091=DIRECTION('ref_axis',(-2.35055030994857E-16,0.,-1.));
#1092=DIRECTION('',(0.707106781186548,0.707106781186547,-1.4451099744104E-16));
#1093=DIRECTION('',(8.32667268468867E-17,0.,-1.));
#1094=DIRECTION('center_axis',(0.707106781186547,-0.707106781186548,-1.66209006368477E-16));
#1095=DIRECTION('ref_axis',(0.707106781186548,0.707106781186547,1.5140177280165E-15));
#1096=DIRECTION('',(-2.35055030994857E-16,0.,-1.));
#1097=DIRECTION('center_axis',(-6.25938475990267E-50,-1.,5.01777779126338E-34));
#1098=DIRECTION('ref_axis',(0.707106781186548,0.,-0.707106781186547));
#1099=DIRECTION('',(6.25938475990267E-50,1.,-5.01777779126338E-34));
#1100=DIRECTION('center_axis',(-1.03999718756693E-32,1.,6.27619946816609E-17));
#1101=DIRECTION('ref_axis',(0.707106781186548,0.,-0.707106781186547));
#1102=DIRECTION('center_axis',(-1.,0.,-1.24744160070242E-16));
#1103=DIRECTION('ref_axis',(-1.24744160070242E-16,0.,1.));
#1104=DIRECTION('',(1.40583764726151E-31,-1.,-1.12697672297436E-15));
#1105=DIRECTION('',(8.32667268468867E-17,6.27619946816609E-17,-1.));
#1106=DIRECTION('center_axis',(6.25938475990267E-50,1.,-5.01777779126338E-34));
#1107=DIRECTION('ref_axis',(-0.707106781186548,0.,-0.707106781186547));
#1108=DIRECTION('center_axis',(-1.03999718756693E-32,1.,6.27619946816609E-17));
#1109=DIRECTION('ref_axis',(-0.707106781186548,0.,-0.707106781186547));
#1110=DIRECTION('',(-6.25938475990267E-50,-1.,5.01777779126338E-34));
#1111=DIRECTION('center_axis',(-1.40583764726151E-31,1.,1.12697672297436E-15));
#1112=DIRECTION('ref_axis',(-0.707106781186548,0.,0.707106781186547));
#1113=DIRECTION('center_axis',(1.03999718756693E-32,-1.,-6.27619946816609E-17));
#1114=DIRECTION('ref_axis',(-0.707106781186548,0.,0.707106781186547));
#1115=DIRECTION('',(-1.40583764726151E-31,1.,1.12697672297436E-15));
#1116=DIRECTION('center_axis',(1.,0.,1.65704929048537E-16));
#1117=DIRECTION('ref_axis',(-1.65704929048537E-16,0.,1.));
#1118=DIRECTION('',(1.,0.,1.65704929048537E-16));
#1119=DIRECTION('center_axis',(-1.,3.60822483003176E-16,2.35055030994857E-16));
#1120=DIRECTION('ref_axis',(-1.65704929048537E-16,0.,1.));
#1121=DIRECTION('',(-1.,0.,-1.65704929048525E-16));
#1122=DIRECTION('center_axis',(1.40583764726151E-31,-1.,-1.12697672297436E-15));
#1123=DIRECTION('ref_axis',(0.707106781186547,0.,0.707106781186548));
#1124=DIRECTION('',(-1.40583764726151E-31,1.,1.12697672297436E-15));
#1125=DIRECTION('center_axis',(1.03999718756693E-32,-1.,-6.27619946816609E-17));
#1126=DIRECTION('ref_axis',(0.707106781186547,0.,0.707106781186548));
#1127=DIRECTION('',(1.40583764726151E-31,-1.,-1.12697672297436E-15));
#1128=DIRECTION('',(-1.40583764726151E-31,1.,1.12697672297436E-15));
#1129=DIRECTION('center_axis',(-1.,3.60822483003176E-16,2.35055030994857E-16));
#1130=DIRECTION('ref_axis',(2.35055030994857E-16,0.,1.));
#1131=DIRECTION('',(-3.60822483003176E-16,-1.,3.70074341541719E-16));
#1132=DIRECTION('center_axis',(1.,-3.60822483003176E-16,-2.35055030994857E-16));
#1133=DIRECTION('ref_axis',(-1.65704929048537E-16,0.,1.));
#1134=DIRECTION('center_axis',(-1.65704929048537E-16,-1.12697672297436E-15,
1.));
#1135=DIRECTION('ref_axis',(1.87829453829061E-17,-1.,-1.12697672297436E-15));
#1136=DIRECTION('',(-1.,0.,-1.65704929048525E-16));
#1137=DIRECTION('center_axis',(0.,-1.,0.));
#1138=DIRECTION('ref_axis',(-8.32667268468867E-17,0.,1.));
#1139=DIRECTION('',(-1.,0.,0.));
#1140=DIRECTION('center_axis',(0.,-5.01777779126338E-34,-1.));
#1141=DIRECTION('ref_axis',(6.02614991758979E-18,-1.,5.01777779126338E-34));
#1142=DIRECTION('',(-1.,0.,0.));
#1143=DIRECTION('center_axis',(1.,0.,1.24744160070242E-16));
#1144=DIRECTION('ref_axis',(1.24744160070242E-16,0.,-1.));
#1145=DIRECTION('',(-8.32667268468867E-17,-6.27619946816609E-17,1.));
#1146=DIRECTION('center_axis',(1.,0.,1.65704929048537E-16));
#1147=DIRECTION('ref_axis',(-1.65704929048537E-16,0.,1.));
#1148=DIRECTION('',(-1.,0.,-1.65704929048537E-16));
#1149=DIRECTION('center_axis',(-1.03999718756693E-32,1.,6.27619946816609E-17));
#1150=DIRECTION('ref_axis',(-8.32667268468867E-17,-6.27619946816609E-17,
1.));
#1151=DIRECTION('center_axis',(1.65704929048537E-16,-3.70074341541719E-16,
-1.));
#1152=DIRECTION('ref_axis',(-6.02614991758976E-18,1.,-3.70074341541719E-16));
#1153=CARTESIAN_POINT('',(0.,0.,0.));
#1154=CARTESIAN_POINT('Origin',(-16.65,17.5,-68.1999999999997));
#1155=CARTESIAN_POINT('',(-19.5,17.5,-68.1999999999997));
#1156=CARTESIAN_POINT('Origin',(-16.65,17.5,-68.1999999999997));
#1157=CARTESIAN_POINT('',(-19.5,17.5,-66.5999999999997));
#1158=CARTESIAN_POINT('',(-19.5,17.5,-68.1999999999997));
#1159=CARTESIAN_POINT('Origin',(-16.65,17.5,-66.5999999999997));
#1160=CARTESIAN_POINT('Origin',(-4.05694043007814E-14,17.5,-66.5999999999997));
#1161=CARTESIAN_POINT('',(-18.3,17.5,-66.5999999999997));
#1162=CARTESIAN_POINT('Origin',(-16.65,17.5,-66.5999999999997));
#1163=CARTESIAN_POINT('Origin',(16.65,17.5,-68.1999999999997));
#1164=CARTESIAN_POINT('',(13.8,17.5,-68.1999999999997));
#1165=CARTESIAN_POINT('Origin',(16.65,17.5,-68.1999999999997));
#1166=CARTESIAN_POINT('',(13.8,17.5,-66.5999999999997));
#1167=CARTESIAN_POINT('',(13.8,17.5,-68.1999999999997));
#1168=CARTESIAN_POINT('Origin',(16.65,17.5,-66.5999999999997));
#1169=CARTESIAN_POINT('Origin',(-4.05694043007814E-14,17.5,-66.5999999999997));
#1170=CARTESIAN_POINT('',(15.,17.5,-66.5999999999997));
#1171=CARTESIAN_POINT('Origin',(16.65,17.5,-66.5999999999997));
#1172=CARTESIAN_POINT('Origin',(16.65,17.5,-64.5));
#1173=CARTESIAN_POINT('',(15.,17.5,-64.5));
#1174=CARTESIAN_POINT('Origin',(16.65,17.5,-64.5));
#1175=CARTESIAN_POINT('',(15.,17.5,-64.5));
#1176=CARTESIAN_POINT('Origin',(-16.65,17.5,-64.5));
#1177=CARTESIAN_POINT('',(-18.3,17.5,-64.5));
#1178=CARTESIAN_POINT('Origin',(-16.65,17.5,-64.5));
#1179=CARTESIAN_POINT('',(-18.3,17.5,-64.5));
#1180=CARTESIAN_POINT('Origin',(-28.3563256621433,33.5,-71.1999999999997));
#1181=CARTESIAN_POINT('',(-28.3563256621433,1.5,-68.1999999999997));
#1182=CARTESIAN_POINT('',(-30.8846955351287,1.5,-69.5852722256116));
#1183=CARTESIAN_POINT('Origin',(-28.3563256621433,1.5,-71.1999999999997));
#1184=CARTESIAN_POINT('',(-30.8846955351287,33.5,-69.5852722256116));
#1185=CARTESIAN_POINT('',(-30.8846955351287,33.5,-69.5852722256116));
#1186=CARTESIAN_POINT('',(-28.3563256621433,33.5,-68.1999999999997));
#1187=CARTESIAN_POINT('Origin',(-28.3563256621433,33.5,-71.1999999999997));
#1188=CARTESIAN_POINT('',(-28.3563256621433,25.5,-68.1999999999997));
#1189=CARTESIAN_POINT('Origin',(-31.9956140256514,33.5,-71.3247684350235));
#1190=CARTESIAN_POINT('',(-31.9956140256514,1.5,-71.3247684350235));
#1191=CARTESIAN_POINT('',(-26.6838733064507,1.5,-63.0075490123092));
#1192=CARTESIAN_POINT('',(-31.9956140256514,33.5,-71.3247684350235));
#1193=CARTESIAN_POINT('',(-31.9956140256514,33.5,-71.3247684350235));
#1194=CARTESIAN_POINT('',(-33.6103418000394,33.5,-73.8531383080088));
#1195=CARTESIAN_POINT('Origin',(-33.5547754473257,33.5,-70.3290196408175));
#1196=CARTESIAN_POINT('',(-35.1139368899838,1.5,-69.3332708794684));
#1197=CARTESIAN_POINT('Origin',(-33.5547754473257,1.5,-70.3290196408175));
#1198=CARTESIAN_POINT('',(-35.1139368899838,33.5,-69.3332708794684));
#1199=CARTESIAN_POINT('',(-35.1139368899838,33.5,-69.3332708794684));
#1200=CARTESIAN_POINT('Origin',(-33.5547754473257,33.5,-70.3290196408175));
#1201=CARTESIAN_POINT('Origin',(-34.0030183784772,33.5,-67.5937746371997));
#1202=CARTESIAN_POINT('',(-34.0030183784772,1.5,-67.5937746371997));
#1203=CARTESIAN_POINT('',(-29.2467369045379,1.5,-60.1463033191914));
#1204=CARTESIAN_POINT('',(-34.0030183784772,33.5,-67.5937746371997));
#1205=CARTESIAN_POINT('',(-34.0030183784772,33.5,-67.5937746371997));
#1206=CARTESIAN_POINT('',(-36.728664643388,33.5,-71.8616407195969));
#1207=CARTESIAN_POINT('Origin',(-28.3563256621433,33.5,-71.1999999999997));
#1208=CARTESIAN_POINT('',(-28.3563256621433,1.5,-64.5));
#1209=CARTESIAN_POINT('Origin',(-28.3563256621433,1.5,-71.1999999999997));
#1210=CARTESIAN_POINT('',(-28.3563256621433,33.5,-64.5));
#1211=CARTESIAN_POINT('',(-28.3563256621433,9.5,-64.5));
#1212=CARTESIAN_POINT('Origin',(-28.3563256621433,33.5,-71.1999999999997));
#1213=CARTESIAN_POINT('Origin',(28.3563256621433,33.5,-71.1999999999997));
#1214=CARTESIAN_POINT('',(30.8846955351287,1.5,-69.5852722256117));
#1215=CARTESIAN_POINT('',(28.3563256621433,1.5,-68.1999999999997));
#1216=CARTESIAN_POINT('Origin',(28.3563256621433,1.5,-71.1999999999997));
#1217=CARTESIAN_POINT('',(28.3563256621433,33.5,-68.1999999999997));
#1218=CARTESIAN_POINT('',(28.3563256621433,9.5,-68.1999999999997));
#1219=CARTESIAN_POINT('',(30.8846955351287,33.5,-69.5852722256117));
#1220=CARTESIAN_POINT('Origin',(28.3563256621433,33.5,-71.1999999999997));
#1221=CARTESIAN_POINT('',(30.8846955351287,33.5,-69.5852722256117));
#1222=CARTESIAN_POINT('Origin',(28.3563256621433,33.5,-71.1999999999997));
#1223=CARTESIAN_POINT('',(28.3563256621433,1.5,-64.5));
#1224=CARTESIAN_POINT('',(34.0030183784773,1.5,-67.5937746371999));
#1225=CARTESIAN_POINT('Origin',(28.3563256621433,1.5,-71.1999999999997));
#1226=CARTESIAN_POINT('',(34.0030183784773,33.5,-67.5937746371999));
#1227=CARTESIAN_POINT('',(34.0030183784773,33.5,-67.5937746371999));
#1228=CARTESIAN_POINT('',(28.3563256621433,33.5,-64.5));
#1229=CARTESIAN_POINT('Origin',(28.3563256621433,33.5,-71.1999999999997));
#1230=CARTESIAN_POINT('',(28.3563256621433,25.5,-64.5));
#1231=CARTESIAN_POINT('Origin',(35.1139368689999,33.5,-69.3332708466117));
#1232=CARTESIAN_POINT('',(35.1139368689999,1.5,-69.3332708466117));
#1233=CARTESIAN_POINT('',(29.8021961497998,1.5,-61.0160514238976));
#1234=CARTESIAN_POINT('',(35.1139368689999,33.5,-69.3332708466117));
#1235=CARTESIAN_POINT('',(35.1139368689999,33.5,-69.3332708466117));
#1236=CARTESIAN_POINT('',(34.0030183784773,33.5,-67.5937746371999));
#1237=CARTESIAN_POINT('Origin',(33.5547754473256,33.5,-70.3290196408176));
#1238=CARTESIAN_POINT('',(31.9956140256512,1.5,-71.3247684350235));
#1239=CARTESIAN_POINT('Origin',(33.5547754473256,1.5,-70.3290196408176));
#1240=CARTESIAN_POINT('',(31.9956140256512,33.5,-71.3247684350235));
#1241=CARTESIAN_POINT('',(31.9956140256512,33.5,-71.3247684350235));
#1242=CARTESIAN_POINT('Origin',(33.5547754473256,33.5,-70.3290196408176));
#1243=CARTESIAN_POINT('Origin',(30.8846955351287,33.5,-69.5852722256117));
#1244=CARTESIAN_POINT('',(26.1284140611898,1.5,-62.1378009076035));
#1245=CARTESIAN_POINT('',(30.8846955351287,33.5,-69.5852722256117));
#1246=CARTESIAN_POINT('Origin',(3.49999999999934,15.0207259421638,-64.5));
#1247=CARTESIAN_POINT('',(3.49999999999934,15.0207259421638,-64.5));
#1248=CARTESIAN_POINT('',(3.49999999999938,10.9792740578364,-64.5));
#1249=CARTESIAN_POINT('',(3.49999999999941,8.26036297108189,-64.5));
#1250=CARTESIAN_POINT('',(3.49999999999934,15.0207259421638,-67.7));
#1251=CARTESIAN_POINT('',(3.49999999999934,15.0207259421638,-64.5));
#1252=CARTESIAN_POINT('',(3.49999999999938,10.9792740578364,-67.7));
#1253=CARTESIAN_POINT('',(3.49999999999934,15.0207259421638,-67.7));
#1254=CARTESIAN_POINT('',(3.49999999999938,10.9792740578364,-64.5));
#1255=CARTESIAN_POINT('Origin',(-6.42264019745653E-13,17.0414518843274,
-64.5));
#1256=CARTESIAN_POINT('',(-6.42264019745653E-13,17.0414518843274,-64.5));
#1257=CARTESIAN_POINT('',(3.36482303587979,15.0987703987864,-64.5));
#1258=CARTESIAN_POINT('',(-6.42264019745653E-13,17.0414518843274,-67.7));
#1259=CARTESIAN_POINT('',(-6.42264019745653E-13,17.0414518843274,-64.5));
#1260=CARTESIAN_POINT('',(-6.42264019745653E-13,17.0414518843274,-67.7));
#1261=CARTESIAN_POINT('Origin',(-3.50000000000063,15.0207259421637,-64.5));
#1262=CARTESIAN_POINT('',(-3.50000000000063,15.0207259421637,-64.5));
#1263=CARTESIAN_POINT('',(-5.11482303588073,14.0884074277048,-64.5));
#1264=CARTESIAN_POINT('',(-3.50000000000063,15.0207259421637,-67.7));
#1265=CARTESIAN_POINT('',(-3.50000000000063,15.0207259421637,-64.5));
#1266=CARTESIAN_POINT('',(-3.50000000000063,15.0207259421637,-67.7));
#1267=CARTESIAN_POINT('Origin',(-3.50000000000062,10.9792740578364,-64.5));
#1268=CARTESIAN_POINT('',(-3.50000000000062,10.9792740578364,-64.5));
#1269=CARTESIAN_POINT('',(-3.50000000000061,6.23963702891818,-64.5));
#1270=CARTESIAN_POINT('',(-3.50000000000062,10.9792740578364,-67.7));
#1271=CARTESIAN_POINT('',(-3.50000000000062,10.9792740578364,-64.5));
#1272=CARTESIAN_POINT('',(-3.50000000000062,10.9792740578364,-67.7));
#1273=CARTESIAN_POINT('Origin',(-6.36712904622527E-13,8.95854811567268,
-64.5));
#1274=CARTESIAN_POINT('',(-6.36712904622527E-13,8.95854811567268,-64.5));
#1275=CARTESIAN_POINT('',(1.61482303587981,8.02622960121349,-64.5));
#1276=CARTESIAN_POINT('',(-6.36712904622527E-13,8.95854811567268,-67.7));
#1277=CARTESIAN_POINT('',(-6.36712904622527E-13,8.95854811567268,-64.5));
#1278=CARTESIAN_POINT('',(-6.36712904622527E-13,8.95854811567268,-67.7));
#1279=CARTESIAN_POINT('Origin',(3.49999999999938,10.9792740578364,-64.5));
#1280=CARTESIAN_POINT('',(0.135176964119273,9.03659257229554,-64.5));
#1281=CARTESIAN_POINT('',(3.49999999999938,10.9792740578364,-67.7));
#1282=CARTESIAN_POINT('Origin',(-6.21169782277775E-13,13.,-67.7));
#1283=CARTESIAN_POINT('Origin',(-1.78044254151356E-13,27.,-64.));
#1284=CARTESIAN_POINT('',(-5.500510257217,27.5,-63.5));
#1285=CARTESIAN_POINT('',(-7.95000000000018,26.5,-64.5));
#1286=CARTESIAN_POINT('Origin',(-7.95000000000018,30.,-61.));
#1287=CARTESIAN_POINT('',(7.94999999999983,26.5,-64.5));
#1288=CARTESIAN_POINT('',(-1.78044254151356E-13,26.5,-64.5));
#1289=CARTESIAN_POINT('',(5.50051025721665,27.5,-63.5));
#1290=CARTESIAN_POINT('Origin',(7.94999999999983,30.,-61.));
#1291=CARTESIAN_POINT('',(-1.78044254151356E-13,27.5,-63.5));
#1292=CARTESIAN_POINT('Origin',(-1.77965914202427E-13,1.5,-64.5));
#1293=CARTESIAN_POINT('',(7.94999999999983,33.5,-64.5));
#1294=CARTESIAN_POINT('',(7.94999999999983,16.,-64.5));
#1295=CARTESIAN_POINT('',(-7.95000000000018,33.5,-64.5));
#1296=CARTESIAN_POINT('',(-7.95000000000018,16.,-64.5));
#1297=CARTESIAN_POINT('',(-1.7815875099979E-13,33.5,-64.5));
#1298=CARTESIAN_POINT('',(-1.77965914202427E-13,1.5,-64.5));
#1299=CARTESIAN_POINT('',(-1.7815875099979E-13,33.5,-64.5));
#1300=CARTESIAN_POINT('Origin',(-1.85431764548012E-13,26.,-4.94233583026193));
#1301=CARTESIAN_POINT('',(4.44999999999982,27.5,-6.44233583026193));
#1302=CARTESIAN_POINT('',(1.44999999999977,24.5,-3.44233583026193));
#1303=CARTESIAN_POINT('',(6.98813870989418,30.0381387098944,-8.98047454015633));
#1304=CARTESIAN_POINT('',(-1.45000000000024,24.5,-3.44233583026193));
#1305=CARTESIAN_POINT('',(-1.85680321941585E-13,24.5,-3.44233583026193));
#1306=CARTESIAN_POINT('',(-4.45000000000018,27.5,-6.44233583026193));
#1307=CARTESIAN_POINT('',(-6.98813870989463,30.0381387098944,-8.98047454015632));
#1308=CARTESIAN_POINT('',(-1.85183207154439E-13,27.5,-6.44233583026193));
#1309=CARTESIAN_POINT('Origin',(-1.78122594100285E-13,27.5,-64.5));
#1310=CARTESIAN_POINT('',(4.44999999999982,27.5,-61.));
#1311=CARTESIAN_POINT('Origin',(7.94999999999983,27.5,-61.));
#1312=CARTESIAN_POINT('',(4.44999999999982,27.5,-3.44233583026193));
#1313=CARTESIAN_POINT('',(-4.45000000000018,27.5,-61.));
#1314=CARTESIAN_POINT('',(-4.45000000000018,27.5,-3.44233583026193));
#1315=CARTESIAN_POINT('Origin',(-7.95000000000018,27.5,-61.));
#1316=CARTESIAN_POINT('Origin',(-2.77500000000024,25.825,-32.4711680896283));
#1317=CARTESIAN_POINT('',(-1.10000000000024,24.15,-3.44233583026193));
#1318=CARTESIAN_POINT('',(1.07492229803126,21.9750777019685,-3.44233583026192));
#1319=CARTESIAN_POINT('',(-1.10000000000023,24.15,2.55444770872986));
#1320=CARTESIAN_POINT('',(-1.10000000000024,24.15,-32.4711680896283));
#1321=CARTESIAN_POINT('',(-4.45000000000018,27.5,-0.942336528251305));
#1322=CARTESIAN_POINT('Origin',(-0.950000000000183,23.9999999999999,-0.942336528251309));
#1323=CARTESIAN_POINT('',(-4.45000000000018,27.5,-3.44233583026193));
#1324=CARTESIAN_POINT('Origin',(-1.10000000000024,21.8501555784344,-0.442336179256615));
#1325=CARTESIAN_POINT('',(-1.10000000000024,13.2003108078741,-3.44233583026193));
#1326=CARTESIAN_POINT('',(-1.10000000000023,27.6750777892172,-3.44233583026193));
#1327=CARTESIAN_POINT('',(-1.10000000000024,13.061443119996,2.55444770872985));
#1328=CARTESIAN_POINT('Origin',(-1.10000000000024,13.2003108078741,-0.442336179256626));
#1329=CARTESIAN_POINT('',(-1.10000000000023,32.,2.55444770872987));
#1330=CARTESIAN_POINT('',(-1.10000000000024,13.2003108078741,-2.09233617925663));
#1331=CARTESIAN_POINT('Origin',(-1.10000000000024,13.2003108078741,-0.442336179256626));
#1332=CARTESIAN_POINT('Origin',(2.77499999999976,25.825,-32.4711680896283));
#1333=CARTESIAN_POINT('',(1.09999999999976,24.15,-3.44233583026193));
#1334=CARTESIAN_POINT('',(-1.07492229803171,21.9750777019685,-3.44233583026193));
#1335=CARTESIAN_POINT('',(4.44999999999982,27.5,-0.942336528251304));
#1336=CARTESIAN_POINT('',(4.44999999999982,27.5,-3.44233583026193));
#1337=CARTESIAN_POINT('',(1.09999999999977,24.15,2.55444770872987));
#1338=CARTESIAN_POINT('Origin',(0.949999999999817,24.0000000000001,-0.942336528251309));
#1339=CARTESIAN_POINT('',(1.09999999999976,24.15,-32.4711680896283));
#1340=CARTESIAN_POINT('Origin',(-7.95000000000018,16.,-61.));
#1341=CARTESIAN_POINT('',(-4.45000000000018,33.5,-61.));
#1342=CARTESIAN_POINT('',(-4.45000000000018,16.,-61.));
#1343=CARTESIAN_POINT('Origin',(-7.95000000000018,33.5,-61.));
#1344=CARTESIAN_POINT('Origin',(-4.45000000000018,30.5,-30.9711682641257));
#1345=CARTESIAN_POINT('',(-4.45000000000018,33.5,-0.9423365282513));
#1346=CARTESIAN_POINT('',(-4.45000000000018,32.,-0.9423365282513));
#1347=CARTESIAN_POINT('',(-4.45000000000018,33.5,-68.1999999999997));
#1348=CARTESIAN_POINT('Origin',(7.94999999999983,16.,-61.));
#1349=CARTESIAN_POINT('',(4.44999999999982,33.5,-61.));
#1350=CARTESIAN_POINT('Origin',(7.94999999999983,33.5,-61.));
#1351=CARTESIAN_POINT('',(4.44999999999983,16.,-61.));
#1352=CARTESIAN_POINT('Origin',(-0.950000000000183,32.,-0.9423365282513));
#1353=CARTESIAN_POINT('',(-0.950000000000184,33.5,2.55766347174868));
#1354=CARTESIAN_POINT('Origin',(-0.950000000000183,33.5,-0.942336528251298));
#1355=CARTESIAN_POINT('',(-0.950000000000184,13.2003108078741,2.55766347174868));
#1356=CARTESIAN_POINT('Ctrl Pts',(-1.10000000000023,13.061443119996,2.55444770872985));
#1357=CARTESIAN_POINT('Ctrl Pts',(-1.04956190473667,13.1081343506961,2.55661132929572));
#1358=CARTESIAN_POINT('Ctrl Pts',(-0.999529734926814,13.1544551864098,2.55766347174868));
#1359=CARTESIAN_POINT('Ctrl Pts',(-0.950000000000184,13.2003108078741,2.55766347174868));
#1360=CARTESIAN_POINT('',(-0.950000000000184,32.,2.5576634717487));
#1361=CARTESIAN_POINT('Origin',(-1.8337029402525E-13,13.2003108078741,-0.442336179256626));
#1362=CARTESIAN_POINT('',(1.09999999999976,13.2003108078741,-3.44233583026193));
#1363=CARTESIAN_POINT('',(-1.83120493873769E-13,13.2003108078741,-3.44233583026193));
#1364=CARTESIAN_POINT('',(1.09999999999976,13.0614431199961,2.55444770872985));
#1365=CARTESIAN_POINT('Origin',(1.09999999999976,13.2003108078741,-0.442336179256626));
#1366=CARTESIAN_POINT('',(0.949999999999817,13.2003108078741,2.55766347174868));
#1367=CARTESIAN_POINT('Ctrl Pts',(0.949999999999817,13.2003108078741,2.55766347174868));
#1368=CARTESIAN_POINT('Ctrl Pts',(0.999529734926414,13.1544551864098,2.55766347174868));
#1369=CARTESIAN_POINT('Ctrl Pts',(1.04956190473623,13.1081343506962,2.55661132929572));
#1370=CARTESIAN_POINT('Ctrl Pts',(1.09999999999976,13.0614431199961,2.55444770872985));
#1371=CARTESIAN_POINT('',(-1.83676284063388E-13,13.2003108078741,2.55766347174868));
#1372=CARTESIAN_POINT('Origin',(0.949999999999817,32.,-0.9423365282513));
#1373=CARTESIAN_POINT('',(4.44999999999982,33.5,-0.9423365282513));
#1374=CARTESIAN_POINT('',(4.44999999999982,32.,-0.942336528251299));
#1375=CARTESIAN_POINT('',(0.949999999999817,33.5,2.55766347174868));
#1376=CARTESIAN_POINT('Origin',(0.949999999999817,33.5,-0.942336528251298));
#1377=CARTESIAN_POINT('',(0.949999999999817,32.,2.5576634717487));
#1378=CARTESIAN_POINT('',(1.09999999999977,32.,2.55444770872987));
#1379=CARTESIAN_POINT('Origin',(1.09999999999976,21.8501555784344,-0.442336179256615));
#1380=CARTESIAN_POINT('',(1.09999999999976,17.5252331931542,-3.44233583026192));
#1381=CARTESIAN_POINT('',(1.09999999999976,13.2003108078741,-2.09233617925663));
#1382=CARTESIAN_POINT('Origin',(1.09999999999976,13.2003108078741,-0.442336179256626));
#1383=CARTESIAN_POINT('Origin',(-1.84057572016774E-13,33.5,2.5576634717487));
#1384=CARTESIAN_POINT('',(-1.83742423147083E-13,33.5,2.55766347174868));
#1385=CARTESIAN_POINT('Origin',(-1.77657827313094E-13,1.5,-68.1999999999997));
#1386=CARTESIAN_POINT('',(-1.77657827313094E-13,1.5,-68.1999999999997));
#1387=CARTESIAN_POINT('Origin',(-1.77850664110457E-13,33.5,-68.1999999999997));
#1388=CARTESIAN_POINT('',(-1.77850664110457E-13,33.5,-68.1999999999997));
#1389=CARTESIAN_POINT('Origin',(4.44999999999982,30.5,-30.9711682641257));
#1390=CARTESIAN_POINT('',(4.44999999999982,33.5,-68.1999999999997));
#1391=CARTESIAN_POINT('Origin',(-1.8337029402525E-13,13.2003108078741,-0.442336179256626));
#1392=CARTESIAN_POINT('',(-1.83096880892319E-13,13.2003108078741,-2.09233617925663));
#1393=CARTESIAN_POINT('Origin',(-1.83242822844121E-13,33.5,-3.44233583026193));
#1394=CARTESIAN_POINT('Origin',(-1.83120493873769E-13,13.2003108078741,
-3.44233583026192));
#1395=UNCERTAINTY_MEASURE_WITH_UNIT(LENGTH_MEASURE(0.01),#1399,
'DISTANCE_ACCURACY_VALUE',
'Maximum model space distance between geometric entities at asserted c
onnectivities');
#1396=UNCERTAINTY_MEASURE_WITH_UNIT(LENGTH_MEASURE(0.01),#1399,
'DISTANCE_ACCURACY_VALUE',
'Maximum model space distance between geometric entities at asserted c
onnectivities');
#1397=(
GEOMETRIC_REPRESENTATION_CONTEXT(3)
GLOBAL_UNCERTAINTY_ASSIGNED_CONTEXT((#1395))
GLOBAL_UNIT_ASSIGNED_CONTEXT((#1399,#1401,#1402))
REPRESENTATION_CONTEXT('','3D')
);
#1398=(
GEOMETRIC_REPRESENTATION_CONTEXT(3)
GLOBAL_UNCERTAINTY_ASSIGNED_CONTEXT((#1396))
GLOBAL_UNIT_ASSIGNED_CONTEXT((#1399,#1401,#1402))
REPRESENTATION_CONTEXT('','3D')
);
#1399=(
LENGTH_UNIT()
NAMED_UNIT(*)
SI_UNIT(.MILLI.,.METRE.)
);
#1400=(
LENGTH_UNIT()
NAMED_UNIT(*)
SI_UNIT($,.METRE.)
);
#1401=(
NAMED_UNIT(*)
PLANE_ANGLE_UNIT()
SI_UNIT($,.RADIAN.)
);
#1402=(
NAMED_UNIT(*)
SI_UNIT($,.STERADIAN.)
SOLID_ANGLE_UNIT()
);
#1403=SHAPE_DEFINITION_REPRESENTATION(#1404,#1405);
#1404=PRODUCT_DEFINITION_SHAPE('',$,#1407);
#1405=SHAPE_REPRESENTATION('',(#837),#1397);
#1406=PRODUCT_DEFINITION_CONTEXT('part definition',#1411,'design');
#1407=PRODUCT_DEFINITION('Kick Surface','Kick Surface',#1408,#1406);
#1408=PRODUCT_DEFINITION_FORMATION('',$,#1413);
#1409=PRODUCT_RELATED_PRODUCT_CATEGORY('Kick Surface','Kick Surface',(#1413));
#1410=APPLICATION_PROTOCOL_DEFINITION('international standard',
'ap242_managed_model_based_3d_engineering',2011,#1411);
#1411=APPLICATION_CONTEXT('Managed model based 3d engineering');
#1412=PRODUCT_CONTEXT('part definition',#1411,'mechanical');
#1413=PRODUCT('Kick Surface','Kick Surface',$,(#1412));
#1414=PRESENTATION_STYLE_ASSIGNMENT((#1416));
#1415=PRESENTATION_STYLE_ASSIGNMENT((#1417));
#1416=SURFACE_STYLE_USAGE(.BOTH.,#1418);
#1417=SURFACE_STYLE_USAGE(.BOTH.,#1419);
#1418=SURFACE_SIDE_STYLE('',(#1420));
#1419=SURFACE_SIDE_STYLE('',(#1421));
#1420=SURFACE_STYLE_FILL_AREA(#1422);
#1421=SURFACE_STYLE_FILL_AREA(#1423);
#1422=FILL_AREA_STYLE('Steel - Satin',(#1424));
#1423=FILL_AREA_STYLE('Plastic - Matte (Black)',(#1425));
#1424=FILL_AREA_STYLE_COLOUR('Steel - Satin',#1426);
#1425=FILL_AREA_STYLE_COLOUR('Plastic - Matte (Black)',#1427);
#1426=COLOUR_RGB('Steel - Satin',0.627450980392157,0.627450980392157,0.627450980392157);
#1427=COLOUR_RGB('Plastic - Matte (Black)',0.0980392156862745,0.0980392156862745,
0.0980392156862745);
ENDSEC;
END-ISO-10303-21;
