0
SECTION
2
HEADER
9
$INSUNITS
70
4
9
$ACADVER
1
AC1014
9
$HANDSEED
5
FFFF
0
ENDSEC
0
SECTION
2
TABLES
0
TABLE
2
VPORT
5
8
100
AcDbSymbolTable
0
ENDTAB
0
TABLE
2
LTYPE
5
5
100
AcDbSymbolTable
0
LTYPE
5
14
100
AcDbSymbolTableRecord
100
AcDbLinetypeTableRecord
2
BYBLOCK
70
0
0
LTYPE
5
15
100
AcDbSymbolTableRecord
100
AcDbLinetypeTableRecord
2
BYLAYER
70
0
0
LTYPE
5
16
100
AcDbSymbolTableRecord
100
AcDbLinetypeTableRecord
2
DASHED
70
0
3
Dashed __ __ __ __ __ __ __ __ __ __ __ __ __ _
72
65
73
2
40
0.75
49
0.5
74
0
49
-0.25
74
0
0
ENDTAB
0
TABLE
2
LAYER
5
2
100
AcDbSymbolTable
70
3
0
LAYER
5
50
100
AcDbSymbolTableRecord
100
AcDbLayerTableRecord
2
1
70
0
62
7
6
DASHED
0
LAYER
5
51
100
AcDbSymbolTableRecord
100
AcDbLayerTableRecord
2
0
70
0
62
7
6
CONTINUOUS
0
ENDTAB
0
TABLE
2
STYLE
5
3
100
AcDbSymbolTable
70
1
0
STYLE
5
11
100
AcDbSymbolTableRecord
100
AcDbTextStyleTableRecord
2
STANDARD
70
0
0
ENDTAB
0
TABLE
2
VIEW
5
6
100
AcDbSymbolTable
70
0
0
ENDTAB
0
TABLE
2
UCS
5
7
100
AcDbSymbolTable
70
0
0
ENDTAB
0
TABLE
2
APPID
5
9
100
AcDbSymbolTable
70
2
0
APPID
5
12
100
AcDbSymbolTableRecord
100
AcDbRegAppTableRecord
2
ACAD
70
0
0
ENDTAB
0
TABLE
2
DIMSTYLE
5
A
100
AcDbSymbolTable
70
1
0
ENDTAB
0
TABLE
2
BLOCK_RECORD
5
1
100
AcDbSymbolTable
70
1
0
BLOCK_RECORD
5
1F
100
AcDbSymbolTableRecord
100
AcDbBlockTableRecord
2
*MODEL_SPACE
0
BLOCK_RECORD
5
1B
100
AcDbSymbolTableRecord
100
AcDbBlockTableRecord
2
*PAPER_SPACE
0
ENDTAB
0
ENDSEC
0
SECTION
2
BLOCKS
0
BLOCK
5
20
100
AcDbEntity
100
AcDbBlockBegin
2
*MODEL_SPACE
0
ENDBLK
5
21
100
AcDbEntity
100
AcDbBlockEnd
0
BLOCK
5
1C
100
AcDbEntity
100
AcDbBlockBegin
2
*PAPER_SPACE
0
ENDBLK
5
1D
100
AcDbEntity
100
AcDbBlockEnd
0
ENDSEC
0
SECTION
2
ENTITIES
0
CIRCLE
5
100
100
AcDbEntity
8
0
100
AcDbCircle
10
-25
20
-21.000000000000007
30
0
40
1.6500000000000004
210
0
220
-0
230
1
0
CIRCLE
5
101
100
AcDbEntity
8
0
100
AcDbCircle
10
25.000000000000036
20
20.999999999999996
30
0
40
1.6500000000000004
210
0
220
-0
230
1
0
CIRCLE
5
102
100
AcDbEntity
8
0
100
AcDbCircle
10
-25.000000000000036
20
20.999999999999996
30
0
40
1.6500000000000004
210
0
220
-0
230
1
0
CIRCLE
5
103
100
AcDbEntity
8
0
100
AcDbCircle
10
25.000000000000007
20
-21.000000000000007
30
0
40
1.6500000000000004
210
0
220
-0
230
1
0
CIRCLE
5
104
100
AcDbEntity
8
0
100
AcDbCircle
10
23.049999999999997
20
30
30
0
40
1.6500000000000004
210
0
220
-0
230
1
0
CIRCLE
5
105
100
AcDbEntity
8
0
100
AcDbCircle
10
-23.050000000000001
20
-30
30
0
40
1.6500000000000004
210
0
220
-0
230
1
0
CIRCLE
5
106
100
AcDbEntity
8
0
100
AcDbCircle
10
-23.050000000000001
20
30
30
0
40
1.6500000000000004
210
0
220
-0
230
1
0
CIRCLE
5
107
100
AcDbEntity
8
0
100
AcDbCircle
10
23.049999999999997
20
-30
30
0
40
1.6500000000000004
210
0
220
-0
230
1
0
LWPOLYLINE
5
108
100
AcDbEntity
8
0
100
AcDbPolyline
90
8
70
1
43
0.0
10
20
20
-10
10
20
20
9.9999999999999982
42
-0.41421356237309498
10
23
20
12.999999999999998
10
33
20
12.999999999999998
42
-0.41421356237309503
10
36
20
10
10
36
20
-9.9999999999999982
42
-0.41421356237309498
10
33
20
-12.999999999999998
10
23
20
-12.999999999999998
42
-0.41421356237309503
0
LWPOLYLINE
5
109
100
AcDbEntity
8
0
100
AcDbPolyline
90
8
70
1
43
0.0
10
-36
20
-10
10
-36
20
9.9999999999999982
42
-0.41421356237309498
10
-33
20
12.999999999999998
10
-23
20
13
42
-0.41421356237309503
10
-19.999999999999996
20
10
10
-20
20
-9.9999999999999982
42
-0.41421356237309498
10
-23
20
-12.999999999999998
10
-33
20
-12.999999999999998
42
-0.41421356237309503
0
ARC
5
110
100
AcDbEntity
8
0
100
AcDbCircle
10
0
20
0
30
0
40
90
210
0
220
0
230
1
100
AcDbArc
50
159.62285944217695
51
200.37714055782305
0
ARC
5
111
100
AcDbEntity
8
0
100
AcDbCircle
10
-81.555625743926257
20
-30.293232074452419
30
0
40
3.0000000000000004
210
0
220
0
230
1
100
AcDbArc
50
200.37714055782322
51
306.73341057631217
0
LINE
5
112
100
AcDbEntity
8
0
100
AcDbLine
10
-79.761348002685466
20
-32.697513128590607
30
0
11
-67.956812560543696
21
-23.88797101908251
31
0
0
ARC
5
113
100
AcDbEntity
8
0
100
AcDbCircle
10
-66.16253481930292
20
-26.292252073220695
30
0
40
2.9999999999999991
210
0
220
-0
230
1
100
AcDbArc
50
36.733410576315599
51
126.73341057631198
0
LINE
5
114
100
AcDbEntity
8
0
100
AcDbLine
10
-63.758253765164838
20
-24.497974331979758
30
0
11
-41.628828289885462
21
-54.150773999648379
31
0
0
ARC
5
115
100
AcDbEntity
8
0
100
AcDbCircle
10
-44.033109344023515
20
-55.945051740889333
30
0
40
2.9999999999999809
210
0
220
0
230
1
100
AcDbArc
50
-53.266589423683897
51
36.73341057631621
0
LINE
5
116
100
AcDbEntity
8
0
100
AcDbLine
10
-42.238831602782568
20
-58.349332795027387
30
0
11
-54.04336704494736
21
-67.158874904553983
31
0
0
LINE
5
117
100
AcDbEntity
8
0
100
AcDbLine
10
-33.62109422861888
20
-80.732641004968016
30
0
11
-30.882981761135746
21
-76.397869575036196
31
0
0
ARC
5
118
100
AcDbEntity
8
0
100
AcDbCircle
10
-28.346610711504905
20
-77.999999999999986
30
0
40
3.0000000000000071
210
0
220
0
230
1
100
AcDbArc
50
90.000000000000199
51
147.7209345266767
0
LINE
5
119
100
AcDbEntity
8
0
100
AcDbLine
10
-28.346610711504916
20
-74.999999999999972
30
0
11
28.346610711504894
21
-74.999999999999986
31
0
0
ARC
5
120
100
AcDbEntity
8
0
100
AcDbCircle
10
28.346610711504905
20
-77.999999999999972
30
0
40
2.9999999999999876
210
0
220
-0
230
1
100
AcDbArc
50
32.279065473323634
51
90.000000000000199
0
LINE
5
121
100
AcDbEntity
8
0
100
AcDbLine
10
30.882981761135714
20
-76.397869575036182
30
0
11
33.621094228618929
21
-80.732641004968016
31
0
0
LINE
5
122
100
AcDbEntity
8
0
100
AcDbLine
10
20.000000000000004
20
-57.5
30
0
11
19.999999999999996
21
47.500000000000007
31
0
0
LINE
5
123
100
AcDbEntity
8
0
100
AcDbLine
10
-20
20
47.500000000000007
30
0
11
-19.999999999999996
21
-57.5
31
0
0
LINE
5
124
100
AcDbEntity
8
0
100
AcDbLine
10
-19.999999999999996
20
-57.5
30
0
11
20.000000000000004
21
-57.5
31
0
0
LINE
5
125
100
AcDbEntity
8
1
100
AcDbLine
10
9.9999999999999734
20
85.10000000000629
30
0
11
-10.000000000000027
21
85.10000000000629
31
0
0
ARC
5
126
100
AcDbEntity
8
1
100
AcDbCircle
10
-10.000000000000027
20
77.599999999999994
30
0
40
7.5000000000062883
210
0
220
-0
230
1
100
AcDbArc
50
90
51
270
0
LINE
5
127
100
AcDbEntity
8
1
100
AcDbLine
10
-10.000000000000027
20
70.099999999993699
30
0
11
9.9999999999999734
21
70.099999999993699
31
0
0
ARC
5
128
100
AcDbEntity
8
1
100
AcDbCircle
10
9.9999999999999716
20
77.599999999999994
30
0
40
7.5000000000062972
210
0
220
0
230
1
100
AcDbArc
50
-90
51
89.999999999999986
0
LINE
5
129
100
AcDbEntity
8
1
100
AcDbLine
10
9.9999999999999716
20
77.599999999999994
30
0
11
-10.000000000000027
21
77.599999999999994
31
0
0
LINE
5
130
100
AcDbEntity
8
1
100
AcDbLine
10
-2.6645352591003757e-14
20
77.599999999999994
30
0
11
-3.1086244689504383e-14
21
90
31
0
0
LWPOLYLINE
5
131
100
AcDbEntity
8
0
100
AcDbPolyline
90
4
70
1
43
0.0
10
-58.649999999999991
20
-3.2499999999999991
10
-58.649999999999991
20
-16.25
10
-77.349999999999994
20
-16.25
10
-77.349999999999994
20
-3.2499999999999991
0
LWPOLYLINE
5
132
100
AcDbEntity
8
0
100
AcDbPolyline
90
4
70
1
43
0.0
10
-53.999999999999993
20
17.75
10
-53.999999999999993
20
1.7500000000000004
10
-82
20
1.7500000000000007
10
-82
20
17.75
0
LINE
5
133
100
AcDbEntity
8
1
100
AcDbLine
10
-22.000000000000011
20
47.500000000000007
30
0
11
-20
21
47.500000000000007
31
0
0
LINE
5
134
100
AcDbEntity
8
1
100
AcDbLine
10
21.999999999999993
20
47.500000000000007
30
0
11
22.000000000000245
21
49.800000000000004
31
0
0
LINE
5
135
100
AcDbEntity
8
1
100
AcDbLine
10
19.999999999999996
20
47.500000000000007
30
0
11
21.999999999999993
21
47.500000000000007
31
0
0
LINE
5
136
100
AcDbEntity
8
1
100
AcDbLine
10
19.999999999999993
20
57.5
30
0
11
-20.000000000000007
21
57.499999999999822
31
0
0
LINE
5
137
100
AcDbEntity
8
0
100
AcDbLine
10
0.56093829678728557
20
65.199999999999989
30
0
11
22.000000000000245
21
65.199999999999989
31
0
0
LINE
5
138
100
AcDbEntity
8
0
100
AcDbLine
10
-0.56093829678733587
20
65.199999999999989
30
0
11
-22.000000000000227
21
65.199999999999989
31
0
0
LINE
5
139
100
AcDbEntity
8
0
100
AcDbLine
10
0.56093829678728557
20
65.199999999999989
30
0
11
-0.56093829678733587
21
65.199999999999989
31
0
0
LINE
5
140
100
AcDbEntity
8
1
100
AcDbLine
10
-2.5118795932144167e-14
20
65.199999999999989
30
0
11
-2.6645352591003757e-14
21
77.599999999999994
31
0
0
LWPOLYLINE
5
141
100
AcDbEntity
8
0
100
AcDbPolyline
90
2
70
1
43
0.0
10
21.999999999999993
20
57.500000000000007
10
19.999999999999993
20
57.5
0
LINE
5
142
100
AcDbEntity
8
0
100
AcDbLine
10
-20.000000000000007
20
57.499999999999822
30
0
11
-22.000000000000011
21
57.5
31
0
0
LINE
5
143
100
AcDbEntity
8
0
100
AcDbLine
10
-20.000000000000007
20
57.499999999999822
30
0
11
-22.000000000000011
21
57.5
31
0
0
LINE
5
144
100
AcDbEntity
8
0
100
AcDbLine
10
-22.000000000000227
20
49.800000000000004
30
0
11
-22.000000000000011
21
47.500000000000007
31
0
0
LINE
5
145
100
AcDbEntity
8
0
100
AcDbLine
10
-22.000000000000227
20
56.299999999999997
30
0
11
-22.000000000000227
21
52.800000000000004
31
0
0
ARC
5
146
100
AcDbEntity
8
0
100
AcDbCircle
10
-44.033109344023529
20
55.945051740889326
30
0
40
3.0000000000000022
210
-0
220
0
230
1
100
AcDbArc
50
-36.733410576315798
51
53.266589423683655
0
LINE
5
147
100
AcDbEntity
8
0
100
AcDbLine
10
-41.628828289885448
20
54.150773999648379
30
0
11
-63.758253765164852
21
24.497974331979755
31
0
0
ARC
5
148
100
AcDbEntity
8
0
100
AcDbCircle
10
-66.16253481930292
20
26.292252073220688
30
0
40
2.999999999999992
210
0
220
0
230
1
100
AcDbArc
50
233.26658942368806
51
323.26658942368431
0
LINE
5
149
100
AcDbEntity
8
0
100
AcDbLine
10
-67.956812560543696
20
23.887971019082499
30
0
11
-79.76134800268548
21
32.697513128590614
31
0
0
ARC
5
150
100
AcDbEntity
8
0
100
AcDbCircle
10
-81.555625743926257
20
30.293232074452426
30
0
40
2.9999999999999956
210
0
220
-0
230
1
100
AcDbArc
50
53.266589423688046
51
159.62285944217663
0
ARC
5
151
100
AcDbEntity
8
0
100
AcDbCircle
10
-52.249089303706398
20
-69.56315595869205
30
0
40
3.0000000000000053
210
0
220
0
230
1
100
AcDbArc
50
126.73341057631615
51
233.08968059473887
0
ARC
5
152
100
AcDbEntity
8
0
100
AcDbCircle
10
0
20
0
30
0
40
90
210
0
220
0
230
1
100
AcDbArc
50
233.08968059473872
51
245.44270089778792
0
ARC
5
153
100
AcDbEntity
8
0
100
AcDbCircle
10
-36.157465278249688
20
-79.130510580004298
30
0
40
2.9999999999999787
210
0
220
0
230
1
100
AcDbArc
50
245.44270089778882
51
327.72093452667752
0
ARC
5
154
100
AcDbEntity
8
0
100
AcDbCircle
10
36.157465278249774
20
-79.13051058000417
30
0
40
3.0000000000000511
210
0
220
0
230
1
100
AcDbArc
50
212.27906547332418
51
294.55729910221135
0
ARC
5
155
100
AcDbEntity
8
0
100
AcDbCircle
10
0
20
0
30
0
40
90
210
-0
220
0
230
1
100
AcDbArc
50
294.55729910221214
51
306.91031940526125
0
ARC
5
156
100
AcDbEntity
8
0
100
AcDbCircle
10
52.24908930370637
20
-69.563155958692064
30
0
40
3.0000000000000338
210
-0
220
0
230
1
100
AcDbArc
50
-53.089680594738503
51
53.266589423683676
0
LINE
5
157
100
AcDbEntity
8
0
100
AcDbLine
10
54.043367044947352
20
-67.158874904553983
30
0
11
42.238831602782547
21
-58.349332795027422
31
0
0
ARC
5
158
100
AcDbEntity
8
0
100
AcDbCircle
10
44.033109344023529
20
-55.945051740889355
30
0
40
3.0000000000000164
210
0
220
0
230
1
100
AcDbArc
50
143.26658942368439
51
233.26658942368351
0
LINE
5
159
100
AcDbEntity
8
0
100
AcDbLine
10
41.628828289885433
20
-54.150773999648408
30
0
11
63.758253765164845
21
-24.497974331979755
31
0
0
ARC
5
160
100
AcDbEntity
8
0
100
AcDbCircle
10
66.16253481930292
20
-26.292252073220716
30
0
40
2.9999999999999987
210
0
220
-0
230
1
100
AcDbArc
50
53.266589423688139
51
143.26658942368394
0
LINE
5
161
100
AcDbEntity
8
0
100
AcDbLine
10
67.956812560543696
20
-23.887971019082521
30
0
11
79.761348002685452
21
-32.697513128590629
31
0
0
ARC
5
162
100
AcDbEntity
8
0
100
AcDbCircle
10
81.555625743926242
20
-30.293232074452455
30
0
40
2.9999999999999778
210
0
220
0
230
1
100
AcDbArc
50
233.26658942368766
51
339.62285944217706
0
ARC
5
163
100
AcDbEntity
8
0
100
AcDbCircle
10
0
20
0
30
0
40
89.999999999999986
210
-0
220
0
230
1
100
AcDbArc
50
-20.377140557823079
51
20.377140557823051
0
ARC
5
164
100
AcDbEntity
8
0
100
AcDbCircle
10
81.555625743926242
20
30.293232074452451
30
0
40
3.0000000000000031
210
0
220
-0
230
1
100
AcDbArc
50
20.377140557822397
51
126.73341057631238
0
LINE
5
165
100
AcDbEntity
8
0
100
AcDbLine
10
79.761348002685423
20
32.697513128590657
30
0
11
67.956812560543696
21
23.887971019082521
31
0
0
ARC
5
166
100
AcDbEntity
8
0
100
AcDbCircle
10
66.16253481930292
20
26.292252073220716
30
0
40
3.0000000000000004
210
0
220
0
230
1
100
AcDbArc
50
216.73341057631598
51
306.73341057631188
0
LINE
5
167
100
AcDbEntity
8
0
100
AcDbLine
10
63.758253765164845
20
24.497974331979762
30
0
11
41.62882828988544
21
54.150773999648393
31
0
0
ARC
5
168
100
AcDbEntity
8
0
100
AcDbCircle
10
44.033109344023529
20
55.945051740889333
30
0
40
3.000000000000016
210
0
220
0
230
1
100
AcDbArc
50
126.73341057631632
51
216.73341057631555
0
LINE
5
169
100
AcDbEntity
8
0
100
AcDbLine
10
42.238831602782554
20
58.349332795027408
30
0
11
54.043367044947331
21
67.158874904553997
31
0
0
ARC
5
170
100
AcDbEntity
8
0
100
AcDbCircle
10
52.24908930370637
20
69.563155958692064
30
0
40
3.0000000000000036
210
-0
220
0
230
1
100
AcDbArc
50
-53.266589423683847
51
53.089680594738766
0
ARC
5
171
100
AcDbEntity
8
0
100
AcDbCircle
10
0
20
0
30
0
40
89.999999999999986
210
0
220
-0
230
1
100
AcDbArc
50
53.089680594738738
51
126.91031940526133
0
ARC
5
172
100
AcDbEntity
8
0
100
AcDbCircle
10
-52.249089303706398
20
69.56315595869205
30
0
40
3.0000000000000231
210
0
220
0
230
1
100
AcDbArc
50
126.91031940526216
51
233.2665894236838
0
LINE
5
173
100
AcDbEntity
8
0
100
AcDbLine
10
-54.043367044947374
20
67.158874904553969
30
0
11
-42.238831602782568
21
58.349332795027394
31
0
0
CIRCLE
5
174
100
AcDbEntity
8
0
100
AcDbCircle
10
37.24908930370637
20
69.563155958692064
30
0
40
1.6500000000000004
210
0
220
-0
230
1
0
CIRCLE
5
175
100
AcDbEntity
8
0
100
AcDbCircle
10
81.555625743926242
20
-23.293232074452455
30
0
40
1.6499999999999915
210
0
220
-0
230
1
0
CIRCLE
5
176
100
AcDbEntity
8
0
100
AcDbCircle
10
-81.555625743926299
20
23.293232074452401
30
0
40
1.6499999999999915
210
0
220
-0
230
1
0
CIRCLE
5
177
100
AcDbEntity
8
0
100
AcDbCircle
10
-30.500000000000007
20
-61.549999999999976
30
0
40
1.6500000000000004
210
0
220
-0
230
1
0
CIRCLE
5
178
100
AcDbEntity
8
0
100
AcDbCircle
10
-81.555625743926299
20
-23.293232074452497
30
0
40
1.6499999999999915
210
0
220
-0
230
1
0
CIRCLE
5
179
100
AcDbEntity
8
0
100
AcDbCircle
10
30.499999999999993
20
-61.550000000000004
30
0
40
1.6500000000000004
210
0
220
-0
230
1
0
CIRCLE
5
180
100
AcDbEntity
8
0
100
AcDbCircle
10
-37.249089303706462
20
69.56315595869205
30
0
40
1.6500000000000004
210
0
220
-0
230
1
0
CIRCLE
5
181
100
AcDbEntity
8
0
100
AcDbCircle
10
81.555625743926242
20
23.293232074452437
30
0
40
1.6499999999999915
210
0
220
-0
230
1
0
LWPOLYLINE
5
182
100
AcDbEntity
8
0
100
AcDbPolyline
90
4
70
1
43
0.0
10
46.649999999999991
20
3.2499999999999996
10
46.649999999999991
20
16.25
10
65.349999999999994
20
16.25
10
65.349999999999994
20
3.2499999999999996
0
LWPOLYLINE
5
183
100
AcDbEntity
8
0
100
AcDbPolyline
90
4
70
1
43
0.0
10
42
20
-17.75
10
42
20
-1.7500000000000004
10
69.999999999999986
20
-1.7500000000000004
10
69.999999999999986
20
-17.75
0
ENDSEC
0
SECTION
2
OBJECTS
0
DICTIONARY
5
C
100
AcDbDictionary
3
ACAD_GROUP
350
D
3
ACAD_MLINESTYLE
350
17
0
DICTIONARY
5
D
100
AcDbDictionary
0
DICTIONARY
5
1A
330
C
100
AcDbDictionary
0
DICTIONARY
5
17
100
AcDbDictionary
0
ENDSEC
0
EOF
