0
SECTION
2
HEADER
9
$INSUNITS
70
4
9
$ACADVER
1
AC1014
9
$HANDSEED
5
FFFF
0
ENDSEC
0
SECTION
2
TABLES
0
TABLE
2
VPORT
5
8
100
AcDbSymbolTable
0
ENDTAB
0
TABLE
2
LTYPE
5
5
100
AcDbSymbolTable
0
LTYPE
5
14
100
AcDbSymbolTableRecord
100
AcDbLinetypeTableRecord
2
BYBLOCK
70
0
0
LTYPE
5
15
100
AcDbSymbolTableRecord
100
AcDbLinetypeTableRecord
2
BYLAYER
70
0
0
LTYPE
5
16
100
AcDbSymbolTableRecord
100
AcDbLinetypeTableRecord
2
DASHED
70
0
3
Dashed __ __ __ __ __ __ __ __ __ __ __ __ __ _
72
65
73
2
40
0.75
49
0.5
74
0
49
-0.25
74
0
0
ENDTAB
0
TABLE
2
LAYER
5
2
100
AcDbSymbolTable
70
3
0
LAYER
5
50
100
AcDbSymbolTableRecord
100
AcDbLayerTableRecord
2
1
70
0
62
7
6
DASHED
0
LAYER
5
51
100
AcDbSymbolTableRecord
100
AcDbLayerTableRecord
2
0
70
0
62
7
6
CONTINUOUS
0
ENDTAB
0
TABLE
2
STYLE
5
3
100
AcDbSymbolTable
70
1
0
STYLE
5
11
100
AcDbSymbolTableRecord
100
AcDbTextStyleTableRecord
2
STANDARD
70
0
0
ENDTAB
0
TABLE
2
VIEW
5
6
100
AcDbSymbolTable
70
0
0
ENDTAB
0
TABLE
2
UCS
5
7
100
AcDbSymbolTable
70
0
0
ENDTAB
0
TABLE
2
APPID
5
9
100
AcDbSymbolTable
70
2
0
APPID
5
12
100
AcDbSymbolTableRecord
100
AcDbRegAppTableRecord
2
ACAD
70
0
0
ENDTAB
0
TABLE
2
DIMSTYLE
5
A
100
AcDbSymbolTable
70
1
0
ENDTAB
0
TABLE
2
BLOCK_RECORD
5
1
100
AcDbSymbolTable
70
1
0
BLOCK_RECORD
5
1F
100
AcDbSymbolTableRecord
100
AcDbBlockTableRecord
2
*MODEL_SPACE
0
BLOCK_RECORD
5
1B
100
AcDbSymbolTableRecord
100
AcDbBlockTableRecord
2
*PAPER_SPACE
0
ENDTAB
0
ENDSEC
0
SECTION
2
BLOCKS
0
BLOCK
5
20
100
AcDbEntity
100
AcDbBlockBegin
2
*MODEL_SPACE
0
ENDBLK
5
21
100
AcDbEntity
100
AcDbBlockEnd
0
BLOCK
5
1C
100
AcDbEntity
100
AcDbBlockBegin
2
*PAPER_SPACE
0
ENDBLK
5
1D
100
AcDbEntity
100
AcDbBlockEnd
0
ENDSEC
0
SECTION
2
ENTITIES
0
CIRCLE
5
100
100
AcDbEntity
8
0
100
AcDbCircle
10
-25
20
-21.000000000000007
30
0
40
1.6500000000000004
210
0
220
-0
230
1
0
CIRCLE
5
101
100
AcDbEntity
8
0
100
AcDbCircle
10
25.000000000000036
20
20.999999999999996
30
0
40
1.6500000000000004
210
0
220
-0
230
1
0
CIRCLE
5
102
100
AcDbEntity
8
0
100
AcDbCircle
10
-25.000000000000036
20
20.999999999999996
30
0
40
1.6500000000000004
210
0
220
-0
230
1
0
CIRCLE
5
103
100
AcDbEntity
8
0
100
AcDbCircle
10
25.000000000000007
20
-21.000000000000007
30
0
40
1.6500000000000004
210
0
220
-0
230
1
0
CIRCLE
5
104
100
AcDbEntity
8
0
100
AcDbCircle
10
23.049999999999997
20
30
30
0
40
1.6500000000000004
210
0
220
-0
230
1
0
CIRCLE
5
105
100
AcDbEntity
8
0
100
AcDbCircle
10
-23.050000000000001
20
-30
30
0
40
1.6500000000000004
210
0
220
-0
230
1
0
CIRCLE
5
106
100
AcDbEntity
8
0
100
AcDbCircle
10
-23.050000000000001
20
30
30
0
40
1.6500000000000004
210
0
220
-0
230
1
0
CIRCLE
5
107
100
AcDbEntity
8
0
100
AcDbCircle
10
23.049999999999997
20
-30
30
0
40
1.6500000000000004
210
0
220
-0
230
1
0
LWPOLYLINE
5
108
100
AcDbEntity
8
0
100
AcDbPolyline
90
8
70
1
43
0.0
10
20
20
-10
10
20
20
9.9999999999999982
42
-0.41421356237309498
10
23
20
12.999999999999998
10
33
20
12.999999999999998
42
-0.41421356237309503
10
36
20
10
10
36
20
-9.9999999999999982
42
-0.41421356237309498
10
33
20
-12.999999999999998
10
23
20
-12.999999999999998
42
-0.41421356237309503
0
LWPOLYLINE
5
109
100
AcDbEntity
8
0
100
AcDbPolyline
90
8
70
1
43
0.0
10
-36
20
-10
10
-36
20
9.9999999999999982
42
-0.41421356237309498
10
-33
20
12.999999999999998
10
-23
20
13
42
-0.41421356237309503
10
-19.999999999999996
20
10
10
-20
20
-9.9999999999999982
42
-0.41421356237309498
10
-23
20
-12.999999999999998
10
-33
20
-12.999999999999998
42
-0.41421356237309503
0
ARC
5
110
100
AcDbEntity
8
0
100
AcDbCircle
10
0
20
0
30
0
40
89.000000000000028
210
0
220
0
230
1
100
AcDbArc
50
162.10489211207042
51
197.89510788792956
0
ARC
5
111
100
AcDbEntity
8
0
100
AcDbCircle
10
-81.839375348145779
20
-26.425681497840511
30
0
40
3.0000000000000164
210
0
220
0
230
1
100
AcDbArc
50
197.89510788792933
51
304.44700604297492
0
LINE
5
112
100
AcDbEntity
8
0
100
AcDbLine
10
-80.142444113859142
20
-28.899630645681341
30
0
11
-69.658969238505946
21
-21.708805411711047
31
0
0
ARC
5
113
100
AcDbEntity
8
0
100
AcDbCircle
10
-67.962038004220332
20
-24.182754559552592
30
0
40
3.0000000000000009
210
0
220
-0
230
1
100
AcDbArc
50
34.447006042950278
51
124.44700604295109
0
LINE
5
114
100
AcDbEntity
8
0
100
AcDbLine
10
-65.488088856378766
20
-22.485823325267013
30
0
11
-44.559270300158431
21
-52.997862815358843
31
0
0
ARC
5
115
100
AcDbEntity
8
0
100
AcDbCircle
10
-47.03321944799999
20
-54.694794049644429
30
0
40
3.0000000000000031
210
0
220
0
230
1
100
AcDbArc
50
-55.5529939570254
51
34.44700604295047
0
LINE
5
116
100
AcDbEntity
8
0
100
AcDbLine
10
-45.33628821371336
20
-57.168743197485277
30
0
11
-55.819763089101443
21
-64.359568431404085
31
0
0
LINE
5
117
100
AcDbEntity
8
0
100
AcDbLine
10
-33.610341800039201
20
-79.653138308009133
30
0
11
-30.884695535128678
21
-75.385272225612013
31
0
0
ARC
5
118
100
AcDbEntity
8
0
100
AcDbCircle
10
-28.356325662143291
20
-76.999999999999972
30
0
40
2.9999999999999982
210
0
220
0
230
1
100
AcDbArc
50
90.000000000000142
51
147.43591561744762
0
LINE
5
119
100
AcDbEntity
8
0
100
AcDbLine
10
-28.356325662143298
20
-73.999999999999972
30
0
11
28.356325662143341
21
-73.999999999999986
31
0
0
ARC
5
120
100
AcDbEntity
8
0
100
AcDbCircle
10
28.356325662143327
20
-77.000000000000028
30
0
40
3.0000000000000391
210
0
220
-0
230
1
100
AcDbArc
50
32.564084382554846
51
89.99999999999973
0
LINE
5
121
100
AcDbEntity
8
0
100
AcDbLine
10
30.884695535128674
20
-75.385272225611942
30
0
11
33.61034180003945
21
-79.653138308009133
31
0
0
LINE
5
122
100
AcDbEntity
8
0
100
AcDbLine
10
20.000000000000004
20
-57.5
30
0
11
19.999999999999996
21
47.500000000000007
31
0
0
LINE
5
123
100
AcDbEntity
8
0
100
AcDbLine
10
-20
20
47.500000000000007
30
0
11
-19.999999999999996
21
-57.5
31
0
0
LINE
5
124
100
AcDbEntity
8
0
100
AcDbLine
10
-19.999999999999996
20
-57.5
30
0
11
20.000000000000004
21
-57.5
31
0
0
LINE
5
125
100
AcDbEntity
8
1
100
AcDbLine
10
9.9999999999999751
20
84.600000000006276
30
0
11
-10.000000000000021
21
84.600000000006276
31
0
0
ARC
5
126
100
AcDbEntity
8
1
100
AcDbCircle
10
-10.000000000000025
20
77.09999999999998
30
0
40
7.5000000000062972
210
0
220
-0
230
1
100
AcDbArc
50
89.999999999999972
51
269.99999999999994
0
LINE
5
127
100
AcDbEntity
8
1
100
AcDbLine
10
-10.000000000000032
20
69.599999999993699
30
0
11
9.9999999999999716
21
69.599999999993685
31
0
0
ARC
5
128
100
AcDbEntity
8
1
100
AcDbCircle
10
9.9999999999999734
20
77.09999999999998
30
0
40
7.5000000000062972
210
0
220
0
230
1
100
AcDbArc
50
-90
51
89.999999999999986
0
LINE
5
129
100
AcDbEntity
8
1
100
AcDbLine
10
9.9999999999999734
20
77.09999999999998
30
0
11
-10.000000000000025
21
77.09999999999998
31
0
0
LINE
5
130
100
AcDbEntity
8
1
100
AcDbLine
10
-2.6466284361225498e-14
20
77.09999999999998
30
0
11
-3.0728108229947866e-14
21
88.999999999999972
31
0
0
LWPOLYLINE
5
131
100
AcDbEntity
8
0
100
AcDbPolyline
90
4
70
1
43
0.0
10
-57.649999999999999
20
-2.5
10
-57.649999999999999
20
-15.5
10
-76.349999999999994
20
-15.5
10
-76.349999999999994
20
-2.5
0
LWPOLYLINE
5
132
100
AcDbEntity
8
0
100
AcDbPolyline
90
4
70
1
43
0.0
10
-53
20
15.5
10
-53
20
-0.50000000000000044
10
-81
20
-0.49999999999999994
10
-81
20
15.5
0
LINE
5
133
100
AcDbEntity
8
1
100
AcDbLine
10
-22.000000000000011
20
47.500000000000007
30
0
11
-20
21
47.500000000000007
31
0
0
LINE
5
134
100
AcDbEntity
8
1
100
AcDbLine
10
21.999999999999993
20
47.500000000000007
30
0
11
22.000000000000245
21
49.800000000000004
31
0
0
LINE
5
135
100
AcDbEntity
8
1
100
AcDbLine
10
19.999999999999996
20
47.500000000000007
30
0
11
21.999999999999993
21
47.500000000000007
31
0
0
LINE
5
136
100
AcDbEntity
8
1
100
AcDbLine
10
19.999999999999993
20
57.5
30
0
11
-20.000000000000007
21
57.499999999999822
31
0
0
LINE
5
137
100
AcDbEntity
8
0
100
AcDbLine
10
0.56093829678728557
20
65.199999999999989
30
0
11
22.000000000000245
21
65.199999999999989
31
0
0
LINE
5
138
100
AcDbEntity
8
0
100
AcDbLine
10
-0.56093829678733587
20
65.199999999999989
30
0
11
-22.000000000000227
21
65.199999999999989
31
0
0
LINE
5
139
100
AcDbEntity
8
0
100
AcDbLine
10
0.56093829678728557
20
65.199999999999989
30
0
11
-0.56093829678733587
21
65.199999999999989
31
0
0
LINE
5
140
100
AcDbEntity
8
1
100
AcDbLine
10
-2.5118795932144167e-14
20
65.199999999999989
30
0
11
-2.6466284361225498e-14
21
77.09999999999998
31
0
0
LWPOLYLINE
5
141
100
AcDbEntity
8
0
100
AcDbPolyline
90
2
70
1
43
0.0
10
21.999999999999993
20
57.500000000000007
10
19.999999999999993
20
57.5
0
LINE
5
142
100
AcDbEntity
8
0
100
AcDbLine
10
-20.000000000000007
20
57.499999999999822
30
0
11
-22.000000000000011
21
57.5
31
0
0
LINE
5
143
100
AcDbEntity
8
0
100
AcDbLine
10
-20.000000000000007
20
57.499999999999822
30
0
11
-22.000000000000011
21
57.5
31
0
0
LINE
5
144
100
AcDbEntity
8
0
100
AcDbLine
10
-22.000000000000227
20
49.800000000000004
30
0
11
-22.000000000000011
21
47.500000000000007
31
0
0
LINE
5
145
100
AcDbEntity
8
0
100
AcDbLine
10
-22.000000000000227
20
56.299999999999997
30
0
11
-22.000000000000227
21
52.800000000000004
31
0
0
ARC
5
146
100
AcDbEntity
8
0
100
AcDbCircle
10
-47.033219448000025
20
54.694794049644429
30
0
40
3.0000000000000231
210
-0
220
0
230
1
100
AcDbArc
50
-34.447006042950278
51
55.552993957024967
0
LINE
5
147
100
AcDbEntity
8
0
100
AcDbLine
10
-44.559270300158438
20
52.997862815358836
30
0
11
-65.488088856378766
21
22.485823325267027
31
0
0
ARC
5
148
100
AcDbEntity
8
0
100
AcDbCircle
10
-67.962038004220346
20
24.182754559552624
30
0
40
3.0000000000000124
210
0
220
0
230
1
100
AcDbArc
50
235.55299395704898
51
325.55299395704958
0
LINE
5
149
100
AcDbEntity
8
0
100
AcDbLine
10
-69.658969238505961
20
21.708805411711069
30
0
11
-80.142444113859156
21
28.899630645681352
31
0
0
ARC
5
150
100
AcDbEntity
8
0
100
AcDbCircle
10
-81.839375348145779
20
26.425681497840504
30
0
40
3.0000000000000031
210
0
220
-0
230
1
100
AcDbArc
50
55.552993957025514
51
162.10489211207059
0
ARC
5
151
100
AcDbEntity
8
0
100
AcDbCircle
10
-54.122831854815807
20
-66.833517579245637
30
0
40
3.0000000000000187
210
0
220
0
230
1
100
AcDbArc
50
124.44700604295134
51
230.99890419797819
0
ARC
5
152
100
AcDbEntity
8
0
100
AcDbCircle
10
0
20
0
30
0
40
89.000000000000028
210
0
220
0
230
1
100
AcDbArc
50
230.99890419797819
51
245.15167516762313
0
ARC
5
153
100
AcDbEntity
8
0
100
AcDbCircle
10
-36.138711673024567
20
-78.038410533621203
30
0
40
3.0000000000000027
210
0
220
0
230
1
100
AcDbArc
50
245.15167516762293
51
327.43591561744785
0
ARC
5
154
100
AcDbEntity
8
0
100
AcDbCircle
10
36.138711673024801
20
-78.038410533621047
30
0
40
3.0000000000000426
210
0
220
0
230
1
100
AcDbArc
50
212.5640843825548
51
294.84832483237676
0
ARC
5
155
100
AcDbEntity
8
0
100
AcDbCircle
10
0
20
0
30
0
40
89.000000000000028
210
-0
220
0
230
1
100
AcDbArc
50
294.84832483237705
51
309.00109580202178
0
ARC
5
156
100
AcDbEntity
8
0
100
AcDbCircle
10
54.1228318548158
20
-66.833517579245637
30
0
40
3.0000000000000018
210
-0
220
0
230
1
100
AcDbArc
50
-50.998904197978717
51
55.552993957048741
0
LINE
5
157
100
AcDbEntity
8
0
100
AcDbLine
10
55.819763089101421
20
-64.359568431404099
30
0
11
45.336288213745213
21
-57.168743197440975
31
0
0
ARC
5
158
100
AcDbEntity
8
0
100
AcDbCircle
10
47.033219448030849
20
-54.694794049599444
30
0
40
3.0000000000000031
210
0
220
0
230
1
100
AcDbArc
50
145.55299395704969
51
235.55299395704841
0
LINE
5
159
100
AcDbEntity
8
0
100
AcDbLine
10
44.559270300189276
20
-52.997862815313859
30
0
11
65.488088856377388
21
-22.485823325269038
31
0
0
ARC
5
160
100
AcDbEntity
8
0
100
AcDbCircle
10
67.962038004218954
20
-24.182754559554599
30
0
40
2.999999999999992
210
0
220
-0
230
1
100
AcDbArc
50
55.552993957025137
51
145.55299395705001
0
LINE
5
161
100
AcDbEntity
8
0
100
AcDbLine
10
69.658969238505591
20
-21.708805411713765
30
0
11
80.142444113859142
21
-28.899630645681363
31
0
0
ARC
5
162
100
AcDbEntity
8
0
100
AcDbCircle
10
81.839375348145779
20
-26.425681497840522
30
0
40
3.0000000000000093
210
0
220
0
230
1
100
AcDbArc
50
235.55299395702519
51
342.1048921120705
0
ARC
5
163
100
AcDbEntity
8
0
100
AcDbCircle
10
0
20
0
30
0
40
89.000000000000028
210
-0
220
0
230
1
100
AcDbArc
50
-17.895107887929569
51
17.895107887929548
0
ARC
5
164
100
AcDbEntity
8
0
100
AcDbCircle
10
81.839375348145765
20
26.425681497840515
30
0
40
3.0000000000000475
210
0
220
-0
230
1
100
AcDbArc
50
17.895107887928965
51
124.44700604297442
0
LINE
5
165
100
AcDbEntity
8
0
100
AcDbLine
10
80.142444113859142
20
28.89963064568137
30
0
11
69.658969238505577
21
21.708805411713765
31
0
0
ARC
5
166
100
AcDbEntity
8
0
100
AcDbCircle
10
67.96203800421894
20
24.182754559554628
30
0
40
3.0000000000000062
210
0
220
0
230
1
100
AcDbArc
50
214.44700604295042
51
304.44700604297452
0
LINE
5
167
100
AcDbEntity
8
0
100
AcDbLine
10
65.488088856377374
20
22.485823325269038
30
0
11
44.559270300189262
21
52.997862815313859
31
0
0
ARC
5
168
100
AcDbEntity
8
0
100
AcDbCircle
10
47.033219448030827
20
54.694794049599444
30
0
40
3.0000000000000018
210
0
220
0
230
1
100
AcDbArc
50
124.44700604295119
51
214.44700604295039
0
LINE
5
169
100
AcDbEntity
8
0
100
AcDbLine
10
45.336288213745206
20
57.168743197440989
30
0
11
55.819763089101421
21
64.359568431404114
31
0
0
ARC
5
170
100
AcDbEntity
8
0
100
AcDbCircle
10
54.122831854815779
20
66.833517579245637
30
0
40
2.9999999999999973
210
-0
220
0
230
1
100
AcDbArc
50
-55.552993957048251
51
50.998904197977708
0
ARC
5
171
100
AcDbEntity
8
0
100
AcDbCircle
10
0
20
0
30
0
40
88.999999999999986
210
0
220
-0
230
1
100
AcDbArc
50
50.998904197978185
51
129.00109580202181
0
ARC
5
172
100
AcDbEntity
8
0
100
AcDbCircle
10
-54.122831854815807
20
66.833517579245637
30
0
40
2.9999999999999902
210
0
220
0
230
1
100
AcDbArc
50
129.00109580202101
51
235.55299395704876
0
LINE
5
173
100
AcDbEntity
8
0
100
AcDbLine
10
-55.819763089101436
20
64.359568431404085
30
0
11
-45.33628821371336
21
57.168743197485277
31
0
0
CIRCLE
5
174
100
AcDbEntity
8
0
100
AcDbCircle
10
39.122831854815779
20
66.833517579245637
30
0
40
1.6500000000000004
210
0
220
-0
230
1
0
CIRCLE
5
175
100
AcDbEntity
8
0
100
AcDbCircle
10
81.839375348145765
20
-19.425681497840518
30
0
40
1.6499999999999915
210
0
220
-0
230
1
0
CIRCLE
5
176
100
AcDbEntity
8
0
100
AcDbCircle
10
-81.839375348145737
20
19.425681497840483
30
0
40
1.6499999999999915
210
0
220
-0
230
1
0
CIRCLE
5
177
100
AcDbEntity
8
0
100
AcDbCircle
10
-81.839375348145737
20
-19.425681497840543
30
0
40
1.6499999999999915
210
0
220
-0
230
1
0
CIRCLE
5
178
100
AcDbEntity
8
0
100
AcDbCircle
10
-39.122831854815729
20
66.833517579245608
30
0
40
1.6500000000000004
210
0
220
-0
230
1
0
CIRCLE
5
179
100
AcDbEntity
8
0
100
AcDbCircle
10
81.839375348145765
20
19.425681497840504
30
0
40
1.6499999999999915
210
0
220
-0
230
1
0
CIRCLE
5
180
100
AcDbEntity
8
0
100
AcDbCircle
10
39.122831854815757
20
-66.833517579245637
30
0
40
1.6500000000000004
210
0
220
-0
230
1
0
CIRCLE
5
181
100
AcDbEntity
8
0
100
AcDbCircle
10
-39.122831854815757
20
-66.833517579245623
30
0
40
1.6500000000000004
210
0
220
-0
230
1
0
ENDSEC
0
SECTION
2
OBJECTS
0
DICTIONARY
5
C
100
AcDbDictionary
3
ACAD_GROUP
350
D
3
ACAD_MLINESTYLE
350
17
0
DICTIONARY
5
D
100
AcDbDictionary
0
DICTIONARY
5
1A
330
C
100
AcDbDictionary
0
DICTIONARY
5
17
100
AcDbDictionary
0
ENDSEC
0
EOF
