0
SECTION
2
HEADER
9
$INSUNITS
70
4
9
$ACADVER
1
AC1014
9
$HANDSEED
5
FFFF
0
ENDSEC
0
SECTION
2
TABLES
0
TABLE
2
VPORT
5
8
100
AcDbSymbolTable
0
ENDTAB
0
TABLE
2
LTYPE
5
5
100
AcDbSymbolTable
0
LTYPE
5
14
100
AcDbSymbolTableRecord
100
AcDbLinetypeTableRecord
2
BYBLOCK
70
0
0
LTYPE
5
15
100
AcDbSymbolTableRecord
100
AcDbLinetypeTableRecord
2
BYLAYER
70
0
0
LTYPE
5
16
100
AcDbSymbolTableRecord
100
AcDbLinetypeTableRecord
2
DASHED
70
0
3
Dashed __ __ __ __ __ __ __ __ __ __ __ __ __ _
72
65
73
2
40
0.75
49
0.5
74
0
49
-0.25
74
0
0
ENDTAB
0
TABLE
2
LAYER
5
2
100
AcDbSymbolTable
70
3
0
LAYER
5
50
100
AcDbSymbolTableRecord
100
AcDbLayerTableRecord
2
1
70
0
62
7
6
DASHED
0
LAYER
5
51
100
AcDbSymbolTableRecord
100
AcDbLayerTableRecord
2
0
70
0
62
7
6
CONTINUOUS
0
ENDTAB
0
TABLE
2
STYLE
5
3
100
AcDbSymbolTable
70
1
0
STYLE
5
11
100
AcDbSymbolTableRecord
100
AcDbTextStyleTableRecord
2
STANDARD
70
0
0
ENDTAB
0
TABLE
2
VIEW
5
6
100
AcDbSymbolTable
70
0
0
ENDTAB
0
TABLE
2
UCS
5
7
100
AcDbSymbolTable
70
0
0
ENDTAB
0
TABLE
2
APPID
5
9
100
AcDbSymbolTable
70
2
0
APPID
5
12
100
AcDbSymbolTableRecord
100
AcDbRegAppTableRecord
2
ACAD
70
0
0
ENDTAB
0
TABLE
2
DIMSTYLE
5
A
100
AcDbSymbolTable
70
1
0
ENDTAB
0
TABLE
2
BLOCK_RECORD
5
1
100
AcDbSymbolTable
70
1
0
BLOCK_RECORD
5
1F
100
AcDbSymbolTableRecord
100
AcDbBlockTableRecord
2
*MODEL_SPACE
0
BLOCK_RECORD
5
1B
100
AcDbSymbolTableRecord
100
AcDbBlockTableRecord
2
*PAPER_SPACE
0
ENDTAB
0
ENDSEC
0
SECTION
2
BLOCKS
0
BLOCK
5
20
100
AcDbEntity
100
AcDbBlockBegin
2
*MODEL_SPACE
0
ENDBLK
5
21
100
AcDbEntity
100
AcDbBlockEnd
0
BLOCK
5
1C
100
AcDbEntity
100
AcDbBlockBegin
2
*PAPER_SPACE
0
ENDBLK
5
1D
100
AcDbEntity
100
AcDbBlockEnd
0
ENDSEC
0
SECTION
2
ENTITIES
0
LWPOLYLINE
5
100
100
AcDbEntity
8
0
100
AcDbPolyline
90
4
70
1
43
0.0
10
-58.649999999999991
20
-3.2499999999999991
10
-58.649999999999991
20
-16.25
10
-77.349999999999994
20
-16.25
10
-77.349999999999994
20
-3.2499999999999996
0
LWPOLYLINE
5
101
100
AcDbEntity
8
0
100
AcDbPolyline
90
4
70
1
43
0.0
10
-53.999999999999993
20
17.75
10
-53.999999999999993
20
1.7500000000000004
10
-82
20
1.7500000000000007
10
-82
20
17.75
0
CIRCLE
5
102
100
AcDbEntity
8
0
100
AcDbCircle
10
-25
20
-21.000000000000007
30
0
40
1.6500000000000004
210
0
220
-0
230
1
0
CIRCLE
5
103
100
AcDbEntity
8
0
100
AcDbCircle
10
25.000000000000036
20
20.999999999999996
30
0
40
1.6500000000000004
210
0
220
-0
230
1
0
CIRCLE
5
104
100
AcDbEntity
8
0
100
AcDbCircle
10
-25.000000000000036
20
20.999999999999996
30
0
40
1.6500000000000004
210
0
220
-0
230
1
0
CIRCLE
5
105
100
AcDbEntity
8
0
100
AcDbCircle
10
25.000000000000007
20
-21.000000000000007
30
0
40
1.6500000000000004
210
0
220
-0
230
1
0
CIRCLE
5
106
100
AcDbEntity
8
0
100
AcDbCircle
10
23.049999999999997
20
30
30
0
40
1.6500000000000004
210
0
220
-0
230
1
0
CIRCLE
5
107
100
AcDbEntity
8
0
100
AcDbCircle
10
-23.050000000000001
20
-30
30
0
40
1.6500000000000004
210
0
220
-0
230
1
0
CIRCLE
5
108
100
AcDbEntity
8
0
100
AcDbCircle
10
-23.050000000000001
20
30
30
0
40
1.6500000000000004
210
0
220
-0
230
1
0
CIRCLE
5
109
100
AcDbEntity
8
0
100
AcDbCircle
10
23.049999999999997
20
-30
30
0
40
1.6500000000000004
210
0
220
-0
230
1
0
LWPOLYLINE
5
110
100
AcDbEntity
8
0
100
AcDbPolyline
90
8
70
1
43
0.0
10
20
20
-10
10
20
20
9.9999999999999982
42
-0.41421356237309498
10
23
20
12.999999999999998
10
33
20
12.999999999999998
42
-0.41421356237309503
10
36
20
10
10
36
20
-9.9999999999999982
42
-0.41421356237309498
10
33
20
-12.999999999999998
10
23
20
-12.999999999999998
42
-0.41421356237309503
0
LWPOLYLINE
5
111
100
AcDbEntity
8
0
100
AcDbPolyline
90
8
70
1
43
0.0
10
-36
20
-10
10
-36
20
9.9999999999999982
42
-0.41421356237309498
10
-33
20
12.999999999999998
10
-23
20
13
42
-0.41421356237309503
10
-19.999999999999996
20
10
10
-20
20
-9.9999999999999982
42
-0.41421356237309498
10
-23
20
-12.999999999999998
10
-33
20
-12.999999999999998
42
-0.41421356237309503
0
CIRCLE
5
112
100
AcDbEntity
8
0
100
AcDbCircle
10
30.499999999999993
20
-61.550000000000004
30
0
40
1.6500000000000004
210
0
220
-0
230
1
0
CIRCLE
5
113
100
AcDbEntity
8
0
100
AcDbCircle
10
-30.500000000000007
20
-61.549999999999976
30
0
40
1.6500000000000004
210
0
220
-0
230
1
0
CIRCLE
5
114
100
AcDbEntity
8
0
100
AcDbCircle
10
81.555625743926242
20
23.293232074452437
30
0
40
1.6499999999999915
210
0
220
-0
230
1
0
CIRCLE
5
115
100
AcDbEntity
8
0
100
AcDbCircle
10
37.24908930370637
20
69.563155958692064
30
0
40
1.6500000000000004
210
0
220
-0
230
1
0
CIRCLE
5
116
100
AcDbEntity
8
0
100
AcDbCircle
10
-81.555625743926299
20
-23.293232074452497
30
0
40
1.6499999999999915
210
0
220
-0
230
1
0
CIRCLE
5
117
100
AcDbEntity
8
0
100
AcDbCircle
10
-37.249089303706462
20
69.56315595869205
30
0
40
1.6500000000000004
210
0
220
-0
230
1
0
CIRCLE
5
118
100
AcDbEntity
8
0
100
AcDbCircle
10
-81.555625743926299
20
23.293232074452401
30
0
40
1.6499999999999915
210
0
220
-0
230
1
0
CIRCLE
5
119
100
AcDbEntity
8
0
100
AcDbCircle
10
81.555625743926242
20
-23.293232074452455
30
0
40
1.6499999999999915
210
0
220
-0
230
1
0
LWPOLYLINE
5
120
100
AcDbEntity
8
0
100
AcDbPolyline
90
40
70
1
43
0.0
10
-42.238831602782568
20
-58.349332795027387
10
-54.043367044947352
20
-67.158874904553983
42
0.50052406485224532
10
-54.05078203831696
20
-71.961885474509032
42
0.053952477519885605
10
-37.404274425775483
20
-81.859148875866509
42
0.37526903976892345
10
-33.62109422861888
20
-80.732641004968016
10
-30.882981761135738
20
-76.397869575036196
42
-0.25731889950230347
10
-28.346610711504916
20
-74.999999999999972
10
28.346610711504901
20
-74.999999999999986
42
-0.25731889950230274
10
30.882981761135714
20
-76.397869575036182
10
33.621094228618929
20
-80.732641004968016
42
0.37526903976891685
10
37.404274425775618
20
-81.859148875866467
42
0.053952477519884953
10
54.05078203831696
20
-71.961885474509046
42
0.50052406485224143
10
54.043367044947352
20
-67.158874904553983
10
42.238831602782547
20
-58.349332795027415
42
-0.41421356237308948
10
41.628828289885433
20
-54.150773999648408
10
63.758253765164845
20
-24.497974331979762
42
-0.41421356237307455
10
67.956812560543696
20
-23.887971019082521
10
79.761348002685466
20
-32.697513128590629
42
0.50052406485260681
10
84.367888700613349
20
-31.337826283916321
42
0.17972246218868212
10
84.367888700613364
20
31.337826283916293
42
0.50052406485261058
10
79.761348002685423
20
32.697513128590657
10
67.956812560543696
20
23.887971019082521
42
-0.41421356237307455
10
63.758253765164845
20
24.497974331979762
10
41.628828289885433
20
54.150773999648379
42
-0.41421356237309126
10
42.238831602782554
20
58.349332795027408
10
54.043367044947331
20
67.158874904553997
42
0.50052406485224177
10
54.050782038316932
20
71.961885474509032
42
0.33372531987980564
10
-54.05078203831701
20
71.961885474509003
42
0.50052406485223921
10
-54.043367044947374
20
67.158874904553969
10
-42.238831602782568
20
58.349332795027394
42
-0.41421356237309315
10
-41.628828289885448
20
54.150773999648379
10
-63.758253765164845
20
24.497974331979748
42
-0.41421356237307577
10
-67.956812560543696
20
23.887971019082499
10
-79.761348002685466
20
32.697513128590614
42
0.50052406485260581
10
-84.367888700613364
20
31.337826283916304
42
0.17972246218868199
10
-84.367888700613364
20
-31.337826283916304
42
0.5005240648526057
10
-79.761348002685466
20
-32.697513128590607
10
-67.95681256054371
20
-23.887971019082507
42
-0.4142135623730771
10
-63.758253765164838
20
-24.497974331979758
10
-41.628828289885462
20
-54.150773999648393
42
-0.4142135623730952
0
LINE
5
121
100
AcDbEntity
8
0
100
AcDbLine
10
0.5609382967870179
20
65.199999999999903
30
0
11
-0.56093829678757878
21
65.199999999999903
31
0
0
ENDSEC
0
SECTION
2
OBJECTS
0
DICTIONARY
5
C
100
AcDbDictionary
3
ACAD_GROUP
350
D
3
ACAD_MLINESTYLE
350
17
0
DICTIONARY
5
D
100
AcDbDictionary
0
DICTIONARY
5
1A
330
C
100
AcDbDictionary
0
DICTIONARY
5
17
100
AcDbDictionary
0
ENDSEC
0
EOF
