0
SECTION
2
HEADER
9
$INSUNITS
70
4
9
$ACADVER
1
AC1014
9
$HANDSEED
5
FFFF
0
ENDSEC
0
SECTION
2
TABLES
0
TABLE
2
VPORT
5
8
100
AcDbSymbolTable
0
ENDTAB
0
TABLE
2
LTYPE
5
5
100
AcDbSymbolTable
0
LTYPE
5
14
100
AcDbSymbolTableRecord
100
AcDbLinetypeTableRecord
2
BYBLOCK
70
0
0
LTYPE
5
15
100
AcDbSymbolTableRecord
100
AcDbLinetypeTableRecord
2
BYLAYER
70
0
0
LTYPE
5
16
100
AcDbSymbolTableRecord
100
AcDbLinetypeTableRecord
2
DASHED
70
0
3
Dashed __ __ __ __ __ __ __ __ __ __ __ __ __ _
72
65
73
2
40
0.75
49
0.5
74
0
49
-0.25
74
0
0
ENDTAB
0
TABLE
2
LAYER
5
2
100
AcDbSymbolTable
70
3
0
LAYER
5
50
100
AcDbSymbolTableRecord
100
AcDbLayerTableRecord
2
1
70
0
62
7
6
DASHED
0
LAYER
5
51
100
AcDbSymbolTableRecord
100
AcDbLayerTableRecord
2
0
70
0
62
7
6
CONTINUOUS
0
ENDTAB
0
TABLE
2
STYLE
5
3
100
AcDbSymbolTable
70
1
0
STYLE
5
11
100
AcDbSymbolTableRecord
100
AcDbTextStyleTableRecord
2
STANDARD
70
0
0
ENDTAB
0
TABLE
2
VIEW
5
6
100
AcDbSymbolTable
70
0
0
ENDTAB
0
TABLE
2
UCS
5
7
100
AcDbSymbolTable
70
0
0
ENDTAB
0
TABLE
2
APPID
5
9
100
AcDbSymbolTable
70
2
0
APPID
5
12
100
AcDbSymbolTableRecord
100
AcDbRegAppTableRecord
2
ACAD
70
0
0
ENDTAB
0
TABLE
2
DIMSTYLE
5
A
100
AcDbSymbolTable
70
1
0
ENDTAB
0
TABLE
2
BLOCK_RECORD
5
1
100
AcDbSymbolTable
70
1
0
BLOCK_RECORD
5
1F
100
AcDbSymbolTableRecord
100
AcDbBlockTableRecord
2
*MODEL_SPACE
0
BLOCK_RECORD
5
1B
100
AcDbSymbolTableRecord
100
AcDbBlockTableRecord
2
*PAPER_SPACE
0
ENDTAB
0
ENDSEC
0
SECTION
2
BLOCKS
0
BLOCK
5
20
100
AcDbEntity
100
AcDbBlockBegin
2
*MODEL_SPACE
0
ENDBLK
5
21
100
AcDbEntity
100
AcDbBlockEnd
0
BLOCK
5
1C
100
AcDbEntity
100
AcDbBlockBegin
2
*PAPER_SPACE
0
ENDBLK
5
1D
100
AcDbEntity
100
AcDbBlockEnd
0
ENDSEC
0
SECTION
2
ENTITIES
0
LWPOLYLINE
5
100
100
AcDbEntity
8
0
100
AcDbPolyline
90
4
70
1
43
0.0
10
-71
20
10
10
-71
20
-10
10
-84
20
-9.9999999999999982
10
-84
20
10.000000000000002
0
CIRCLE
5
101
100
AcDbEntity
8
0
100
AcDbCircle
10
23.049999999999997
20
-30
30
0
40
1.6500000000000004
210
0
220
-0
230
1
0
CIRCLE
5
102
100
AcDbEntity
8
0
100
AcDbCircle
10
82.750215137561923
20
21.509344357446597
30
0
40
1.6499999999999915
210
0
220
-0
230
1
0
CIRCLE
5
103
100
AcDbEntity
8
0
100
AcDbCircle
10
49.864290956596342
20
69.453599528000737
30
0
40
1.6500000000000004
210
0
220
-0
230
1
0
CIRCLE
5
104
100
AcDbEntity
8
0
100
AcDbCircle
10
-82.750215137561881
20
-21.509344357446647
30
0
40
1.6499999999999915
210
0
220
-0
230
1
0
CIRCLE
5
105
100
AcDbEntity
8
0
100
AcDbCircle
10
-49.864290956596307
20
69.453599528000751
30
0
40
1.6500000000000004
210
0
220
-0
230
1
0
CIRCLE
5
106
100
AcDbEntity
8
0
100
AcDbCircle
10
-82.750215137561881
20
21.509344357446579
30
0
40
1.6499999999999915
210
0
220
-0
230
1
0
CIRCLE
5
107
100
AcDbEntity
8
0
100
AcDbCircle
10
82.750215137561923
20
-21.509344357446626
30
0
40
1.6499999999999915
210
0
220
-0
230
1
0
LWPOLYLINE
5
108
100
AcDbEntity
8
0
100
AcDbPolyline
90
40
70
1
43
0.0
10
-48.73015068229617
20
-52.220844901810125
10
-60.492052799314955
20
-60.288568967282359
42
0.47923962947812981
10
-60.84611417777392
20
-64.951908281938074
42
0.079941310605215282
10
-37.399364405804505
20
-80.760680668514965
42
0.37529894079340848
10
-33.610341800039201
20
-79.653138308009133
10
-30.884695535128674
20
-75.385272225612027
42
-0.25599334894185166
10
-28.356325662143298
20
-73.999999999999972
10
28.356325662143341
20
-73.999999999999986
42
-0.25599334894184006
10
30.884695535128674
20
-75.385272225611942
10
33.61034180003945
20
-79.653138308009133
42
0.37529894079339393
10
37.399364405804747
20
-80.76068066851488
42
0.079941310604918409
10
60.846114177697508
20
-64.951908282009668
42
0.47923962947698795
10
60.492052799253237
20
-60.288568967359836
10
48.730150682267606
20
-52.220844901825771
42
-0.41421356237291435
10
47.953132768713161
20
-48.049964519699671
10
62.094226387807588
20
-27.433721620950156
42
-0.41421356237309842
10
66.265106769934775
20
-26.6567037073942
10
78.027008886939271
20
-34.724427772930852
42
0.47923962947683912
10
82.505007799872331
20
-33.375495321313345
42
0.19460361973733414
10
82.505007800156207
20
33.375495320611648
42
0.47923962947813714
10
78.027008887224184
20
34.724427772260093
10
66.265106770293571
20
26.656703706848354
42
-0.41421356237184165
10
62.094226388176999
20
27.433721620411596
10
47.953132768729667
20
48.049964519675612
42
-0.41421356237297219
10
48.730150682284609
20
52.220844901802053
10
60.492052799276564
20
60.288568967337156
42
0.47923962947693699
10
60.846114177722171
20
64.951908281986562
42
0.39522806087148399
10
-60.846114177768776
20
64.951908281942906
42
0.47923962947683635
10
-60.492052799320597
20
60.288568967294289
10
-48.730150682316413
20
52.220844901757843
42
-0.41421356237309076
10
-47.953132768760469
20
48.049964519630713
10
-62.094226387807595
20
27.433721620950156
42
-0.41421356237327533
10
-66.265106769936267
20
26.656703707395213
10
-78.02700888693451
20
34.724427772937936
42
0.47923962947698906
10
-82.505007799868906
20
33.37549532132175
42
0.19460361973959275
10
-82.505007799869077
20
-33.375495321321452
42
0.47923962947693771
10
-78.027008886935121
20
-34.724427772937986
10
-66.26510676993442
20
-26.656703707396883
42
-0.41421356237321916
10
-62.094226387806223
20
-27.433721620952145
10
-47.953132768729603
20
-48.049964519675697
42
-0.41421356237435009
0
LINE
5
109
100
AcDbEntity
8
0
100
AcDbLine
10
0.5609382967870179
20
65.199999999999903
30
0
11
-0.56093829678757878
21
65.199999999999903
31
0
0
CIRCLE
5
110
100
AcDbEntity
8
0
100
AcDbCircle
10
49.864290956596342
20
-69.453599528000765
30
0
40
1.6500000000000004
210
0
220
-0
230
1
0
CIRCLE
5
111
100
AcDbEntity
8
0
100
AcDbCircle
10
-49.864290956596307
20
-69.453599528000765
30
0
40
1.6500000000000004
210
0
220
-0
230
1
0
CIRCLE
5
112
100
AcDbEntity
8
0
100
AcDbCircle
10
-59.500000000000014
20
0
30
0
40
5.9999999999999964
210
0
220
-0
230
1
0
CIRCLE
5
113
100
AcDbEntity
8
0
100
AcDbCircle
10
-23.050000000000001
20
-30
30
0
40
1.6500000000000004
210
0
220
-0
230
1
0
CIRCLE
5
114
100
AcDbEntity
8
0
100
AcDbCircle
10
-23.050000000000001
20
30
30
0
40
1.6500000000000004
210
0
220
-0
230
1
0
CIRCLE
5
115
100
AcDbEntity
8
0
100
AcDbCircle
10
23.049999999997457
20
30.000000000000053
30
0
40
1.7644999999999935
210
0
220
0
230
1
0
CIRCLE
5
116
100
AcDbEntity
8
0
100
AcDbCircle
10
23.049999999999997
20
30
30
0
40
1.6500000000000004
210
0
220
-0
230
1
0
ENDSEC
0
SECTION
2
OBJECTS
0
DICTIONARY
5
C
100
AcDbDictionary
3
ACAD_GROUP
350
D
3
ACAD_MLINESTYLE
350
17
0
DICTIONARY
5
D
100
AcDbDictionary
0
DICTIONARY
5
1A
330
C
100
AcDbDictionary
0
DICTIONARY
5
17
100
AcDbDictionary
0
ENDSEC
0
EOF
