0
SECTION
2
HEADER
9
$INSUNITS
70
4
9
$ACADVER
1
AC1014
9
$HANDSEED
5
FFFF
0
ENDSEC
0
SECTION
2
TABLES
0
TABLE
2
VPORT
5
8
100
AcDbSymbolTable
0
ENDTAB
0
TABLE
2
LTYPE
5
5
100
AcDbSymbolTable
0
LTYPE
5
14
100
AcDbSymbolTableRecord
100
AcDbLinetypeTableRecord
2
BYBLOCK
70
0
0
LTYPE
5
15
100
AcDbSymbolTableRecord
100
AcDbLinetypeTableRecord
2
BYLAYER
70
0
0
LTYPE
5
16
100
AcDbSymbolTableRecord
100
AcDbLinetypeTableRecord
2
DASHED
70
0
3
Dashed __ __ __ __ __ __ __ __ __ __ __ __ __ _
72
65
73
2
40
0.75
49
0.5
74
0
49
-0.25
74
0
0
ENDTAB
0
TABLE
2
LAYER
5
2
100
AcDbSymbolTable
70
3
0
LAYER
5
50
100
AcDbSymbolTableRecord
100
AcDbLayerTableRecord
2
1
70
0
62
7
6
DASHED
0
LAYER
5
51
100
AcDbSymbolTableRecord
100
AcDbLayerTableRecord
2
0
70
0
62
7
6
CONTINUOUS
0
ENDTAB
0
TABLE
2
STYLE
5
3
100
AcDbSymbolTable
70
1
0
STYLE
5
11
100
AcDbSymbolTableRecord
100
AcDbTextStyleTableRecord
2
STANDARD
70
0
0
ENDTAB
0
TABLE
2
VIEW
5
6
100
AcDbSymbolTable
70
0
0
ENDTAB
0
TABLE
2
UCS
5
7
100
AcDbSymbolTable
70
0
0
ENDTAB
0
TABLE
2
APPID
5
9
100
AcDbSymbolTable
70
2
0
APPID
5
12
100
AcDbSymbolTableRecord
100
AcDbRegAppTableRecord
2
ACAD
70
0
0
ENDTAB
0
TABLE
2
DIMSTYLE
5
A
100
AcDbSymbolTable
70
1
0
ENDTAB
0
TABLE
2
BLOCK_RECORD
5
1
100
AcDbSymbolTable
70
1
0
BLOCK_RECORD
5
1F
100
AcDbSymbolTableRecord
100
AcDbBlockTableRecord
2
*MODEL_SPACE
0
BLOCK_RECORD
5
1B
100
AcDbSymbolTableRecord
100
AcDbBlockTableRecord
2
*PAPER_SPACE
0
ENDTAB
0
ENDSEC
0
SECTION
2
BLOCKS
0
BLOCK
5
20
100
AcDbEntity
100
AcDbBlockBegin
2
*MODEL_SPACE
0
ENDBLK
5
21
100
AcDbEntity
100
AcDbBlockEnd
0
BLOCK
5
1C
100
AcDbEntity
100
AcDbBlockBegin
2
*PAPER_SPACE
0
ENDBLK
5
1D
100
AcDbEntity
100
AcDbBlockEnd
0
ENDSEC
0
SECTION
2
ENTITIES
0
LWPOLYLINE
5
100
100
AcDbEntity
8
0
100
AcDbPolyline
90
4
70
1
43
0.0
10
-71
20
9.4499999999999993
10
-71
20
-9.4499999999999993
10
-84
20
-9.4499999999999993
10
-84
20
9.4499999999999993
0
CIRCLE
5
101
100
AcDbEntity
8
0
100
AcDbCircle
10
23.049999999999997
20
-30
30
0
40
1.6500000000000004
210
0
220
-0
230
1
0
CIRCLE
5
102
100
AcDbEntity
8
0
100
AcDbCircle
10
83.23678592952561
20
21.624927008485567
30
0
40
1.6499999999999915
210
0
220
-0
230
1
0
CIRCLE
5
103
100
AcDbEntity
8
0
100
AcDbCircle
10
49.122831854815779
20
70.58999497495023
30
0
40
1.6500000000000004
210
0
220
-0
230
1
0
CIRCLE
5
104
100
AcDbEntity
8
0
100
AcDbCircle
10
-83.236785929525581
20
-21.624927008485592
30
0
40
1.6499999999999915
210
0
220
-0
230
1
0
CIRCLE
5
105
100
AcDbEntity
8
0
100
AcDbCircle
10
-49.122831854815743
20
70.58999497495023
30
0
40
1.6500000000000004
210
0
220
-0
230
1
0
CIRCLE
5
106
100
AcDbEntity
8
0
100
AcDbCircle
10
-83.236785929525581
20
21.624927008485546
30
0
40
1.6499999999999915
210
0
220
-0
230
1
0
CIRCLE
5
107
100
AcDbEntity
8
0
100
AcDbCircle
10
83.23678592952561
20
-21.624927008485578
30
0
40
1.6499999999999915
210
0
220
-0
230
1
0
LWPOLYLINE
5
108
100
AcDbEntity
8
0
100
AcDbPolyline
90
40
70
1
43
0.0
10
-45.33628821371336
20
-57.168743197485277
10
-55.819763089101443
20
-64.359568431404085
42
0.50159195489574382
10
-56.010837617193118
20
-69.164919355265852
42
0.061831730255464457
10
-37.399364405804505
20
-80.760680668514965
42
0.37529894079340848
10
-33.610341800039201
20
-79.653138308009133
10
-30.884695535128674
20
-75.385272225612027
42
-0.25599334894185166
10
-28.356325662143298
20
-73.999999999999972
10
28.356325662143341
20
-73.999999999999986
42
-0.25599334894184006
10
30.884695535128674
20
-75.385272225611942
10
33.61034180003945
20
-79.653138308009133
42
0.37529894079339393
10
37.399364405804747
20
-80.76068066851488
42
0.061831730255463548
10
56.010837617193076
20
-69.164919355265852
42
0.50159195489574759
10
55.819763089101421
20
-64.359568431404099
10
45.336288213745213
20
-57.168743197440975
42
-0.41421356237308948
10
44.559270300189276
20
-52.997862815313859
10
65.488088856377374
20
-22.485823325269038
42
-0.41421356237322166
10
69.658969238505591
20
-21.708805411713765
10
80.142444113859142
20
-28.899630645681363
42
0.50159195489584552
10
84.694237278895073
20
-27.347507596602398
42
0.1574462574293205
10
84.694237278895088
20
27.347507596602377
42
0.50159195489584663
10
80.142444113859142
20
28.89963064568137
10
69.658969238505577
20
21.708805411713776
42
-0.4142135623732181
10
65.488088856377374
20
22.485823325269038
10
44.559270300189262
20
52.997862815313859
42
-0.41421356237309076
10
45.336288213745206
20
57.168743197440989
10
55.819763089101421
20
64.359568431404114
42
0.50159195489573905
10
56.010837617193097
20
69.164919355265823
42
0.3541293344030545
10
-56.010837617193062
20
69.164919355265852
42
0.50159195489574826
10
-55.819763089101436
20
64.359568431404085
10
-45.33628821371336
20
57.168743197485277
42
-0.4142135623729678
10
-44.559270300158438
20
52.997862815358836
10
-65.488088856378766
20
22.485823325267027
42
-0.41421356237309842
10
-69.658969238505961
20
21.708805411711069
10
-80.142444113859156
20
28.899630645681352
42
0.50159195489584385
10
-84.694237278895073
20
27.347507596602384
42
0.15744625742932045
10
-84.694237278895073
20
-27.347507596602384
42
0.5015919548958474
10
-80.142444113859142
20
-28.899630645681341
10
-69.658969238505946
20
-21.708805411711047
42
-0.41421356237309881
10
-65.488088856378766
20
-22.485823325267013
10
-44.559270300158424
20
-52.997862815358836
42
-0.41421356237297147
0
LINE
5
109
100
AcDbEntity
8
0
100
AcDbLine
10
0.5609382967870179
20
65.199999999999903
30
0
11
-0.56093829678757878
21
65.199999999999903
31
0
0
CIRCLE
5
110
100
AcDbEntity
8
0
100
AcDbCircle
10
49.122831854815765
20
-70.589994974950244
30
0
40
1.6500000000000004
210
0
220
-0
230
1
0
CIRCLE
5
111
100
AcDbEntity
8
0
100
AcDbCircle
10
-49.122831854815765
20
-70.589994974950244
30
0
40
1.6500000000000004
210
0
220
-0
230
1
0
LWPOLYLINE
5
112
100
AcDbEntity
8
0
100
AcDbPolyline
90
8
70
1
43
0.0
10
60
20
13.5
10
60
20
-13.5
42
-0.41421356237309503
10
58.5
20
-15
10
51.5
20
-15.000000000000004
42
-0.41421356237309503
10
50
20
-13.5
10
50
20
13.5
42
-0.41421356237309503
10
51.5
20
15
10
58.5
20
15.000000000000004
42
-0.41421356237309503
0
CIRCLE
5
113
100
AcDbEntity
8
0
100
AcDbCircle
10
-62
20
0
30
0
40
5.9999999999999964
210
0
220
-0
230
1
0
CIRCLE
5
114
100
AcDbEntity
8
0
100
AcDbCircle
10
-23.050000000000001
20
-30
30
0
40
1.6500000000000004
210
0
220
-0
230
1
0
CIRCLE
5
115
100
AcDbEntity
8
0
100
AcDbCircle
10
-23.050000000000001
20
30
30
0
40
1.6500000000000004
210
0
220
-0
230
1
0
CIRCLE
5
116
100
AcDbEntity
8
0
100
AcDbCircle
10
23.049999999997457
20
30.000000000000053
30
0
40
3.2500000000000018
210
0
220
-0
230
1
0
ENDSEC
0
SECTION
2
OBJECTS
0
DICTIONARY
5
C
100
AcDbDictionary
3
ACAD_GROUP
350
D
3
ACAD_MLINESTYLE
350
17
0
DICTIONARY
5
D
100
AcDbDictionary
0
DICTIONARY
5
1A
330
C
100
AcDbDictionary
0
DICTIONARY
5
17
100
AcDbDictionary
0
ENDSEC
0
EOF
