0
SECTION
2
HEADER
9
$INSUNITS
70
4
9
$ACADVER
1
AC1014
9
$HANDSEED
5
FFFF
0
ENDSEC
0
SECTION
2
TABLES
0
TABLE
2
VPORT
5
8
100
AcDbSymbolTable
0
ENDTAB
0
TABLE
2
LTYPE
5
5
100
AcDbSymbolTable
0
LTYPE
5
14
100
AcDbSymbolTableRecord
100
AcDbLinetypeTableRecord
2
BYBLOCK
70
0
0
LTYPE
5
15
100
AcDbSymbolTableRecord
100
AcDbLinetypeTableRecord
2
BYLAYER
70
0
0
LTYPE
5
16
100
AcDbSymbolTableRecord
100
AcDbLinetypeTableRecord
2
DASHED
70
0
3
Dashed __ __ __ __ __ __ __ __ __ __ __ __ __ _
72
65
73
2
40
0.75
49
0.5
74
0
49
-0.25
74
0
0
ENDTAB
0
TABLE
2
LAYER
5
2
100
AcDbSymbolTable
70
3
0
LAYER
5
50
100
AcDbSymbolTableRecord
100
AcDbLayerTableRecord
2
1
70
0
62
7
6
DASHED
0
LAYER
5
51
100
AcDbSymbolTableRecord
100
AcDbLayerTableRecord
2
0
70
0
62
7
6
CONTINUOUS
0
ENDTAB
0
TABLE
2
STYLE
5
3
100
AcDbSymbolTable
70
1
0
STYLE
5
11
100
AcDbSymbolTableRecord
100
AcDbTextStyleTableRecord
2
STANDARD
70
0
0
ENDTAB
0
TABLE
2
VIEW
5
6
100
AcDbSymbolTable
70
0
0
ENDTAB
0
TABLE
2
UCS
5
7
100
AcDbSymbolTable
70
0
0
ENDTAB
0
TABLE
2
APPID
5
9
100
AcDbSymbolTable
70
2
0
APPID
5
12
100
AcDbSymbolTableRecord
100
AcDbRegAppTableRecord
2
ACAD
70
0
0
ENDTAB
0
TABLE
2
DIMSTYLE
5
A
100
AcDbSymbolTable
70
1
0
ENDTAB
0
TABLE
2
BLOCK_RECORD
5
1
100
AcDbSymbolTable
70
1
0
BLOCK_RECORD
5
1F
100
AcDbSymbolTableRecord
100
AcDbBlockTableRecord
2
*MODEL_SPACE
0
BLOCK_RECORD
5
1B
100
AcDbSymbolTableRecord
100
AcDbBlockTableRecord
2
*PAPER_SPACE
0
ENDTAB
0
ENDSEC
0
SECTION
2
BLOCKS
0
BLOCK
5
20
100
AcDbEntity
100
AcDbBlockBegin
2
*MODEL_SPACE
0
ENDBLK
5
21
100
AcDbEntity
100
AcDbBlockEnd
0
BLOCK
5
1C
100
AcDbEntity
100
AcDbBlockBegin
2
*PAPER_SPACE
0
ENDBLK
5
1D
100
AcDbEntity
100
AcDbBlockEnd
0
ENDSEC
0
SECTION
2
ENTITIES
0
CIRCLE
5
100
100
AcDbEntity
8
0
100
AcDbCircle
10
-25
20
-21.000000000000007
30
0
40
1.6500000000000004
210
0
220
-0
230
1
0
CIRCLE
5
101
100
AcDbEntity
8
0
100
AcDbCircle
10
25.000000000000036
20
20.999999999999996
30
0
40
1.6500000000000004
210
0
220
-0
230
1
0
CIRCLE
5
102
100
AcDbEntity
8
0
100
AcDbCircle
10
-25.000000000000036
20
20.999999999999996
30
0
40
1.6500000000000004
210
0
220
-0
230
1
0
CIRCLE
5
103
100
AcDbEntity
8
0
100
AcDbCircle
10
25.000000000000007
20
-21.000000000000007
30
0
40
1.6500000000000004
210
0
220
-0
230
1
0
CIRCLE
5
104
100
AcDbEntity
8
0
100
AcDbCircle
10
23.049999999999997
20
30
30
0
40
1.6500000000000004
210
0
220
-0
230
1
0
CIRCLE
5
105
100
AcDbEntity
8
0
100
AcDbCircle
10
-23.050000000000001
20
-30
30
0
40
1.6500000000000004
210
0
220
-0
230
1
0
CIRCLE
5
106
100
AcDbEntity
8
0
100
AcDbCircle
10
-23.050000000000001
20
30
30
0
40
1.6500000000000004
210
0
220
-0
230
1
0
CIRCLE
5
107
100
AcDbEntity
8
0
100
AcDbCircle
10
23.049999999999997
20
-30
30
0
40
1.6500000000000004
210
0
220
-0
230
1
0
LWPOLYLINE
5
108
100
AcDbEntity
8
0
100
AcDbPolyline
90
8
70
1
43
0.0
10
20
20
-10
10
20
20
9.9999999999999982
42
-0.41421356237309498
10
23
20
12.999999999999998
10
33
20
12.999999999999998
42
-0.41421356237309503
10
36
20
10
10
36
20
-9.9999999999999982
42
-0.41421356237309498
10
33
20
-12.999999999999998
10
23
20
-12.999999999999998
42
-0.41421356237309503
0
LWPOLYLINE
5
109
100
AcDbEntity
8
0
100
AcDbPolyline
90
8
70
1
43
0.0
10
-36
20
-10
10
-36
20
9.9999999999999982
42
-0.41421356237309498
10
-33
20
12.999999999999998
10
-23
20
13
42
-0.41421356237309503
10
-19.999999999999996
20
10
10
-20
20
-9.9999999999999982
42
-0.41421356237309498
10
-23
20
-12.999999999999998
10
-33
20
-12.999999999999998
42
-0.41421356237309503
0
CIRCLE
5
110
100
AcDbEntity
8
0
100
AcDbCircle
10
3.4999999999999867
20
-52.425532226161124
30
0
40
1.6500000000000004
210
0
220
-0
230
1
0
CIRCLE
5
111
100
AcDbEntity
8
0
100
AcDbCircle
10
3.4999999999999867
20
-64.988074805258222
30
0
40
1.6500000000000004
210
0
220
-0
230
1
0
CIRCLE
5
112
100
AcDbEntity
8
0
100
AcDbCircle
10
-3.5000000000000138
20
-52.425532226161124
30
0
40
1.6500000000000004
210
0
220
-0
230
1
0
CIRCLE
5
113
100
AcDbEntity
8
0
100
AcDbCircle
10
-3.5000000000000138
20
-64.988074805258222
30
0
40
1.6500000000000004
210
0
220
-0
230
1
0
CIRCLE
5
114
100
AcDbEntity
8
0
100
AcDbCircle
10
-79.000000000000014
20
25.000000000000028
30
0
40
1.6500000000000004
210
0
220
-0
230
1
0
CIRCLE
5
115
100
AcDbEntity
8
0
100
AcDbCircle
10
-23.492702988468967
20
-61.776974235930844
30
0
40
1.6500000000000004
210
0
220
-0
230
1
0
CIRCLE
5
116
100
AcDbEntity
8
0
100
AcDbCircle
10
23.492702988468931
20
-61.776974235930844
30
0
40
1.6500000000000004
210
0
220
-0
230
1
0
CIRCLE
5
117
100
AcDbEntity
8
0
100
AcDbCircle
10
78.999999999999972
20
-25.000000000000057
30
0
40
1.6500000000000004
210
0
220
-0
230
1
0
CIRCLE
5
118
100
AcDbEntity
8
0
100
AcDbCircle
10
-79.000000000000028
20
-24.999999999999982
30
0
40
1.6500000000000004
210
0
220
-0
230
1
0
CIRCLE
5
119
100
AcDbEntity
8
0
100
AcDbCircle
10
25.000000000000039
20
78.999999999999986
30
0
40
1.6500000000000004
210
0
220
-0
230
1
0
CIRCLE
5
120
100
AcDbEntity
8
0
100
AcDbCircle
10
-24.999999999999961
20
79.000000000000028
30
0
40
1.6500000000000004
210
0
220
-0
230
1
0
CIRCLE
5
121
100
AcDbEntity
8
0
100
AcDbCircle
10
79.000000000000028
20
24.999999999999943
30
0
40
1.6500000000000004
210
0
220
-0
230
1
0
LWPOLYLINE
5
122
100
AcDbEntity
8
0
100
AcDbPolyline
90
36
70
1
43
0.0
10
-28.796003847367597
20
57.080275094829453
10
-57.080275094829915
20
28.796003847368038
42
-0.41421356237308959
10
-61.32291578194917
20
28.79600384736808
10
-74.228962952048306
20
41.702051017467213
42
0.50731434335270953
10
-79.01366527103616
20
40.961453836950867
42
0.24379834682418619
10
-79.013665271036203
20
-40.961453836950767
42
0.50731434335270731
10
-74.228962952048349
20
-41.702051017467141
10
-61.322915781948751
20
-28.796003847367572
42
-0.41421356237310025
10
-57.080275094829446
20
-28.796003847367601
10
-28.796003847368027
20
-57.080275094829929
42
-0.41421356237309076
10
-28.79600384736807
20
-61.322915781949192
10
-40.061076125433615
20
-72.587988060014808
42
1.1148672768477743
10
-32.816051760638459
20
-78.40942463811848
10
-30.884695535128674
20
-75.385272225611985
42
-0.2559933489418505
10
-28.35632566214332
20
-74
10
28.356325662143309
20
-74
42
-0.255993348941846
10
30.884695535128657
20
-75.385272225612013
10
32.816030775609306
20
-78.409391779385203
42
1.1148719804694696
10
40.061075967422504
20
-72.587987902003704
10
28.796003847367583
20
-61.322915781948751
42
-0.41421356237310025
10
28.796003847367629
20
-57.080275094829446
10
57.080275094829958
20
-28.796003847368027
42
-0.4142135623730917
10
61.322915781949199
20
-28.796003847368056
10
74.228962952048349
20
-41.70205101746717
42
0.50731434335270587
10
79.013665271036174
20
-40.961453836950824
42
0.24379834682418597
10
79.013665271036217
20
40.961453836950724
42
0.50731434335271386
10
74.228962952048335
20
41.702051017467141
10
61.322915781948751
20
28.796003847367551
42
-0.41421356237309997
10
57.080275094829432
20
28.796003847367597
10
28.796003847368041
20
57.080275094829922
42
-0.41421356237309015
10
28.796003847368077
20
61.322915781949177
10
41.702051017467205
20
74.22896295204832
42
0.50731434335270298
10
40.961453836950852
20
79.01366527103616
42
0.24379834682418619
10
-40.961453836950753
20
79.013665271036189
42
0.50731434335270353
10
-41.702051017467106
20
74.228962952048363
10
-28.796003847367551
20
61.322915781948772
42
-0.41421356237309997
0
CIRCLE
5
123
100
AcDbEntity
8
1
100
AcDbCircle
10
23.492702988468931
20
-61.776974235930844
30
0
40
3.0499999999999998
210
0
220
0
230
1
0
CIRCLE
5
124
100
AcDbEntity
8
1
100
AcDbCircle
10
-23.492702988468967
20
-61.776974235930844
30
0
40
3.0499999999999998
210
0
220
0
230
1
0
CIRCLE
5
125
100
AcDbEntity
8
1
100
AcDbCircle
10
23.049999999999997
20
-30
30
0
40
3.0499999999999998
210
0
220
0
230
1
0
CIRCLE
5
126
100
AcDbEntity
8
1
100
AcDbCircle
10
-23.050000000000001
20
-30
30
0
40
3.0499999999999998
210
0
220
0
230
1
0
CIRCLE
5
127
100
AcDbEntity
8
1
100
AcDbCircle
10
25.000000000000007
20
-21.000000000000007
30
0
40
3.0499999999999998
210
0
220
0
230
1
0
CIRCLE
5
128
100
AcDbEntity
8
1
100
AcDbCircle
10
-25
20
-21.000000000000007
30
0
40
3.0499999999999998
210
0
220
0
230
1
0
CIRCLE
5
129
100
AcDbEntity
8
1
100
AcDbCircle
10
78.999999999999972
20
-25.000000000000057
30
0
40
3.0499999999999998
210
0
220
0
230
1
0
CIRCLE
5
130
100
AcDbEntity
8
1
100
AcDbCircle
10
79.000000000000028
20
24.999999999999943
30
0
40
3.0499999999999998
210
0
220
0
230
1
0
CIRCLE
5
131
100
AcDbEntity
8
1
100
AcDbCircle
10
23.049999999999997
20
30
30
0
40
3.0499999999999998
210
0
220
0
230
1
0
CIRCLE
5
132
100
AcDbEntity
8
1
100
AcDbCircle
10
25.000000000000036
20
20.999999999999996
30
0
40
3.0499999999999998
210
0
220
0
230
1
0
CIRCLE
5
133
100
AcDbEntity
8
1
100
AcDbCircle
10
-25.000000000000036
20
20.999999999999996
30
0
40
3.0499999999999998
210
0
220
0
230
1
0
CIRCLE
5
134
100
AcDbEntity
8
1
100
AcDbCircle
10
-23.050000000000001
20
30
30
0
40
3.0499999999999998
210
0
220
0
230
1
0
CIRCLE
5
135
100
AcDbEntity
8
1
100
AcDbCircle
10
-79.000000000000028
20
-24.999999999999982
30
0
40
3.0499999999999998
210
0
220
0
230
1
0
CIRCLE
5
136
100
AcDbEntity
8
1
100
AcDbCircle
10
-79.000000000000014
20
25.000000000000028
30
0
40
3.0499999999999998
210
0
220
0
230
1
0
CIRCLE
5
137
100
AcDbEntity
8
1
100
AcDbCircle
10
25.000000000000039
20
78.999999999999986
30
0
40
3.0499999999999998
210
0
220
0
230
1
0
CIRCLE
5
138
100
AcDbEntity
8
1
100
AcDbCircle
10
-24.999999999999961
20
79.000000000000028
30
0
40
3.0499999999999998
210
0
220
0
230
1
0
LINE
5
139
100
AcDbEntity
8
0
100
AcDbLine
10
20.000000000000004
20
-57.5
30
0
11
19.999999999999996
21
47.500000000000007
31
0
0
LINE
5
140
100
AcDbEntity
8
0
100
AcDbLine
10
-20
20
47.500000000000007
30
0
11
-19.999999999999996
21
-57.5
31
0
0
LINE
5
141
100
AcDbEntity
8
0
100
AcDbLine
10
-19.999999999999996
20
-57.5
30
0
11
20.000000000000004
21
-57.5
31
0
0
LINE
5
142
100
AcDbEntity
8
1
100
AcDbLine
10
10.000000000000053
20
84.099999999999113
30
0
11
-9.9999999999999467
21
84.099999999999113
31
0
0
ARC
5
143
100
AcDbEntity
8
1
100
AcDbCircle
10
-9.9999999999999467
20
76.600000000000009
30
0
40
7.4999999999991029
210
0
220
-0
230
1
100
AcDbArc
50
90
51
270
0
LINE
5
144
100
AcDbEntity
8
1
100
AcDbLine
10
-9.9999999999999467
20
69.100000000000904
30
0
11
10.000000000000053
21
69.100000000000904
31
0
0
ARC
5
145
100
AcDbEntity
8
1
100
AcDbCircle
10
10.000000000000053
20
76.600000000000009
30
0
40
7.4999999999991029
210
0
220
0
230
1
100
AcDbArc
50
-90
51
90
0
LINE
5
146
100
AcDbEntity
8
1
100
AcDbLine
10
10.000000000000053
20
76.600000000000009
30
0
11
-9.9999999999999467
21
76.600000000000009
31
0
0
LINE
5
147
100
AcDbEntity
8
1
100
AcDbLine
10
5.3268381515226985e-14
20
76.600000000000009
30
0
11
4.8849813083506888e-14
21
89
31
0
0
LWPOLYLINE
5
148
100
AcDbEntity
8
0
100
AcDbPolyline
90
4
70
1
43
0.0
10
-46.649999999999991
20
-3.25
10
-46.649999999999991
20
-16.25
10
-65.349999999999994
20
-16.25
10
-65.349999999999994
20
-3.2499999999999996
0
LWPOLYLINE
5
149
100
AcDbEntity
8
0
100
AcDbPolyline
90
4
70
1
43
0.0
10
-41.999999999999993
20
17.75
10
-41.999999999999993
20
1.7500000000000004
10
-70
20
1.75
10
-70
20
17.75
0
CIRCLE
5
150
100
AcDbEntity
8
1
100
AcDbCircle
10
3.4999999999999867
20
-64.988074805258222
30
0
40
3.0499999999999998
210
0
220
0
230
1
0
CIRCLE
5
151
100
AcDbEntity
8
1
100
AcDbCircle
10
-3.5000000000000138
20
-64.988074805258222
30
0
40
3.0499999999999998
210
0
220
0
230
1
0
CIRCLE
5
152
100
AcDbEntity
8
1
100
AcDbCircle
10
3.4999999999999867
20
-52.425532226161124
30
0
40
3.0499999999999998
210
0
220
0
230
1
0
CIRCLE
5
153
100
AcDbEntity
8
1
100
AcDbCircle
10
-3.5000000000000138
20
-52.425532226161124
30
0
40
3.0499999999999998
210
0
220
0
230
1
0
LINE
5
154
100
AcDbEntity
8
1
100
AcDbLine
10
-22.000000000000011
20
47.500000000000007
30
0
11
-20
21
47.500000000000007
31
0
0
LINE
5
155
100
AcDbEntity
8
1
100
AcDbLine
10
-22.000000000000242
20
50.799999999999997
30
0
11
-22.000000000000011
21
47.500000000000007
31
0
0
LINE
5
156
100
AcDbEntity
8
1
100
AcDbLine
10
21.999999999999993
20
47.500000000000007
30
0
11
22.000000000000249
21
50.799999999999997
31
0
0
LINE
5
157
100
AcDbEntity
8
1
100
AcDbLine
10
19.999999999999996
20
47.500000000000007
30
0
11
21.999999999999993
21
47.500000000000007
31
0
0
LINE
5
158
100
AcDbEntity
8
1
100
AcDbLine
10
19.999999999999993
20
57.5
30
0
11
-20.000000000000007
21
57.499999999999822
31
0
0
LWPOLYLINE
5
159
100
AcDbEntity
8
0
100
AcDbPolyline
90
2
70
1
43
0.0
10
-20.000000000000007
20
57.499999999999822
10
-22.000000000000011
20
57.5
0
LWPOLYLINE
5
160
100
AcDbEntity
8
0
100
AcDbPolyline
90
2
70
1
43
0.0
10
21.999999999999993
20
57.500000000000007
10
19.999999999999993
20
57.5
0
LINE
5
161
100
AcDbEntity
8
0
100
AcDbLine
10
-22.000000000000242
20
56.299999999999997
30
0
11
-22.000000000000242
21
53.799999999999997
31
0
0
LINE
5
162
100
AcDbEntity
8
0
100
AcDbLine
10
0.56093829678735119
20
64.200000000000003
30
0
11
22.000000000000249
21
64.200000000000003
31
0
0
LINE
5
163
100
AcDbEntity
8
0
100
AcDbLine
10
-0.5609382967873473
20
64.200000000000003
30
0
11
-22.000000000000242
21
64.200000000000003
31
0
0
LINE
5
164
100
AcDbEntity
8
0
100
AcDbLine
10
0.56093829678735119
20
64.200000000000003
30
0
11
-0.5609382967873473
21
64.200000000000003
31
0
0
LINE
5
165
100
AcDbEntity
8
1
100
AcDbLine
10
1.9428902930940239e-15
20
64.200000000000003
30
0
11
5.3268381515226985e-14
21
76.600000000000009
31
0
0
ENDSEC
0
SECTION
2
OBJECTS
0
DICTIONARY
5
C
100
AcDbDictionary
3
ACAD_GROUP
350
D
3
ACAD_MLINESTYLE
350
17
0
DICTIONARY
5
D
100
AcDbDictionary
0
DICTIONARY
5
1A
330
C
100
AcDbDictionary
0
DICTIONARY
5
17
100
AcDbDictionary
0
ENDSEC
0
EOF
